<svg
  width="1088"
  height="875"
  viewBox="0 0 1088 875"
  fill="none"
  xmlns="http://www.w3.org/2000/svg"
>
<path
    d="M-345.44 570.612L-346.841 569.71C-345.952 556.854 -341.631 545.03 -333.925 534.407C-323.2 519.935 -308.984 511.718 -291.656 510.015C-274.427 508.318 -258.592 513.495 -244.614 525.417C-244.519 525.513 -244.409 525.613 -244.311 525.693C-232.843 535.74 -225.223 548.248 -221.633 562.926C-220.34 567.177 -219.403 571.623 -218.827 576.256L-218.762 576.791L-218.702 577.319L-218.488 577.267C-217.68 583.129 -216.561 588.827 -215.133 594.357C-207.871 619.396 -194.096 640.862 -173.992 658.383C-147.793 681.093 -118.052 690.997 -85.5394 687.791C-53.0453 684.598 -26.4432 669.148 -6.45818 641.882C13.5425 614.62 21.4602 582.966 17.0842 547.8C16.2626 541.178 15.0414 534.72 13.4371 528.503C13.0359 527.121 12.6154 525.752 12.1755 524.397C12.0627 524.053 12.0046 523.696 12.0002 523.342C11.7644 522.554 11.5222 521.771 11.2737 520.992C11.1423 520.828 11.0304 520.645 10.9426 520.444C9.36765 516.798 8.08656 512.949 7.10364 508.931C5.79608 504.634 4.84895 500.118 4.26867 495.431C1.92392 476.692 6.11654 459.793 16.726 445.167C27.4509 430.696 41.6665 422.479 58.9947 420.775C76.2236 419.079 92.0588 424.256 106.037 436.178C106.132 436.273 106.242 436.374 106.34 436.453C117.807 446.5 125.428 459.008 129.018 473.686C130.311 477.937 131.248 482.383 131.824 487.016C131.868 487.371 131.91 487.725 131.949 488.08L132.163 488.027C132.971 493.89 134.09 499.588 135.518 505.118C142.78 530.157 156.556 551.623 176.659 569.143C202.858 591.854 232.599 601.757 265.112 598.552C297.606 595.359 324.208 579.909 344.193 552.643C364.193 525.381 372.111 493.727 367.735 458.56C366.913 451.938 365.692 445.478 364.087 439.261C363.686 437.88 363.266 436.511 362.826 435.158C362.714 434.813 362.656 434.456 362.651 434.103C362.415 433.315 362.173 432.532 361.925 431.754C361.793 431.589 361.681 431.406 361.593 431.205C358.82 424.786 356.957 417.734 356.03 410.249C355.156 403.264 355.191 396.537 356.127 390.086C357.524 378.64 361.725 368.052 368.693 358.446C379.418 343.974 393.634 335.757 410.962 334.054C428.191 332.357 444.026 337.534 458.005 349.456C458.099 349.552 458.209 349.652 458.307 349.732C472.119 361.833 480.35 377.504 482.68 396.238C482.724 396.592 482.766 396.947 482.805 397.302L483.018 397.249C487.742 431.505 503.072 460.151 528.627 482.422C554.825 505.132 584.566 515.036 617.079 511.83C649.573 508.637 676.175 493.187 696.16 465.921C708.886 448.575 716.72 429.45 719.609 408.774C721.054 397.426 721.02 385.614 719.497 373.378C718.309 363.804 716.286 354.571 713.477 345.918C713.226 345.153 713.246 344.326 713.522 343.616C713.51 343.484 713.505 343.351 713.507 343.22C712.958 342.987 712.499 342.549 712.244 341.965C709.471 335.546 707.608 328.495 706.681 321.009C705.807 314.025 705.841 307.297 706.778 300.846C708.175 289.401 712.375 278.813 719.344 269.206C730.069 254.735 744.285 246.518 761.613 244.814C778.842 243.118 794.677 248.295 808.656 260.217L808.739 260.298L808.795 260.351L808.896 260.441L808.958 260.492C822.77 272.593 831.001 288.264 833.331 306.999C833.375 307.353 833.417 307.708 833.456 308.062L833.669 308.01C838.393 342.265 853.723 370.912 879.277 393.182C905.476 415.893 935.217 425.796 967.73 422.591C1000.22 419.398 1026.83 403.948 1046.81 376.682C1066.81 349.42 1074.73 317.766 1070.35 282.599C1069.17 273.026 1067.14 263.793 1064.33 255.14C1064.05 254.28 1064.11 253.341 1064.49 252.579L1064.53 252.506C1063.91 252.295 1063.38 251.829 1063.1 251.187C1060.33 244.768 1058.46 237.717 1057.54 230.231C1055.19 211.492 1059.39 194.593 1069.99 179.967C1080.72 165.496 1094.93 157.279 1112.26 155.575C1129.49 153.879 1145.33 159.056 1159.31 170.977L1159.38 171.051L1159.44 171.11C1159.5 171.161 1159.56 171.21 1159.61 171.253C1173.42 183.354 1181.65 199.025 1183.98 217.76L1184.04 218.258L1184.11 218.823L1184.32 218.77C1189.04 253.026 1204.37 281.673 1229.93 303.943C1256.13 326.654 1285.87 336.557 1318.38 333.352C1350.87 330.159 1377.48 314.708 1397.46 287.442C1417.46 260.18 1425.38 228.526 1421 193.36C1419.82 183.787 1417.79 174.554 1414.98 165.901C1414.7 165.04 1414.76 164.102 1415.14 163.34L1415.16 163.316L1415.18 163.266C1414.56 163.056 1414.03 162.589 1413.75 161.948C1410.98 155.529 1409.11 148.477 1408.19 140.992C1405.84 122.253 1410.04 105.353 1420.65 90.7278C1431.37 76.2564 1445.59 68.0392 1462.91 66.3356C1480.14 64.639 1495.98 69.8165 1509.96 81.738C1510 81.7814 1510.05 81.8256 1510.09 81.8686C1510.15 81.9205 1510.21 81.9701 1510.26 82.0136C1512.19 83.7081 1514.02 85.4728 1515.73 87.306L1513.02 92.5842C1511.1 90.4625 1509.02 88.4398 1506.79 86.5184C1499.69 80.3009 1492.03 76.0464 1483.86 73.7724L1483.87 73.7559C1477.42 71.959 1470.67 71.399 1463.64 72.0966C1447.72 73.6722 1434.73 81.2235 1425.05 94.5614C1415.25 107.778 1411.37 123.219 1413.51 140.46C1414.31 146.972 1415.92 153.117 1418.24 158.752C1418.65 159.734 1418.65 160.862 1418.23 161.789L1418.18 161.892L1418.14 161.971C1418.95 162.21 1419.63 162.847 1419.92 163.733C1422.92 172.89 1425.08 182.681 1426.34 192.849C1430.89 229.645 1422.6 262.708 1401.67 291.101C1380.88 319.618 1353.09 335.78 1319.08 339.125C1285.09 342.457 1254.01 332.093 1226.72 308.332C1226.7 308.326 1226.69 308.306 1226.67 308.285L1226.66 308.271L1226.64 308.256C1200.62 285.771 1184.71 256.961 1179.3 222.635L1179.28 222.517C1179.28 222.469 1179.27 222.422 1179.27 222.375C1179.26 222.273 1179.26 222.173 1179.26 222.073C1179.09 221.696 1178.98 221.29 1178.95 220.875C1178.88 220.021 1178.78 219.158 1178.67 218.312C1176.52 201.088 1168.95 186.764 1156.14 175.758C1149.04 169.54 1141.37 165.286 1133.21 163.012L1133.22 162.995C1126.77 161.199 1120.02 160.638 1112.99 161.336C1097.07 162.912 1084.08 170.463 1074.4 183.801C1064.6 197.018 1060.72 212.458 1062.86 229.699C1063.66 236.211 1065.27 242.357 1067.59 247.992C1068 248.973 1068 250.102 1067.58 251.029L1067.54 251.123L1067.49 251.21C1068.3 251.449 1068.98 252.085 1069.27 252.972C1072.27 262.129 1074.43 271.92 1075.69 282.088C1080.24 318.884 1071.95 351.947 1051.02 380.34C1030.23 408.858 1002.44 425.019 968.433 428.364C934.444 431.696 903.363 421.332 876.073 397.571C876.066 397.569 876.059 397.565 876.052 397.56L876.036 397.545L876.021 397.529L876.01 397.516L875.999 397.504L875.991 397.496C849.975 375.01 834.058 346.2 828.648 311.874C828.618 311.684 828.606 311.496 828.612 311.312C828.443 310.935 828.334 310.529 828.298 310.114C828.227 309.26 828.125 308.398 828.02 307.552C826.272 293.53 820.927 281.431 812.089 271.479L811.511 272.602C809.595 270.48 807.518 268.458 805.281 266.536C798.18 260.319 790.519 256.064 782.358 253.79L782.362 253.774C775.913 251.977 769.165 251.417 762.13 252.114C746.213 253.69 733.224 261.241 723.544 274.579C717.383 282.887 713.561 292.075 712.104 302.035C711.449 307.452 711.483 313.092 712.21 318.938C713.009 325.45 714.615 331.596 716.943 337.231C717.312 338.127 717.344 339.146 717.03 340.022C717.041 340.187 717.042 340.351 717.033 340.515C717.752 340.792 718.349 341.396 718.62 342.211C721.62 351.369 723.775 361.16 725.038 371.327C726.69 384.685 726.65 397.55 724.929 409.879C722.087 432.105 713.816 452.605 700.167 471.118C679.374 499.636 651.585 515.798 617.577 519.143C583.588 522.475 552.506 512.111 525.217 488.349C525.196 488.344 525.179 488.323 525.161 488.303L525.149 488.289L525.134 488.274C499.118 465.788 483.202 436.979 477.792 402.653L477.775 402.534C477.769 402.487 477.765 402.44 477.761 402.393C477.754 402.291 477.752 402.19 477.755 402.091C477.586 401.714 477.478 401.307 477.442 400.892C477.371 400.038 477.268 399.176 477.163 398.33C475.016 381.106 467.441 366.781 454.63 355.776C447.529 349.558 439.868 345.304 431.707 343.03L431.711 343.013C425.263 341.216 418.514 340.656 411.479 341.354C395.562 342.929 382.573 350.481 372.893 363.819C366.732 372.127 362.91 381.314 361.453 391.274C360.798 396.691 360.832 402.331 361.559 408.178C362.358 414.69 363.964 420.835 366.293 426.47C366.578 427.163 366.661 427.928 366.54 428.645L366.565 428.701L366.603 428.795L366.623 428.847L366.653 428.933C367.592 431.799 368.448 434.727 369.22 437.71C371.471 445.484 373.133 453.665 374.182 462.106C378.733 498.902 370.448 531.965 349.517 560.357C328.724 588.875 300.935 605.037 266.927 608.382C232.937 611.714 201.856 601.35 174.567 577.589C174.56 577.587 174.553 577.583 174.547 577.578L174.529 577.563L174.515 577.547L174.503 577.533L174.493 577.522L174.484 577.513C152.257 558.302 137.402 534.475 130.172 506.535C128.425 500.499 127.043 494.264 126.03 487.835C125.999 487.645 125.988 487.457 125.993 487.273C125.825 486.896 125.716 486.49 125.68 486.075C125.609 485.221 125.507 484.358 125.401 483.513C125.048 480.675 124.547 477.917 123.899 475.239C120.265 463.412 113.598 453.278 103.979 445.015C96.8792 438.797 89.2179 434.543 81.0573 432.269L81.0605 432.252C74.6121 430.455 67.8642 429.895 60.8286 430.593C44.9118 432.168 31.9232 439.72 22.2429 453.058C12.4407 466.275 8.56013 481.715 10.7036 498.956C11.0541 501.815 11.5601 504.603 12.2148 507.308C12.8335 509.324 13.5381 511.287 14.3254 513.192C14.5794 513.809 14.6734 514.484 14.6047 515.131C14.8568 515.807 15.1191 516.476 15.3913 517.138C15.6574 517.423 15.8689 517.772 16.0019 518.172C16.9411 521.039 17.7975 523.968 18.5696 526.952C20.8201 534.726 22.4826 542.906 23.531 551.345C28.0818 588.141 19.797 621.205 -1.13363 649.597C-21.9268 678.115 -49.7162 694.276 -83.7242 697.621C-117.713 700.953 -148.795 690.59 -176.084 666.828C-176.093 666.826 -176.101 666.821 -176.109 666.814L-176.122 666.802L-176.14 666.782L-176.149 666.772L-176.157 666.762L-176.167 666.753C-198.395 647.541 -213.25 623.713 -220.479 595.772C-222.227 589.737 -223.608 583.503 -224.621 577.075C-224.651 576.885 -224.663 576.697 -224.658 576.513C-224.826 576.135 -224.935 575.729 -224.971 575.314C-225.042 574.46 -225.144 573.598 -225.25 572.752C-225.603 569.915 -226.104 567.157 -226.751 564.479C-230.385 552.652 -237.053 542.517 -246.672 534.254C-253.772 528.037 -261.433 523.782 -269.594 521.508L-269.59 521.492C-276.039 519.695 -282.787 519.135 -289.822 519.832C-305.739 521.408 -318.728 528.959 -328.408 542.297C-338.21 555.514 -342.091 570.955 -339.947 588.196C-339.149 594.707 -337.543 600.853 -335.214 606.488C-334.929 607.18 -334.845 607.946 -334.967 608.662L-334.942 608.719L-334.903 608.813L-334.884 608.864L-334.854 608.95C-331.854 618.108 -329.699 627.899 -328.436 638.067C-323.885 674.863 -332.17 707.926 -353.101 736.319C-373.894 764.836 -401.683 780.998 -435.691 784.343C-469.681 787.675 -500.762 777.311 -528.052 753.55C-528.059 753.548 -528.066 753.544 -528.073 753.539L-528.089 753.524L-528.098 753.514L-528.106 753.504L-528.115 753.494L-528.125 753.483L-528.134 753.474C-554.15 730.988 -570.067 702.179 -575.477 667.853C-575.507 667.663 -575.519 667.475 -575.513 667.291C-575.682 666.914 -575.79 666.507 -575.826 666.092C-575.898 665.239 -576 664.376 -576.105 663.53C-578.252 646.306 -585.827 631.982 -598.639 620.976C-605.739 614.758 -613.4 610.504 -621.561 608.23L-621.558 608.213C-628.006 606.416 -634.754 605.856 -641.79 606.554C-657.706 608.13 -670.695 615.681 -680.375 629.019C-690.177 642.236 -694.058 657.676 -691.915 674.917C-691.116 681.429 -689.51 687.574 -687.181 693.21C-686.777 694.191 -686.778 695.32 -687.194 696.246L-687.231 696.327L-687.282 696.429C-686.479 696.667 -685.799 697.304 -685.505 698.19C-682.505 707.348 -680.35 717.139 -679.087 727.306C-674.536 764.102 -682.821 797.166 -703.752 825.558C-724.545 854.076 -752.334 870.237 -786.342 873.582C-820.332 876.914 -851.413 866.551 -878.702 842.789C-878.723 842.783 -878.741 842.763 -878.758 842.743L-878.785 842.714C-904.801 820.228 -920.717 791.418 -926.128 757.093C-926.158 756.903 -926.17 756.714 -926.164 756.53C-926.333 756.153 -926.441 755.747 -926.477 755.332C-926.549 754.478 -926.651 753.616 -926.756 752.77C-928.903 735.545 -936.478 721.221 -949.29 710.215C-956.39 703.998 -964.051 699.743 -972.212 697.469L-972.209 697.453C-978.657 695.656 -985.405 695.096 -992.44 695.793C-1008.36 697.369 -1021.35 704.92 -1031.03 718.258C-1038.68 728.583 -1042.73 740.265 -1043.11 753.102L-1048.35 749.728C-1047.46 736.871 -1043.14 725.048 -1035.43 714.425C-1024.71 699.953 -1010.49 691.736 -993.163 690.032C-975.934 688.336 -960.099 693.513 -946.12 705.435C-946.026 705.531 -945.915 705.631 -945.817 705.71C-932.006 717.811 -923.774 733.482 -921.445 752.217C-921.401 752.571 -921.359 752.926 -921.32 753.28L-921.107 753.228C-916.383 787.483 -901.053 816.13 -875.498 838.4C-849.3 861.111 -819.559 871.014 -787.046 867.809C-754.552 864.616 -727.95 849.166 -707.965 821.9C-687.964 794.638 -680.046 762.984 -684.422 727.818C-685.611 718.244 -687.634 709.011 -690.443 700.358C-690.724 699.498 -690.665 698.559 -690.282 697.797L-690.244 697.723C-690.867 697.513 -691.395 697.047 -691.676 696.405C-694.449 689.986 -696.311 682.935 -697.238 675.449C-699.583 656.71 -695.39 639.811 -684.781 625.185C-674.056 610.714 -659.84 602.496 -642.512 600.793C-625.283 599.096 -609.448 604.274 -595.469 616.195C-595.375 616.291 -595.265 616.391 -595.167 616.471C-581.355 628.572 -573.123 644.243 -570.794 662.977C-570.75 663.332 -570.708 663.686 -570.669 664.041L-570.456 663.988C-565.732 698.244 -550.402 726.89 -524.847 749.161C-498.649 771.872 -468.908 781.775 -436.395 778.57C-403.901 775.377 -377.299 759.926 -357.314 732.66C-337.313 705.398 -329.396 673.744 -333.772 638.578C-334.96 629.004 -336.983 619.772 -339.792 611.119C-339.99 610.512 -340.019 609.866 -339.885 609.271C-342.561 602.963 -344.364 596.053 -345.271 588.727C-346.053 582.479 -346.108 576.435 -345.44 570.612Z"
    fill="#302F2D"
    fill-opacity="0.1"
  />
<path
    d="M-364.314 558.458L-366.002 557.37C-363.648 544.047 -358.321 531.686 -350.058 520.408C-336.007 501.27 -317.261 490.406 -294.343 488.14C-271.428 485.891 -250.476 492.842 -232.052 508.799C-216.941 521.918 -206.887 538.213 -202.069 557.366C-200.603 562.302 -199.5 567.438 -198.762 572.768L-198.747 572.783C-198.714 572.818 -198.681 572.861 -198.65 572.913L-198.623 572.963L-198.606 573.001L-198.593 573.035C-198.581 573.067 -198.571 573.101 -198.563 573.138C-198.557 573.163 -198.553 573.189 -198.549 573.216C-197.88 578.606 -196.9 583.831 -195.611 588.887C-189.567 609.491 -178.204 627.151 -161.684 641.573C-139.993 660.387 -115.298 668.571 -88.2914 665.916C-61.3532 663.277 -39.3095 650.535 -22.7763 628.075L-22.7398 628.034L-22.7218 628.012L-22.6881 627.971L-22.6295 627.897L-22.5807 627.834C-6.06495 605.299 0.480157 579.048 -3.14487 549.824C-3.81238 544.433 -4.80193 539.172 -6.09678 534.097C-6.56762 532.491 -7.06999 530.906 -7.60302 529.344C-7.7372 528.942 -7.80028 528.524 -7.79195 528.112C-8.00542 527.428 -8.22452 526.749 -8.44943 526.074C-8.72598 525.813 -8.94831 525.487 -9.08916 525.112C-10.3664 521.723 -11.464 518.203 -12.3773 514.576C-13.9995 509.11 -15.1874 503.366 -15.9228 497.432C-19.0074 472.614 -13.4453 450.328 0.593278 431.169C14.6442 412.03 33.3896 401.166 56.3078 398.901C79.2226 396.652 100.175 403.602 118.599 419.56C133.71 432.679 143.764 448.974 148.583 468.128C150.048 473.063 151.151 478.199 151.889 483.529L151.904 483.544C151.918 483.559 151.933 483.577 151.948 483.595C151.966 483.619 151.984 483.645 152.001 483.674C152.024 483.712 152.045 483.756 152.062 483.807L152.074 483.844L152.086 483.889C152.092 483.917 152.097 483.946 152.102 483.976C152.77 489.366 153.75 494.59 155.039 499.644C161.083 520.25 172.446 537.911 188.967 552.333C210.658 571.147 235.353 579.332 262.36 576.677C289.298 574.037 311.341 561.296 327.875 538.835C327.938 538.766 328.004 538.68 328.07 538.595C344.586 516.06 351.131 489.809 347.506 460.585C346.839 455.194 345.849 449.932 344.554 444.857C344.083 443.252 343.581 441.666 343.048 440.105C342.914 439.703 342.851 439.284 342.859 438.872C342.646 438.189 342.427 437.51 342.202 436.836C341.925 436.575 341.702 436.248 341.561 435.873C338.795 428.535 336.871 420.58 335.839 412.249C334.704 403.118 334.74 394.33 335.937 385.914C337.816 370.864 343.373 356.986 352.561 344.447C366.611 325.308 385.357 314.445 408.275 312.179C431.19 309.93 452.142 316.881 470.566 332.838C488.578 348.476 499.405 368.627 502.745 392.75L502.759 392.766C502.793 392.801 502.826 392.844 502.856 392.895L502.883 392.945C502.894 392.968 502.905 392.992 502.914 393.017C502.925 393.049 502.936 393.083 502.944 393.121L502.951 393.158L502.958 393.198C506.582 422.422 519.36 446.778 540.934 465.612C562.626 484.426 587.32 492.61 614.327 489.955C641.265 487.316 663.309 474.574 679.842 452.114L679.869 452.083L679.885 452.065L679.923 452.019L679.93 452.01L680.035 451.877C690.5 437.598 696.964 421.823 699.372 404.749C700.559 395.346 700.527 385.554 699.268 375.402C698.205 366.819 696.326 358.564 693.698 350.866C693.435 350.078 693.446 349.229 693.729 348.49C693.718 348.37 693.713 348.25 693.714 348.131C693.045 347.884 692.48 347.347 692.212 346.633C689.446 339.295 687.522 331.341 686.49 323.01C685.355 313.878 685.391 305.09 686.588 296.674C688.467 281.624 694.024 267.746 703.212 255.208C717.262 236.069 736.008 225.205 758.926 222.94C781.841 220.691 802.793 227.641 821.217 243.599C839.229 259.236 850.056 279.387 853.395 303.511L853.41 303.526L853.433 303.551L853.454 303.578C853.473 303.601 853.491 303.627 853.507 303.656L853.533 303.702C853.546 303.729 853.558 303.758 853.569 303.789L853.581 303.826L853.593 303.872C853.599 303.899 853.604 303.928 853.608 303.958C857.234 333.183 870.011 357.539 891.585 376.372C913.276 395.186 937.971 403.371 964.978 400.716C991.916 398.076 1013.96 385.335 1030.49 362.874C1030.52 362.844 1030.55 362.811 1030.58 362.776L1030.69 362.634C1047.2 340.099 1053.75 313.848 1050.12 284.624C1049.06 276.041 1047.18 267.786 1044.55 260.087C1044.26 259.206 1044.31 258.246 1044.7 257.451L1044.72 257.403C1043.99 257.185 1043.36 256.622 1043.07 255.855C1040.3 248.517 1038.38 240.563 1037.35 232.231C1034.26 207.414 1039.82 185.128 1053.86 165.969C1067.91 146.83 1086.66 135.966 1109.58 133.701C1132.49 131.452 1153.44 138.402 1171.87 154.36C1189.88 169.997 1200.71 190.148 1204.05 214.272L1204.06 214.287C1204.09 214.322 1204.13 214.365 1204.16 214.417C1204.2 214.494 1204.24 214.593 1204.26 214.719C1207.88 243.943 1220.66 268.3 1242.24 287.133C1263.93 305.947 1288.62 314.132 1315.63 311.477C1342.57 308.837 1364.61 296.096 1381.14 273.635L1381.2 273.573L1381.23 273.531L1381.29 273.457L1381.34 273.395C1397.85 250.86 1404.4 224.609 1400.77 195.385C1399.71 186.801 1397.83 178.547 1395.2 170.848C1394.91 169.967 1394.96 169.007 1395.35 168.212L1395.37 168.164C1394.64 167.946 1394.01 167.383 1393.72 166.616C1390.95 159.278 1389.03 151.323 1388 142.992C1384.91 118.175 1390.47 95.8888 1404.51 76.7293C1418.56 57.5904 1437.31 46.7265 1460.23 44.4611C1483.14 42.2122 1504.09 49.1626 1522.52 65.1202C1523.6 66.0561 1524.65 67.008 1525.68 67.9761L1523.04 73.0981C1521.78 71.8748 1520.47 70.6775 1519.12 69.5066C1501.92 54.5852 1482.34 48.0873 1460.93 50.2176C1439.63 52.3247 1422.12 62.3866 1408.89 80.1545L1408.89 80.1381L1408.86 80.1626L1408.82 80.2079L1408.77 80.2693L1408.74 80.3048L1408.7 80.3616L1408.67 80.4128L1408.63 80.4812C1395.6 98.3955 1390.41 119.273 1393.29 142.435C1394.23 150.011 1395.96 157.234 1398.43 163.934C1398.77 164.861 1398.74 165.862 1398.34 166.723L1398.33 166.755L1398.3 166.798C1399.1 167.015 1399.77 167.624 1400.07 168.485C1402.93 176.735 1404.96 185.589 1406.12 194.841C1409.94 225.579 1403.01 253.252 1385.53 277.098C1368.04 300.944 1344.77 314.438 1316.37 317.242C1287.96 320.045 1261.93 311.384 1239.03 291.522L1239.01 291.513L1239 291.504L1238.99 291.489L1238.98 291.475L1238.95 291.447C1216.08 271.593 1202.55 245.95 1198.74 215.249L1198.77 215.241C1195.72 192.535 1185.53 173.541 1168.47 158.746C1151.27 143.825 1131.69 137.327 1110.28 139.457C1088.98 141.564 1071.47 151.626 1058.24 169.394L1058.24 169.378C1058.2 169.417 1058.16 169.459 1058.12 169.506C1058.07 169.57 1058.02 169.642 1057.97 169.721C1044.95 187.635 1039.76 208.512 1042.64 231.675C1043.58 239.251 1045.31 246.474 1047.78 253.173C1048.12 254.1 1048.09 255.101 1047.69 255.962L1047.67 256.004L1047.65 256.037C1048.45 256.254 1049.12 256.863 1049.42 257.724C1052.28 265.974 1054.31 274.828 1055.47 284.08C1059.29 314.818 1052.36 342.491 1034.88 366.337C1017.39 390.183 994.121 403.677 965.715 406.481C937.31 409.285 911.278 400.623 888.381 380.761L888.365 380.754L888.343 380.735L888.325 380.715L888.31 380.698L888.298 380.686C865.432 360.832 851.904 335.19 848.09 304.488L848.123 304.48C845.332 283.757 836.602 266.126 822.13 251.957L821.534 253.116C820.27 251.892 818.963 250.695 817.613 249.524C800.412 234.603 780.835 228.105 759.427 230.235C738.122 232.342 720.615 242.404 707.38 260.172L707.384 260.156C707.341 260.196 707.3 260.24 707.261 260.287C707.21 260.351 707.162 260.421 707.119 260.499C698.912 271.79 693.815 284.257 691.888 297.732C690.964 305.167 690.994 312.904 691.991 320.914C692.932 328.49 694.662 335.713 697.134 342.412C697.435 343.25 697.445 344.148 697.147 344.949C697.157 345.075 697.161 345.2 697.159 345.325C697.885 345.575 698.492 346.159 698.767 346.964C701.625 355.213 703.66 364.067 704.815 373.319C706.21 384.529 706.174 395.331 704.717 405.688C702.36 424.323 695.441 441.536 684.019 457.115C666.537 480.962 643.265 494.456 614.859 497.259C586.453 500.063 560.421 491.402 537.524 471.539L537.51 471.533L537.496 471.522L537.481 471.507L537.468 471.493L537.442 471.464C514.575 451.611 501.048 425.968 497.234 395.267L497.266 395.259C494.209 372.553 484.021 353.559 466.962 338.764C449.761 323.842 430.184 317.345 408.777 319.475C387.471 321.582 369.964 331.644 356.73 349.412L356.733 349.395C356.691 349.434 356.651 349.477 356.613 349.524C356.56 349.588 356.512 349.66 356.468 349.738C348.26 361.031 343.162 373.501 341.237 386.978C340.313 394.411 340.344 402.146 341.34 410.153C342.281 417.729 344.011 424.952 346.483 431.652C346.689 432.225 346.759 432.826 346.687 433.405C346.729 433.495 346.767 433.589 346.8 433.685C347.889 436.829 348.858 440.06 349.705 443.368C351.636 449.973 353.063 456.916 353.96 464.098C357.783 494.836 350.852 522.508 333.369 546.355C315.887 570.201 292.615 583.695 264.209 586.498C235.803 589.302 209.771 580.641 186.874 560.779L186.858 560.771L186.836 560.753L186.819 560.733L186.804 560.716L186.791 560.703C168.128 544.499 155.685 524.437 149.668 500.916C147.754 494.37 146.353 487.545 145.472 480.449L145.504 480.441C145.007 476.749 144.321 473.154 143.448 469.66C138.596 453.411 129.51 439.45 116.311 428.003C99.1108 413.081 79.5339 406.584 58.1263 408.714C36.821 410.821 19.3139 420.883 6.07911 438.651L6.08241 438.634C5.98177 438.728 5.89355 438.842 5.8172 438.978C-7.20291 456.892 -12.3976 477.769 -9.51549 500.931C-9.00276 505.06 -8.25569 509.083 -7.2821 512.974C-6.73483 514.808 -6.13541 516.609 -5.48452 518.373C-5.30412 518.875 -5.2281 519.397 -5.2601 519.908C-5.04955 520.537 -4.83276 521.161 -4.60961 521.781C-4.27471 522.076 -4.00877 522.464 -3.85128 522.925C-2.76269 526.067 -1.79354 529.296 -0.946881 532.602C0.984378 539.21 2.41162 546.153 3.30878 553.337C7.13194 584.075 0.200629 611.748 -17.282 635.594C-34.7644 659.44 -58.0364 672.934 -86.442 675.738C-114.848 678.542 -140.88 669.88 -163.777 650.018L-163.792 650.011L-163.818 649.988L-163.833 649.971L-163.856 649.946C-182.52 633.741 -194.966 613.676 -200.983 590.154C-202.897 583.608 -204.298 576.784 -205.179 569.689L-205.146 569.681C-205.644 565.988 -206.33 562.393 -207.203 558.898C-212.055 542.65 -221.141 528.689 -234.34 517.242C-251.54 502.321 -271.117 495.823 -292.525 497.953C-313.83 500.06 -331.337 510.122 -344.572 527.89L-344.569 527.874C-344.621 527.923 -344.671 527.978 -344.717 528.038C-344.758 528.093 -344.797 528.153 -344.834 528.217C-357.854 546.131 -363.049 567.008 -360.166 590.171C-359.225 597.747 -357.496 604.97 -355.024 611.67C-354.818 612.243 -354.748 612.844 -354.82 613.423C-354.778 613.513 -354.74 613.606 -354.707 613.703C-351.849 621.953 -349.814 630.807 -348.659 640.059C-344.835 670.797 -351.766 698.469 -369.249 722.316C-386.732 746.162 -410.003 759.656 -438.409 762.459C-466.815 765.263 -492.847 756.602 -515.744 736.74C-515.753 736.737 -515.76 736.733 -515.768 736.726L-515.787 736.707L-515.8 736.693L-515.827 736.664C-538.693 716.811 -552.22 691.168 -556.035 660.467L-556.002 660.459C-559.06 637.753 -569.248 618.759 -586.307 603.964C-603.507 589.043 -623.084 582.545 -644.492 584.675C-665.797 586.782 -683.304 596.844 -696.539 614.612L-696.536 614.595C-696.636 614.689 -696.725 614.803 -696.801 614.938C-709.821 632.853 -715.016 653.73 -712.134 676.892C-711.193 684.469 -709.463 691.691 -706.991 698.391C-706.658 699.318 -706.681 700.319 -707.084 701.18L-707.102 701.217L-707.121 701.256C-706.327 701.472 -705.653 702.081 -705.358 702.942C-702.5 711.192 -700.465 720.046 -699.31 729.298C-695.486 760.036 -702.417 787.709 -719.9 811.555C-737.383 835.401 -760.654 848.895 -789.06 851.699C-817.466 854.503 -843.498 845.841 -866.395 825.979L-866.408 825.973L-866.419 825.966L-866.441 825.944L-866.461 825.921L-866.478 825.904C-889.344 806.05 -902.871 780.408 -906.686 749.707L-906.653 749.699C-909.711 726.993 -919.899 707.999 -936.958 693.203C-954.158 678.282 -973.735 671.784 -995.143 673.914C-1016.45 676.021 -1033.96 686.083 -1047.19 703.851L-1047.19 703.835C-1047.29 703.929 -1047.38 704.043 -1047.45 704.178C-1055.49 715.235 -1060.54 727.421 -1062.56 740.576L-1067.51 737.388C-1065.15 724.065 -1059.83 711.704 -1051.56 700.426C-1037.51 681.287 -1018.77 670.423 -995.85 668.158C-972.935 665.909 -951.983 672.859 -933.558 688.817C-915.547 704.454 -904.719 724.605 -901.38 748.729L-901.366 748.744C-901.351 748.76 -901.336 748.777 -901.322 748.795L-901.305 748.818L-901.295 748.833L-901.268 748.874C-901.223 748.952 -901.184 749.051 -901.167 749.177C-897.542 778.401 -884.765 802.757 -863.191 821.59C-841.499 840.405 -816.805 848.589 -789.798 845.934C-762.86 843.295 -740.816 830.553 -724.283 808.093L-724.247 808.051L-724.229 808.03L-724.195 807.989L-724.136 807.915L-724.087 807.852C-707.572 785.317 -701.027 759.066 -704.652 729.842C-705.714 721.259 -707.594 713.004 -710.221 705.305C-710.515 704.424 -710.467 703.465 -710.078 702.67L-710.053 702.621C-710.789 702.403 -711.419 701.84 -711.707 701.073C-714.473 693.735 -716.397 685.781 -717.429 677.449C-720.514 652.632 -714.952 630.346 -700.913 611.187C-686.863 592.048 -668.117 581.184 -645.199 578.918C-622.284 576.67 -601.332 583.62 -582.908 599.578C-564.896 615.215 -554.068 635.366 -550.729 659.49L-550.715 659.505L-550.704 659.517L-550.688 659.535C-550.663 659.564 -550.64 659.597 -550.617 659.635C-550.572 659.712 -550.533 659.811 -550.516 659.937C-546.891 689.161 -534.114 713.518 -512.54 732.351C-490.848 751.165 -466.154 759.35 -439.147 756.694C-412.209 754.055 -390.165 741.313 -373.632 718.853C-373.57 718.784 -373.504 718.7 -373.438 718.614C-356.922 696.08 -350.375 669.827 -354.001 640.602C-355.063 632.019 -356.943 623.765 -359.57 616.066C-359.752 615.52 -359.803 614.944 -359.723 614.395L-359.74 614.351C-362.506 607.013 -364.43 599.059 -365.462 590.728C-366.867 579.427 -366.478 568.652 -364.314 558.458Z"
    fill="#302F2D"
    fill-opacity="0.1"
  />
<path
    d="M-187.885 553.077C-193.929 532.472 -205.291 514.811 -221.812 500.389C-243.504 481.575 -268.198 473.391 -295.205 476.046C-322.143 478.685 -344.187 491.427 -360.72 513.887L-360.773 513.949L-360.848 514.042L-360.915 514.128C-377.431 536.663 -383.976 562.914 -380.351 592.138C-379.288 600.721 -377.409 608.976 -374.782 616.675C-374.599 617.221 -374.549 617.797 -374.629 618.345L-374.612 618.389C-371.846 625.727 -369.922 633.682 -368.89 642.013C-365.805 666.83 -371.367 689.116 -385.406 708.276C-399.457 727.414 -418.202 738.278 -441.12 740.544C-464.035 742.792 -484.987 735.842 -503.412 719.885C-521.424 704.247 -532.251 684.096 -535.59 659.972L-535.605 659.957L-535.633 659.925L-535.645 659.91L-535.658 659.894L-535.677 659.867L-535.702 659.827C-535.748 659.75 -535.786 659.651 -535.803 659.525C-539.428 630.301 -552.205 605.945 -573.779 587.111C-595.471 568.297 -620.165 560.112 -647.172 562.768C-674.11 565.407 -696.154 578.149 -712.687 600.609L-712.73 600.658L-712.768 600.704L-712.775 600.713L-712.826 600.776L-712.883 600.85C-729.399 623.384 -735.944 649.635 -732.319 678.86C-731.256 687.443 -729.376 695.697 -726.749 703.396C-726.455 704.277 -726.503 705.237 -726.892 706.032L-726.917 706.08C-726.181 706.298 -725.551 706.862 -725.263 707.629C-722.497 714.966 -720.573 722.921 -719.541 731.252C-716.456 756.069 -722.018 778.355 -736.057 797.515C-750.108 816.654 -768.853 827.518 -791.771 829.783C-814.686 832.032 -835.638 825.082 -854.062 809.124C-872.074 793.487 -882.902 773.336 -886.241 749.212L-886.255 749.197C-886.289 749.161 -886.322 749.119 -886.353 749.067C-886.398 748.989 -886.437 748.89 -886.454 748.764C-890.079 719.54 -902.856 695.184 -924.43 676.351C-946.122 657.536 -970.816 649.352 -997.823 652.007C-1024.76 654.646 -1046.8 667.388 -1063.34 689.848C-1063.4 689.918 -1063.47 690.003 -1063.53 690.089C-1072.2 701.914 -1078.12 714.763 -1081.27 728.527L-1086.12 725.401C-1082.7 711.483 -1076.56 698.445 -1067.72 686.386C-1050.24 662.54 -1026.97 649.046 -998.561 646.242C-970.155 643.438 -944.123 652.1 -921.226 671.962L-921.21 671.969C-921.2 671.978 -921.18 671.997 -921.17 672.008L-921.155 672.025L-921.143 672.037C-898.277 691.891 -884.75 717.533 -880.935 748.234L-880.968 748.242C-877.91 770.948 -867.723 789.942 -850.663 804.738C-833.463 819.659 -813.886 826.157 -792.478 824.027C-771.173 821.92 -753.666 811.858 -740.431 794.09L-740.434 794.106C-740.334 794.012 -740.245 793.898 -740.169 793.763C-727.149 775.849 -721.954 754.972 -724.836 731.809C-725.777 724.233 -727.507 717.01 -729.979 710.31C-730.313 709.383 -730.289 708.382 -729.886 707.521L-729.849 707.446C-730.643 707.229 -731.318 706.62 -731.612 705.759C-734.47 697.51 -736.505 688.655 -737.661 679.403C-741.484 648.665 -734.553 620.993 -717.07 597.146C-699.588 573.3 -676.316 559.806 -647.91 557.003C-619.504 554.199 -593.472 562.86 -570.575 582.722L-570.564 582.727L-570.554 582.734L-570.54 582.746L-570.529 582.757L-570.509 582.78L-570.492 582.798C-547.626 602.651 -534.099 628.294 -530.284 658.995L-530.317 659.003C-527.26 681.709 -517.072 700.703 -500.012 715.498C-482.812 730.42 -463.235 736.917 -441.827 734.787C-420.522 732.68 -403.015 722.618 -389.78 704.85L-389.783 704.867C-389.683 704.773 -389.595 704.659 -389.518 704.524C-376.498 686.609 -371.303 665.732 -374.185 642.57C-375.126 634.993 -376.856 627.771 -379.328 621.071C-379.534 620.498 -379.604 619.897 -379.532 619.317C-379.574 619.227 -379.612 619.134 -379.645 619.038C-382.503 610.788 -384.538 601.934 -385.693 592.682C-387.716 576.418 -386.728 561.013 -382.76 546.578L-384.616 545.383C-381.198 531.465 -375.055 518.427 -366.214 506.368C-348.732 482.522 -325.46 469.028 -297.054 466.224C-268.648 463.421 -242.616 472.082 -219.719 491.944L-219.704 491.951L-219.68 491.972L-219.663 491.991L-219.649 492.007L-219.637 492.019C-200.973 508.224 -188.531 528.285 -182.514 551.806C-180.599 558.352 -179.199 565.178 -178.317 572.273L-178.35 572.281C-177.852 575.974 -177.166 579.569 -176.293 583.064C-171.441 599.312 -162.355 613.273 -149.157 624.72C-131.956 639.641 -112.379 646.139 -90.9716 644.009C-69.6665 641.902 -52.1592 631.84 -38.9244 614.072L-38.9277 614.088C-38.8271 613.995 -38.7388 613.881 -38.6624 613.745C-25.6423 595.831 -20.4477 574.954 -23.3296 551.791C-23.8424 547.663 -24.5892 543.64 -25.5628 539.75C-26.1101 537.915 -26.7097 536.114 -27.3608 534.349C-27.5412 533.848 -27.6171 533.326 -27.5851 532.815C-27.7956 532.186 -28.0125 531.561 -28.2358 530.941C-28.5706 530.647 -28.8365 530.258 -28.994 529.798C-30.0827 526.656 -31.052 523.425 -31.8988 520.119C-33.8297 513.512 -35.2568 506.569 -36.1539 499.386C-39.9771 468.647 -33.046 440.975 -15.5634 417.129C1.91918 393.283 25.1909 379.788 53.5967 376.985C82.0025 374.181 108.035 382.843 130.932 402.705L130.953 402.716L130.966 402.728L130.977 402.74L130.997 402.763L131.014 402.78C149.678 418.985 162.121 439.047 168.138 462.568C170.052 469.114 171.452 475.939 172.334 483.034L172.301 483.042C172.799 486.735 173.485 490.33 174.358 493.825C179.21 510.073 188.296 524.033 201.494 535.48C218.695 550.402 238.272 556.9 259.679 554.769C280.984 552.662 298.492 542.6 311.727 524.832L311.723 524.849C311.824 524.755 311.912 524.641 311.988 524.506C325.008 506.592 330.203 485.714 327.321 462.552C326.808 458.423 326.061 454.399 325.088 450.508C324.541 448.675 323.941 446.874 323.29 445.11C323.11 444.609 323.034 444.086 323.066 443.575C322.855 442.947 322.639 442.323 322.416 441.704C322.08 441.409 321.814 441.02 321.656 440.559C318.798 432.309 316.763 423.455 315.608 414.203C314.214 402.997 314.25 392.198 315.705 381.843C318.061 363.205 324.98 345.989 336.404 330.407C353.886 306.561 377.158 293.067 405.564 290.263C433.97 287.46 460.002 296.121 482.899 315.983C482.907 315.985 482.915 315.99 482.923 315.996L482.937 316.009L482.955 316.03L482.967 316.043L482.981 316.058C505.848 335.912 519.375 361.554 523.19 392.256L523.157 392.264C526.214 414.97 536.402 433.964 553.462 448.759C570.662 463.68 590.239 470.178 611.647 468.048C632.952 465.941 650.459 455.879 663.694 438.111L663.691 438.127C663.791 438.034 663.879 437.92 663.956 437.784C672.163 426.492 677.261 414.022 679.187 400.545C680.11 393.112 680.079 385.377 679.083 377.369C678.142 369.793 676.412 362.571 673.94 355.871C673.639 355.033 673.629 354.135 673.927 353.334C673.917 353.209 673.913 353.083 673.915 352.958C673.189 352.708 672.582 352.124 672.307 351.32C669.449 343.07 667.414 334.216 666.259 324.964C664.865 313.756 664.9 302.955 666.356 292.599C668.713 273.963 675.632 256.749 687.055 241.168C704.537 217.322 727.809 203.827 756.215 201.024C784.621 198.22 810.653 206.882 833.55 226.744C833.563 226.747 833.575 226.757 833.586 226.769L833.606 226.79L833.621 226.807L833.633 226.819C856.499 246.672 870.026 272.315 873.84 303.016L873.808 303.024C876.865 325.73 887.053 344.724 904.113 359.519C921.313 374.441 940.89 380.939 962.297 378.808C983.603 376.701 1001.11 366.639 1014.34 348.871L1014.34 348.888L1014.39 348.837C1014.42 348.804 1014.45 348.769 1014.48 348.732C1014.5 348.709 1014.52 348.685 1014.53 348.661C1014.56 348.624 1014.58 348.585 1014.61 348.545C1027.63 330.63 1032.82 309.753 1029.94 286.591C1029 279.015 1027.27 271.792 1024.8 265.092C1024.46 264.165 1024.49 263.164 1024.89 262.303L1024.93 262.228C1024.13 262.012 1023.46 261.403 1023.16 260.541C1020.3 252.292 1018.27 243.438 1017.11 234.186C1013.29 203.447 1020.22 175.775 1037.71 151.929C1055.19 128.082 1078.46 114.588 1106.87 111.785C1135.27 108.981 1161.3 117.642 1184.2 137.505L1184.22 137.512C1184.23 137.52 1184.24 137.537 1184.25 137.548L1184.27 137.567L1184.28 137.58C1207.15 157.433 1220.68 183.076 1224.49 213.777L1224.46 213.785C1227.52 236.491 1237.7 255.485 1254.76 270.28C1271.96 285.202 1291.54 291.7 1312.95 289.569C1334.25 287.462 1351.76 277.4 1364.99 259.632L1364.99 259.649C1365.09 259.555 1365.18 259.441 1365.26 259.306C1378.28 241.391 1383.47 220.514 1380.59 197.352C1379.65 189.775 1377.92 182.553 1375.45 175.853C1375.11 174.926 1375.14 173.925 1375.54 173.064L1375.55 173.033L1375.58 172.988C1374.78 172.772 1374.11 172.163 1373.81 171.302C1370.96 163.052 1368.92 154.198 1367.77 144.946C1363.94 114.208 1370.87 86.5352 1388.36 62.6891C1405.84 38.843 1429.11 25.3488 1457.52 22.5454C1485.92 19.7415 1511.95 28.4029 1534.85 48.2651C1534.85 48.2651 1534.86 48.2708 1534.87 48.2756C1534.88 48.2851 1534.9 48.2986 1534.91 48.3116L1534.92 48.3285L1534.93 48.3403L1535.11 48.4925L1535.51 48.8471L1532.96 53.8153C1532.53 53.4257 1532.09 53.0386 1531.65 52.6538C1509.96 33.8396 1485.26 25.6552 1458.25 28.3103C1431.32 30.9497 1409.27 43.6914 1392.74 66.1517L1392.7 66.2007L1392.66 66.2467L1392.65 66.2555L1392.59 66.3267L1392.54 66.3923C1376.03 88.927 1369.48 115.178 1373.11 144.402C1374.17 152.985 1376.05 161.24 1378.68 168.939C1378.97 169.82 1378.92 170.78 1378.53 171.575L1378.51 171.623C1379.24 171.841 1379.88 172.404 1380.16 173.171C1382.93 180.509 1384.85 188.464 1385.89 196.795C1388.97 221.612 1383.41 243.898 1369.37 263.058C1355.32 282.196 1336.57 293.06 1313.65 295.326C1290.74 297.575 1269.79 290.624 1251.36 274.667C1233.35 259.029 1222.52 238.878 1219.19 214.755L1219.17 214.739L1219.13 214.692C1219.11 214.668 1219.09 214.64 1219.07 214.61C1219.05 214.563 1219.02 214.508 1219 214.444C1218.99 214.402 1218.98 214.357 1218.97 214.307C1215.35 185.083 1202.57 160.727 1181 141.893C1159.3 123.079 1134.61 114.895 1107.6 117.55C1080.66 120.189 1058.62 132.931 1042.09 155.391L1042.06 155.425L1042.03 155.46L1042.01 155.484L1041.95 155.554L1041.89 155.632C1025.38 178.167 1018.83 204.418 1022.46 233.642C1023.52 242.225 1025.4 250.48 1028.03 258.178C1028.32 259.059 1028.27 260.019 1027.88 260.814L1027.86 260.862C1028.59 261.08 1029.22 261.643 1029.51 262.41C1032.28 269.748 1034.2 277.703 1035.24 286.034C1038.32 310.851 1032.76 333.137 1018.72 352.297C1004.67 371.436 985.923 382.299 963.005 384.565C940.09 386.814 919.138 379.863 900.713 363.906C882.701 348.268 871.874 328.117 868.535 303.994L868.52 303.978L868.478 303.93C868.459 303.906 868.441 303.879 868.423 303.849L868.405 303.817L868.383 303.77L868.373 303.746L868.359 303.709L868.347 303.669L868.338 303.634L868.331 303.599L868.328 303.584L868.322 303.546C864.794 275.103 852.597 251.272 832.058 232.655L831.452 233.833L830.998 233.427C830.714 233.174 830.428 232.922 830.14 232.671C808.449 213.857 783.754 205.673 756.747 208.328C729.809 210.967 707.765 223.709 691.232 246.169L691.189 246.218L691.151 246.264L691.144 246.273L691.088 246.344L691.037 246.41C680.568 260.694 674.105 276.471 671.699 293.551C670.515 302.949 670.548 312.736 671.806 322.881C672.869 331.464 674.749 339.719 677.376 347.417C677.639 348.205 677.628 349.054 677.346 349.793C677.356 349.913 677.361 350.033 677.36 350.152C678.029 350.399 678.594 350.936 678.862 351.65C681.628 358.988 683.552 366.942 684.584 375.274C685.719 384.405 685.684 393.194 684.486 401.61C682.607 416.66 677.05 430.537 667.862 443.075C653.812 462.214 635.066 473.078 612.148 475.343C589.233 477.592 568.282 470.642 549.857 454.684C531.845 439.047 521.018 418.896 517.679 394.772L517.664 394.757C517.648 394.741 517.633 394.722 517.617 394.703C517.6 394.68 517.583 394.655 517.567 394.627C517.521 394.55 517.483 394.451 517.466 394.325C513.841 365.101 501.063 340.744 479.489 321.911C457.798 303.097 433.103 294.912 406.096 297.567C379.158 300.207 357.114 312.949 340.581 335.409L340.551 335.442L340.522 335.478L340.502 335.501L340.446 335.572L340.386 335.65C329.918 349.932 323.455 365.708 321.049 382.788C319.864 392.186 319.897 401.974 321.155 412.12C322.218 420.704 324.097 428.958 326.725 436.657C326.907 437.203 326.958 437.779 326.878 438.328L326.895 438.371C328.172 441.761 329.27 445.281 330.184 448.91C331.806 454.375 332.993 460.117 333.729 466.052C336.813 490.869 331.251 513.155 317.212 532.314C303.162 551.453 284.416 562.317 261.498 564.582C238.583 566.831 217.631 559.881 199.207 543.924C184.095 530.805 174.041 514.509 169.223 495.355C167.758 490.42 166.654 485.284 165.917 479.955L165.902 479.939L165.873 479.907L165.862 479.893L165.849 479.876L165.83 479.849L165.805 479.81C165.759 479.732 165.721 479.633 165.704 479.507C165.035 474.118 164.056 468.895 162.767 463.841C156.723 443.234 145.36 425.573 128.839 411.15C107.147 392.336 82.4528 384.151 55.4461 386.807C28.508 389.446 6.4643 402.188 -10.0691 424.648L-10.1233 424.711L-10.157 424.752L-10.188 424.79L-10.2157 424.826L-10.2645 424.889C-26.7803 447.423 -33.3254 473.674 -29.7004 502.899C-29.0327 508.29 -28.0428 513.552 -26.7477 518.629C-26.277 520.234 -25.7751 521.817 -25.2422 523.379C-25.1081 523.781 -25.0451 524.199 -25.0532 524.611C-24.8397 525.294 -24.6206 525.974 -24.3957 526.649C-24.1194 526.91 -23.8968 527.236 -23.7562 527.611C-22.479 530.999 -21.3816 534.519 -20.4682 538.146C-18.8458 543.612 -17.6579 549.356 -16.9224 555.291C-13.8379 580.108 -19.3999 602.394 -33.4386 621.554C-47.4893 640.693 -66.2348 651.557 -89.153 653.822C-112.068 656.071 -133.02 649.121 -151.444 633.163C-166.555 620.044 -176.609 603.749 -181.427 584.597C-182.893 579.66 -183.996 574.524 -184.734 569.194L-184.749 569.179C-184.782 569.144 -184.816 569.101 -184.846 569.049C-184.892 568.972 -184.93 568.873 -184.947 568.747C-185.616 563.356 -186.596 558.132 -187.885 553.077Z"
    fill="#302F2D"
    fill-opacity="0.1"
  />
<path
    d="M-400.993 534.837L-402.956 533.573C-398.679 518.943 -391.808 505.178 -382.362 492.365C-361.569 463.848 -333.78 447.686 -299.772 444.341C-265.783 441.009 -234.701 451.373 -207.412 475.134L-207.399 475.14L-207.374 475.16L-207.356 475.181L-207.348 475.19L-207.338 475.201L-207.329 475.209C-185.101 494.421 -170.246 518.249 -163.017 546.19C-161.27 552.225 -159.888 558.46 -158.875 564.887C-158.845 565.077 -158.833 565.265 -158.838 565.45C-158.67 565.827 -158.562 566.233 -158.526 566.648C-158.454 567.502 -158.352 568.364 -158.247 569.21C-157.893 572.047 -157.392 574.806 -156.745 577.484C-153.111 589.311 -146.443 599.445 -136.825 607.708C-129.724 613.926 -122.063 618.18 -113.902 620.454L-113.906 620.47C-107.457 622.267 -100.71 622.827 -93.674 622.13C-77.757 620.554 -64.7683 613.003 -55.0882 599.665C-45.286 586.448 -41.4054 571.008 -43.5488 553.767C-43.8994 550.908 -44.4055 548.119 -45.0602 545.414C-45.679 543.398 -46.3834 541.435 -47.1705 539.531C-47.4247 538.914 -47.5185 538.238 -47.4499 537.592C-47.7021 536.916 -47.9642 536.247 -48.2364 535.585C-48.5025 535.3 -48.7141 534.951 -48.8472 534.551C-49.7867 531.683 -50.6431 528.753 -51.4153 525.769C-53.6655 517.996 -55.3279 509.816 -56.3764 501.378C-60.9271 464.581 -52.6421 431.518 -31.7115 403.126C-10.9185 374.608 16.8711 358.446 50.8791 355.102C84.8681 351.769 115.95 362.133 143.239 385.895C143.249 385.897 143.258 385.903 143.266 385.911L143.28 385.924L143.294 385.94L143.303 385.951L143.312 385.96L143.322 385.97C165.55 405.182 180.405 429.01 187.634 456.951C189.381 462.986 190.763 469.22 191.776 475.648C191.806 475.838 191.818 476.026 191.812 476.21C191.981 476.587 192.089 476.994 192.125 477.409C192.197 478.262 192.299 479.125 192.404 479.971C192.758 482.808 193.259 485.567 193.906 488.244C197.54 500.072 204.207 510.205 213.826 518.469C220.926 524.686 228.588 528.941 236.749 531.215L236.745 531.231C243.193 533.028 249.942 533.588 256.977 532.89C272.894 531.315 285.883 523.763 295.563 510.426C305.365 497.209 309.245 481.768 307.102 464.527C306.752 461.669 306.245 458.881 305.591 456.176C304.972 454.16 304.268 452.196 303.48 450.291C303.226 449.674 303.132 448.999 303.201 448.352C302.949 447.677 302.687 447.008 302.415 446.347C302.148 446.062 301.936 445.712 301.803 445.311C298.803 436.154 296.649 426.363 295.385 416.195C293.735 402.852 293.773 389.999 295.489 377.682C298.327 355.442 306.599 334.929 320.256 316.404C341.049 287.887 368.838 271.725 402.846 268.38C436.835 265.048 467.917 275.412 495.206 299.173L495.222 299.18L495.231 299.187L495.244 299.199L495.253 299.209L495.274 299.233L495.289 299.248C521.305 321.734 537.221 350.544 542.632 384.87C542.662 385.06 542.674 385.248 542.668 385.432C542.837 385.809 542.945 386.215 542.981 386.63C543.052 387.484 543.155 388.347 543.26 389.192C545.407 406.417 552.982 420.741 565.794 431.747C572.894 437.965 580.555 442.219 588.716 444.493L588.712 444.51C595.161 446.306 601.909 446.866 608.944 446.169C624.861 444.593 637.85 437.042 647.53 423.704C653.692 415.396 657.513 406.209 658.97 396.249C659.625 390.833 659.591 385.192 658.864 379.345C658.065 372.833 656.459 366.687 654.131 361.052C653.761 360.156 653.73 359.137 654.044 358.261C654.033 358.097 654.032 357.932 654.041 357.768C653.322 357.491 652.725 356.887 652.454 356.072C649.454 346.914 647.3 337.123 646.037 326.956C644.386 313.613 644.424 300.761 646.14 288.445C648.977 266.203 657.25 245.69 670.907 227.165C691.7 198.647 719.489 182.485 753.497 179.141C787.486 175.808 818.568 186.172 845.857 209.934C845.865 209.936 845.873 209.941 845.881 209.947L845.891 209.956L845.911 209.978L845.924 209.992L845.94 210.009C871.956 232.495 887.872 261.304 893.283 295.63C893.313 295.82 893.325 296.008 893.319 296.192C893.488 296.57 893.596 296.976 893.632 297.391C893.703 298.245 893.806 299.107 893.911 299.953C896.058 317.177 903.633 331.502 916.445 342.508C923.545 348.725 931.206 352.979 939.367 355.254L939.364 355.27C945.812 357.067 952.56 357.627 959.595 356.929C975.512 355.354 988.501 347.802 998.181 334.465C1007.98 321.248 1011.86 305.807 1009.72 288.566C1008.92 282.054 1007.32 275.909 1004.99 270.274C1004.58 269.292 1004.58 268.163 1005 267.237L1005.05 267.136L1005.06 267.102L1005.09 267.055C1004.28 266.816 1003.6 266.18 1003.31 265.294C1000.31 256.136 998.155 246.345 996.892 236.177C992.342 199.381 1000.63 166.318 1021.56 137.926C1042.35 109.408 1070.14 93.2463 1104.15 89.9015C1138.14 86.5691 1169.22 96.9329 1196.51 120.695C1196.52 120.698 1196.53 120.708 1196.54 120.721L1196.56 120.741L1196.57 120.75L1196.58 120.761L1196.59 120.77C1222.61 143.256 1238.52 172.065 1243.93 206.391C1243.96 206.581 1243.97 206.769 1243.97 206.953C1244.14 207.331 1244.25 207.737 1244.28 208.152C1244.35 209.006 1244.46 209.868 1244.56 210.714C1246.71 227.938 1254.28 242.263 1267.09 253.268C1274.2 259.486 1281.86 263.74 1290.02 266.014L1290.01 266.031C1296.46 267.828 1303.21 268.388 1310.25 267.69C1326.16 266.115 1339.15 258.563 1348.83 245.225C1358.63 232.009 1362.51 216.568 1360.37 199.327C1359.57 192.815 1357.97 186.67 1355.64 181.034C1355.23 180.053 1355.23 178.924 1355.65 177.998L1355.71 177.875L1355.74 177.816C1354.93 177.577 1354.26 176.94 1353.96 176.054C1350.96 166.896 1348.81 157.106 1347.54 146.938C1342.99 110.142 1351.28 77.0786 1372.21 48.6861C1393 20.1684 1420.79 4.0068 1454.8 0.661946C1488.01 -2.59434 1518.45 7.22782 1545.28 29.85L1542.74 34.8012C1516.84 12.8303 1487.51 3.27926 1455.5 6.43522C1423.01 9.62808 1396.41 25.0784 1376.42 52.3443C1356.42 79.6064 1348.5 111.26 1352.88 146.427C1354.07 156 1356.09 165.233 1358.9 173.886C1359.18 174.746 1359.12 175.685 1358.74 176.447L1358.7 176.521C1359.32 176.731 1359.85 177.198 1360.13 177.839C1362.9 184.258 1364.77 191.31 1365.69 198.795C1368.04 217.534 1363.85 234.434 1353.24 249.059C1342.51 263.53 1328.3 271.748 1310.97 273.451C1293.74 275.148 1277.9 269.97 1263.93 258.049C1263.83 257.953 1263.72 257.853 1263.62 257.773C1249.81 245.672 1241.58 230.001 1239.25 211.267C1239.21 210.913 1239.16 210.558 1239.12 210.203L1238.91 210.256C1234.19 176 1218.86 147.354 1193.3 125.083C1167.1 102.372 1137.36 92.4692 1104.85 95.6747C1072.36 98.8676 1045.75 114.318 1025.77 141.584C1005.77 168.846 997.851 200.5 1002.23 235.666C1003.42 245.24 1005.44 254.473 1008.25 263.126C1008.53 263.986 1008.47 264.925 1008.09 265.687L1008.07 265.719L1008.05 265.76C1008.67 265.97 1009.2 266.437 1009.48 267.078C1012.25 273.497 1014.12 280.549 1015.04 288.034C1017.39 306.773 1013.2 323.673 1002.59 338.298C991.861 352.77 977.646 360.987 960.318 362.69C943.089 364.387 927.254 359.21 913.275 347.288L913.218 347.232L913.177 347.193L913.147 347.164L913.103 347.124L913.049 347.077L912.972 347.012C899.16 334.911 890.929 319.24 888.6 300.506L888.575 300.307L888.547 300.075L888.52 299.844L888.474 299.442L888.261 299.495C883.538 265.239 868.208 236.593 842.653 214.322C842.384 214.089 842.115 213.857 841.845 213.627L841.232 214.819C815.33 192.848 786.006 183.297 753.996 186.453C721.501 189.646 694.899 205.096 674.914 232.362C662.19 249.706 654.356 268.827 651.467 289.5C650.02 300.851 650.054 312.665 651.577 324.905C652.765 334.479 654.789 343.712 657.597 352.365C657.848 353.13 657.828 353.958 657.551 354.667C657.564 354.8 657.569 354.932 657.567 355.064C658.116 355.297 658.575 355.735 658.83 356.318C661.603 362.737 663.466 369.788 664.393 377.274C665.266 384.258 665.232 390.986 664.296 397.436C662.899 408.882 658.699 419.47 651.73 429.077C641.005 443.548 626.789 451.765 609.461 453.469C592.232 455.165 576.397 449.988 562.419 438.067C562.324 437.971 562.214 437.87 562.116 437.791C548.304 425.69 540.073 410.019 537.744 391.284C537.699 390.93 537.657 390.576 537.618 390.221L537.405 390.274C532.681 356.018 517.351 327.371 491.797 305.101C465.598 282.39 435.857 272.487 403.345 275.692C370.85 278.885 344.248 294.336 324.263 321.602C311.536 338.949 303.702 358.075 300.814 378.753C299.369 390.1 299.404 401.91 300.926 414.145C302.114 423.718 304.137 432.951 306.946 441.604C307.145 442.211 307.174 442.856 307.04 443.451C308.534 446.975 309.757 450.687 310.703 454.554C312.01 458.851 312.957 463.366 313.537 468.052C315.882 486.791 311.689 503.69 301.08 518.316C290.355 532.787 276.139 541.004 258.811 542.708C241.582 544.405 225.747 539.227 211.768 527.306L211.711 527.249L211.671 527.21L211.64 527.182L211.596 527.142L211.542 527.094L211.465 527.03C199.998 516.983 192.378 504.476 188.788 489.797C187.495 485.546 186.558 481.1 185.982 476.467L185.903 475.813L185.884 475.647L185.856 475.403L185.643 475.456C184.835 469.592 183.715 463.893 182.287 458.362C175.025 433.324 161.249 411.859 141.147 394.34C114.948 371.629 85.207 361.726 52.6942 364.932C20.2001 368.124 -6.40208 383.575 -26.3871 410.841C-46.3876 438.103 -54.3055 469.757 -49.9295 504.923C-49.1076 511.546 -47.8862 518.005 -46.2813 524.223C-45.8806 525.604 -45.4602 526.972 -45.0208 528.326C-44.9079 528.67 -44.8499 529.027 -44.8453 529.38C-44.6095 530.169 -44.3673 530.952 -44.1188 531.731C-43.9875 531.895 -43.8756 532.078 -43.7878 532.279C-42.2128 535.925 -40.9315 539.775 -39.9486 543.792C-38.6412 548.089 -37.6943 552.605 -37.1141 557.292C-34.7693 576.03 -38.9618 592.93 -49.5711 607.555C-60.296 622.027 -74.5117 630.244 -91.84 631.948C-109.069 633.644 -124.904 628.467 -138.883 616.545C-138.904 616.524 -138.926 616.502 -138.948 616.481C-138.982 616.448 -139.016 616.416 -139.051 616.385C-139.097 616.344 -139.142 616.305 -139.185 616.27C-150.652 606.223 -158.273 593.716 -161.862 579.038C-163.156 574.787 -164.093 570.34 -164.669 565.706C-164.714 565.352 -164.755 564.997 -164.794 564.643L-165.008 564.696C-165.816 558.832 -166.936 553.133 -168.364 547.602C-175.626 522.564 -189.402 501.099 -209.505 483.58C-235.703 460.869 -265.444 450.966 -297.957 454.171C-330.451 457.364 -357.053 472.814 -377.038 500.08C-397.039 527.342 -404.956 558.996 -400.58 594.162C-399.392 603.736 -397.369 612.969 -394.56 621.622C-394.362 622.228 -394.333 622.874 -394.467 623.469C-391.791 629.777 -389.988 636.687 -389.081 644.013C-386.736 662.752 -390.929 679.651 -401.538 694.277C-412.263 708.748 -426.479 716.966 -443.807 718.669C-461.036 720.366 -476.871 715.188 -490.85 703.267C-490.945 703.171 -491.055 703.071 -491.153 702.991C-504.964 690.89 -513.196 675.219 -515.525 656.485L-515.604 655.831L-515.623 655.665L-515.65 655.421L-515.864 655.474C-520.587 621.218 -535.917 592.571 -561.472 570.301C-587.67 547.59 -617.411 537.687 -649.924 540.893C-682.418 544.085 -709.02 559.536 -729.005 586.802C-749.006 614.064 -756.924 645.718 -752.548 680.884C-751.36 690.458 -749.337 699.691 -746.527 708.343C-746.246 709.204 -746.306 710.143 -746.688 710.905L-746.726 710.978C-746.104 711.189 -745.575 711.655 -745.295 712.297C-742.522 718.716 -740.659 725.767 -739.732 733.253C-737.387 751.991 -741.58 768.891 -752.189 783.516C-762.914 797.988 -777.13 806.205 -794.458 807.909C-811.687 809.605 -827.522 804.428 -841.501 792.506C-841.595 792.41 -841.706 792.31 -841.804 792.231C-855.615 780.129 -863.847 764.459 -866.176 745.724C-866.22 745.37 -866.262 745.015 -866.301 744.66L-866.514 744.713C-871.238 710.457 -886.568 681.811 -912.123 659.541C-938.321 636.83 -968.062 626.927 -1000.57 630.132C-1033.07 633.325 -1059.67 648.775 -1079.66 676.041C-1088.92 688.675 -1095.6 702.252 -1099.66 716.685L-1104.46 713.59C-1100.19 698.961 -1093.31 685.196 -1083.87 672.383C-1063.08 643.865 -1035.29 627.704 -1001.28 624.359C-967.289 621.026 -936.208 631.39 -908.918 655.152L-908.906 655.157L-908.881 655.178L-908.863 655.198L-908.855 655.207L-908.845 655.219L-908.836 655.227C-882.82 677.713 -866.904 706.523 -861.493 740.848C-861.463 741.038 -861.451 741.226 -861.457 741.411C-861.288 741.788 -861.18 742.194 -861.144 742.609C-861.072 743.463 -860.97 744.325 -860.865 745.171C-858.718 762.396 -851.143 776.72 -838.331 787.726C-831.231 793.943 -823.57 798.198 -815.409 800.472L-815.412 800.488C-808.964 802.285 -802.216 802.845 -795.181 802.148C-779.264 800.572 -766.275 793.021 -756.595 779.683C-746.793 766.466 -742.912 751.025 -745.055 733.784C-745.854 727.273 -747.46 721.127 -749.789 715.492C-750.193 714.511 -750.192 713.382 -749.776 712.455L-749.727 712.35L-749.7 712.297L-749.688 712.273C-750.491 712.034 -751.171 711.398 -751.465 710.512C-754.465 701.354 -756.62 691.563 -757.883 681.395C-762.434 644.599 -754.149 611.536 -733.218 583.143C-712.425 554.626 -684.636 538.464 -650.628 535.119C-616.639 531.787 -585.557 542.151 -558.267 565.912C-558.258 565.915 -558.249 565.921 -558.241 565.928L-558.225 565.944L-558.212 565.959L-558.203 565.969L-558.195 565.978L-558.185 565.988C-532.169 588.474 -516.253 617.283 -510.842 651.609C-510.812 651.799 -510.8 651.987 -510.806 652.171C-510.637 652.548 -510.529 652.955 -510.493 653.37C-510.422 654.223 -510.319 655.086 -510.214 655.932C-508.067 673.156 -500.492 687.48 -487.68 698.486C-480.58 704.704 -472.919 708.958 -464.758 711.232L-464.761 711.249C-458.313 713.046 -451.565 713.606 -444.53 712.908C-428.613 711.333 -415.624 703.781 -405.944 690.443C-396.142 677.226 -392.261 661.786 -394.404 644.545C-395.203 638.033 -396.809 631.888 -399.138 626.252C-399.423 625.56 -399.506 624.795 -399.385 624.078L-399.424 623.989L-399.447 623.932L-399.477 623.852L-399.498 623.79C-402.498 614.632 -404.653 604.841 -405.916 594.674C-408.544 573.423 -406.891 553.417 -400.993 534.837Z"
    fill="#302F2D"
    fill-opacity="0.1"
  />
</svg>
