<svg width="1088" height="160" viewBox="0 0 1088 160" fill="none" xmlns="http://www.w3.org/2000/svg">
<path fill-rule="evenodd" clip-rule="evenodd" d="M-51.85 0.600098C-33.8623 90.9778 53.5761 159.55 158.731 159.55C208.021 159.55 253.419 144.484 289.596 119.168C325.772 144.484 371.17 159.55 420.46 159.55C469.75 159.55 515.147 144.484 551.324 119.168C587.501 144.484 632.898 159.55 682.189 159.55C731.479 159.55 776.876 144.484 813.053 119.168C849.23 144.484 894.627 159.55 943.917 159.55C1049.07 159.55 1136.51 90.9777 1154.5 0.600098H-51.85Z" fill="#6199A8"/>
<path fill-rule="evenodd" clip-rule="evenodd" d="M-51.85 0.600098C-33.8623 90.9778 53.5761 159.55 158.731 159.55C208.021 159.55 253.419 144.484 289.596 119.168C325.772 144.484 371.17 159.55 420.46 159.55C469.75 159.55 515.147 144.484 551.324 119.168C587.501 144.484 632.898 159.55 682.189 159.55C731.479 159.55 776.876 144.484 813.053 119.168C849.23 144.484 894.627 159.55 943.917 159.55C1049.07 159.55 1136.51 90.9777 1154.5 0.600098H-51.85Z" fill="#484939"/>
</svg>
