<svg width="307" height="1168" viewBox="0 0 307 1168" fill="none" xmlns="http://www.w3.org/2000/svg">
<path d="M112.068 1418.45L110.921 1419.49C99.5832 1415.6 90.0002 1408.87 82.3105 1399.39C71.8898 1386.27 67.9291 1371.52 70.5703 1355.54C73.1939 1339.65 81.6581 1326.67 95.735 1316.98C95.8439 1316.91 95.9606 1316.84 96.0556 1316.77C107.844 1308.89 120.917 1305.05 134.97 1305.36C139.1 1305.22 143.32 1305.45 147.622 1306.05L148.118 1306.12L148.608 1306.19L148.612 1305.99C154.073 1306.67 159.462 1307.04 164.775 1307.09C189.021 1306.59 211.625 1299.38 232.207 1285.53C258.92 1267.46 274.978 1243.13 279.926 1213.14C284.88 1183.18 277.403 1155.55 257.716 1131.03C238.036 1106.5 211.501 1091.76 178.851 1087.23C172.703 1086.37 166.606 1085.92 160.634 1085.86C159.296 1085.89 157.964 1085.94 156.641 1086.01C156.304 1086.02 155.97 1085.99 155.651 1085.91C154.887 1085.93 154.124 1085.96 153.364 1086C153.186 1086.08 152.994 1086.13 152.792 1086.16C149.138 1086.7 145.37 1086.92 141.524 1086.84C137.348 1086.98 133.062 1086.74 128.712 1086.14C111.31 1083.73 97.1355 1075.9 86.5488 1062.84C76.1282 1049.72 72.1675 1034.97 74.8086 1018.99C77.4322 1003.1 85.8964 990.122 99.9734 980.432C100.082 980.37 100.199 980.295 100.294 980.226C112.082 972.342 125.154 968.506 139.207 968.814C143.338 968.676 147.558 968.904 151.86 969.502C152.189 969.548 152.518 969.596 152.846 969.646L152.85 969.441C158.312 970.126 163.701 970.493 169.014 970.541C193.26 970.045 215.864 962.835 236.446 948.99C263.159 930.918 279.217 906.58 284.164 876.596C289.119 846.631 281.641 819.009 261.954 794.488C242.274 769.954 215.739 755.219 183.089 750.685C176.941 749.829 170.843 749.371 164.87 749.316C163.532 749.344 162.202 749.392 160.88 749.461C160.543 749.48 160.208 749.446 159.89 749.365C159.125 749.387 158.363 749.416 157.604 749.451C157.425 749.53 157.233 749.587 157.031 749.618C150.596 750.564 143.812 750.54 136.863 749.57C130.377 748.674 124.34 747.024 118.77 744.63C108.822 740.618 100.32 734.295 93.3665 725.721C82.9458 712.601 78.9851 697.85 81.6262 681.87C84.2498 665.982 92.7141 653 106.791 643.31C106.9 643.248 107.017 643.174 107.112 643.105C121.31 633.608 137.372 629.985 154.765 632.403C155.094 632.448 155.423 632.496 155.751 632.546L155.755 632.342C187.671 636.345 217.101 629.467 243.263 611.868C269.976 593.797 286.034 569.459 290.982 539.474C295.936 509.509 288.459 481.888 268.772 457.367C256.25 441.756 240.952 430.113 223.07 422.54C213.221 418.509 202.601 415.696 191.24 414.119C182.352 412.881 173.569 412.476 165.118 412.917C164.37 412.958 163.631 412.741 163.06 412.321C162.938 412.301 162.818 412.274 162.7 412.24C162.359 412.677 161.855 412.984 161.269 413.073C154.834 414.019 148.05 413.995 141.101 413.025C134.615 412.129 128.579 410.479 123.008 408.085C113.06 404.073 104.559 397.75 97.6048 389.176C87.1842 376.056 83.2235 361.305 85.8646 345.325C88.4882 329.437 96.9524 316.455 111.029 306.765L111.123 306.71L111.184 306.672L111.289 306.603L111.35 306.56C125.548 297.063 141.61 293.44 159.004 295.858C159.333 295.903 159.661 295.951 159.99 296.001L159.993 295.797C191.91 299.8 221.339 292.923 247.502 275.323C274.215 257.252 290.273 232.914 295.22 202.929C300.175 172.965 292.697 145.343 273.01 120.822C253.33 96.2879 226.795 81.553 194.145 77.0184C185.257 75.7811 176.474 75.376 168.023 75.8165C167.182 75.8626 166.353 75.5828 165.761 75.0555L165.704 75.0045C165.365 75.513 164.819 75.8753 164.174 75.9732C157.739 76.9195 150.955 76.8951 144.006 75.9258C126.605 73.5213 112.43 65.6856 101.843 52.6319C91.4227 39.5115 87.462 24.7603 90.1031 8.78083C92.7267 -7.1076 101.191 -20.089 115.268 -29.7787L115.352 -29.8281L115.42 -29.8705C115.479 -29.9084 115.537 -29.9467 115.588 -29.9843C129.786 -39.4809 145.849 -43.1039 163.242 -40.6865L163.705 -40.6213L164.228 -40.5429L164.232 -40.7472C196.148 -36.7443 225.578 -43.6218 251.74 -61.2211C278.453 -79.2929 294.511 -103.63 299.459 -133.615C304.413 -163.58 296.935 -191.201 277.248 -215.722C257.569 -240.256 231.034 -254.991 198.383 -259.526C189.495 -260.763 180.712 -261.168 172.261 -260.728C171.421 -260.682 170.592 -260.962 169.999 -261.489L169.981 -261.505L169.942 -261.54C169.603 -261.032 169.057 -260.669 168.413 -260.571C161.978 -259.625 155.194 -259.65 148.245 -260.619C130.843 -263.024 116.668 -270.859 106.082 -283.913C95.6611 -297.033 91.7004 -311.784 94.3415 -327.764C96.9651 -343.653 105.429 -356.634 119.506 -366.323C119.556 -366.352 119.606 -366.382 119.656 -366.414C119.716 -366.452 119.775 -366.492 119.827 -366.529C121.815 -367.859 123.84 -369.074 125.9 -370.173L129.989 -366.463C127.621 -365.252 125.303 -363.872 123.038 -362.325C115.743 -357.442 110.075 -351.583 106.068 -344.798L106.054 -344.805C102.887 -339.444 100.759 -333.515 99.6917 -327.026C97.2754 -312.346 100.933 -298.857 110.587 -286.948C120.102 -274.959 133.041 -267.755 149.048 -265.53C155.091 -264.68 161 -264.643 166.624 -265.379C167.603 -265.506 168.617 -265.233 169.349 -264.636L169.43 -264.569L169.492 -264.513C169.9 -265.178 170.635 -265.635 171.502 -265.686C180.453 -266.177 189.769 -265.756 199.208 -264.443C233.365 -259.673 261.078 -244.269 281.55 -218.627C302.167 -193.079 309.998 -164.219 304.816 -132.858C299.627 -101.516 282.832 -76.0839 254.912 -57.2851C254.902 -57.2682 254.879 -57.257 254.857 -57.2463L254.841 -57.2387L254.824 -57.2292C228.357 -39.2673 198.64 -31.9025 166.496 -35.3054L166.385 -35.3188C166.341 -35.3251 166.298 -35.3325 166.255 -35.341C166.162 -35.3588 166.071 -35.381 165.982 -35.4079C165.602 -35.3471 165.211 -35.3473 164.83 -35.4152C164.045 -35.5563 163.246 -35.6723 162.46 -35.7814C146.467 -37.9994 131.773 -34.6415 118.8 -25.7802C111.504 -20.8974 105.837 -15.038 101.829 -8.2531L101.815 -8.25994C98.6482 -2.89886 96.5204 3.02937 95.4534 9.51887C93.037 24.1993 96.6949 37.6876 106.348 49.5963C115.864 61.5858 128.803 68.7899 144.81 71.015C150.853 71.8651 156.762 71.9017 162.385 71.1658C163.364 71.0389 164.379 71.3116 165.111 71.9085L165.185 71.971L165.253 72.0316C165.661 71.367 166.397 70.909 167.264 70.8577C176.214 70.367 185.53 70.7886 194.97 72.1016C229.127 76.8714 256.84 92.2755 277.311 117.917C297.928 143.466 305.759 172.325 300.577 203.687C295.388 235.028 278.593 260.46 250.673 279.259C250.67 279.265 250.664 279.27 250.658 279.275L250.641 279.286L250.623 279.296L250.608 279.303L250.596 279.309L250.586 279.315C224.119 297.277 194.402 304.642 162.257 301.239C162.079 301.22 161.907 301.186 161.743 301.136C161.364 301.197 160.973 301.197 160.591 301.129C159.807 300.988 159.007 300.872 158.222 300.763C145.203 298.957 133.045 300.847 121.975 306.392L122.845 307.182C120.477 308.393 118.16 309.772 115.895 311.319C108.599 316.202 102.932 322.061 98.924 328.846L98.91 328.839C95.7431 334.201 93.6153 340.129 92.5483 346.618C90.1319 361.299 93.7897 374.787 103.443 386.696C109.425 394.232 116.76 399.878 125.359 403.585C130.067 405.477 135.143 406.805 140.571 407.559C146.615 408.409 152.523 408.446 158.147 407.71C159.041 407.595 159.964 407.812 160.675 408.305C160.826 408.334 160.974 408.373 161.119 408.42C161.542 407.841 162.228 407.45 163.025 407.403C171.976 406.912 181.292 407.333 190.731 408.646C203.131 410.378 214.681 413.511 225.344 418.026C244.629 425.93 261.057 438.297 274.406 455.017C295.023 480.566 302.854 509.425 297.672 540.787C292.483 572.129 275.688 597.56 247.768 616.359C247.758 616.376 247.736 616.387 247.713 616.398L247.698 616.406L247.681 616.415C221.214 634.377 191.497 641.742 159.352 638.339L159.242 638.325C159.198 638.319 159.154 638.312 159.111 638.304C159.018 638.286 158.927 638.263 158.838 638.237C158.459 638.297 158.068 638.297 157.686 638.229C156.902 638.088 156.102 637.972 155.317 637.863C139.324 635.645 124.63 639.003 111.657 647.864C104.361 652.747 98.6936 658.606 94.6857 665.391L94.6717 665.384C91.5047 670.746 89.3769 676.674 88.3099 683.163C85.8936 697.844 89.5514 711.332 99.205 723.241C105.186 730.777 112.521 736.423 121.12 740.13C125.829 742.022 130.904 743.35 136.333 744.104C142.376 744.955 148.285 744.991 153.909 744.255C154.599 744.166 155.307 744.275 155.922 744.557L155.978 744.548L156.072 744.536L156.123 744.531L156.208 744.524C159.009 744.371 161.846 744.307 164.712 744.331C172.239 744.18 179.99 744.656 187.826 745.746C221.983 750.516 249.696 765.92 270.168 791.562C290.785 817.11 298.616 845.97 293.434 877.331C288.245 908.673 271.45 934.105 243.53 952.903C243.526 952.909 243.522 952.914 243.516 952.919L243.498 952.931L243.48 952.94L243.465 952.947L243.452 952.954L243.442 952.96C220.83 968.305 195.845 975.916 169.001 975.685C163.156 975.802 157.221 975.543 151.201 974.905C151.023 974.887 150.851 974.852 150.687 974.803C150.308 974.863 149.917 974.863 149.535 974.795C148.751 974.654 147.951 974.538 147.166 974.429C144.531 974.064 141.932 973.85 139.37 973.787C127.869 974.205 117.158 977.756 107.418 984.409C100.122 989.291 94.4552 995.151 90.4472 1001.94L90.4332 1001.93C87.2662 1007.29 85.1384 1013.22 84.0714 1019.71C81.655 1034.39 85.3129 1047.88 94.9665 1059.79C104.482 1071.77 117.421 1078.98 133.428 1081.2C136.081 1081.58 138.708 1081.79 141.296 1081.86C143.257 1081.79 145.19 1081.63 147.091 1081.38C147.707 1081.3 148.336 1081.38 148.901 1081.59C149.569 1081.53 150.233 1081.45 150.893 1081.37C151.213 1081.2 151.578 1081.09 151.969 1081.07C154.772 1080.92 157.61 1080.85 160.476 1080.88C168.003 1080.73 175.753 1081.2 183.588 1082.29C217.745 1087.06 245.458 1102.46 265.929 1128.11C286.546 1153.65 294.377 1182.51 289.195 1213.88C284.006 1245.22 267.211 1270.65 239.292 1289.45C239.287 1289.46 239.281 1289.46 239.273 1289.47L239.259 1289.48L239.236 1289.49L239.225 1289.49L239.215 1289.5L239.204 1289.5C216.591 1304.85 191.605 1312.46 164.76 1312.23C158.916 1312.35 152.982 1312.09 146.963 1311.45C146.785 1311.43 146.613 1311.4 146.449 1311.35C146.069 1311.41 145.678 1311.41 145.297 1311.34C144.512 1311.2 143.713 1311.08 142.928 1310.97C140.293 1310.61 137.695 1310.39 135.133 1310.33C123.631 1310.75 112.92 1314.3 103.18 1320.95C95.8838 1325.84 90.2167 1331.7 86.2088 1338.48L86.1948 1338.47C83.0278 1343.83 80.9 1349.76 79.833 1356.25C77.4167 1370.93 81.0745 1384.42 90.7281 1396.33C100.244 1408.32 113.183 1415.52 129.19 1417.75C135.233 1418.6 141.141 1418.64 146.765 1417.9C147.456 1417.81 148.164 1417.92 148.778 1418.2L148.835 1418.19L148.929 1418.18L148.98 1418.18L149.064 1418.17C158.015 1417.68 167.331 1418.1 176.77 1419.41C210.927 1424.18 238.64 1439.59 259.112 1465.23C279.729 1490.78 287.56 1519.64 282.378 1551C277.189 1582.34 260.394 1607.77 232.474 1626.57C232.47 1626.58 232.465 1626.58 232.459 1626.59L232.442 1626.6L232.431 1626.6L232.42 1626.61L232.409 1626.61L232.396 1626.62L232.386 1626.63C205.919 1644.59 176.202 1651.95 144.058 1648.55C143.88 1648.53 143.708 1648.5 143.544 1648.45C143.164 1648.51 142.773 1648.51 142.392 1648.44C141.607 1648.3 140.808 1648.18 140.022 1648.07C124.029 1645.86 109.335 1649.21 96.362 1658.08C89.0662 1662.96 83.3991 1668.82 79.3912 1675.6L79.3772 1675.6C76.2102 1680.96 74.0825 1686.88 73.0154 1693.37C70.5991 1708.05 74.2569 1721.54 83.9105 1733.45C93.426 1745.44 106.365 1752.65 122.372 1754.87C128.415 1755.72 134.324 1755.76 139.948 1755.02C140.926 1754.89 141.941 1755.17 142.673 1755.76L142.736 1755.82L142.815 1755.89C143.223 1755.22 143.959 1754.76 144.826 1754.71C153.776 1754.22 163.092 1754.64 172.532 1755.96C206.689 1760.73 234.402 1776.13 254.873 1801.77C275.49 1827.32 283.321 1856.18 278.139 1887.54C272.95 1918.88 256.155 1944.32 228.236 1963.11C228.225 1963.13 228.203 1963.14 228.18 1963.15L228.148 1963.17C201.681 1981.13 171.964 1988.5 139.819 1985.09C139.641 1985.08 139.47 1985.04 139.305 1984.99C138.926 1985.05 138.535 1985.05 138.153 1984.98C137.369 1984.84 136.569 1984.73 135.784 1984.62C119.791 1982.4 105.097 1985.76 92.1237 1994.62C84.8278 1999.5 79.1608 2005.36 75.1528 2012.15L75.1388 2012.14C71.9719 2017.5 69.8441 2023.43 68.777 2029.92C66.3607 2044.6 70.0186 2058.09 79.6721 2070C87.1055 2079.36 96.628 2085.81 108.07 2089.24L103.777 2093.14C92.4397 2089.24 82.8568 2082.51 75.167 2073.03C64.7464 2059.91 60.7857 2045.16 63.4268 2029.18C66.0504 2013.29 74.5146 2000.31 88.5915 1990.62C88.7005 1990.56 88.8171 1990.48 88.9121 1990.42C103.11 1980.92 119.172 1977.3 136.566 1979.71C136.895 1979.76 137.224 1979.81 137.552 1979.86L137.556 1979.65C169.472 1983.66 198.901 1976.78 225.064 1959.18C251.777 1941.11 267.835 1916.77 272.783 1886.79C277.737 1856.82 270.259 1829.2 250.572 1804.68C230.892 1780.14 204.357 1765.41 171.707 1760.87C162.819 1759.64 154.036 1759.23 145.585 1759.67C144.744 1759.72 143.915 1759.44 143.323 1758.91L143.265 1758.86C142.927 1759.37 142.381 1759.73 141.736 1759.83C135.301 1760.77 128.517 1760.75 121.568 1759.78C104.167 1757.38 89.992 1749.54 79.4054 1736.49C68.9848 1723.37 65.024 1708.62 67.6651 1692.64C70.2888 1676.75 78.753 1663.77 92.8299 1654.08C92.9389 1654.01 93.0554 1653.94 93.1504 1653.87C107.349 1644.37 123.411 1640.75 140.804 1643.17C141.133 1643.21 141.462 1643.26 141.79 1643.31L141.794 1643.11C173.71 1647.11 203.14 1640.23 229.302 1622.63C256.015 1604.56 272.073 1580.22 277.021 1550.24C281.975 1520.28 274.498 1492.65 254.81 1468.13C235.131 1443.6 208.596 1428.86 175.945 1424.33C167.057 1423.09 158.274 1422.69 149.824 1423.13C149.231 1423.16 148.644 1423.03 148.141 1422.77C141.829 1423.65 135.187 1423.61 128.386 1422.66C122.584 1421.86 117.14 1420.45 112.068 1418.45Z" fill="#7C7C7C" fill-opacity="0.05"/>
<path d="M96.604 1432.48L95.2202 1433.74C83.8164 1428.41 73.9924 1420.65 65.8487 1410.51C52.0353 1393.28 46.787 1373.82 50.2693 1352.68C53.7654 1331.55 65.0544 1314.4 83.8282 1301.69C99.2533 1291.27 116.315 1286.16 134.684 1286.44C139.472 1286.31 144.352 1286.56 149.319 1287.18L149.336 1287.17C149.376 1287.15 149.422 1287.13 149.476 1287.11L149.527 1287.1L149.565 1287.1L149.599 1287.09C149.631 1287.09 149.664 1287.09 149.699 1287.09C149.723 1287.09 149.747 1287.09 149.772 1287.1C154.777 1287.79 159.707 1288.17 164.56 1288.23C184.528 1287.76 203.131 1281.8 220.066 1270.43C242.193 1255.47 255.492 1235.25 259.609 1210.35C263.723 1185.51 257.581 1162.63 241.381 1142.37L241.353 1142.33L241.338 1142.31L241.309 1142.27L241.257 1142.2L241.212 1142.14C224.941 1121.87 202.93 1109.67 175.799 1105.89C170.795 1105.19 165.829 1104.82 160.957 1104.76C159.401 1104.8 157.856 1104.87 156.324 1104.97C155.931 1104.99 155.54 1104.95 155.172 1104.84C154.506 1104.87 153.843 1104.9 153.182 1104.94C152.881 1105.13 152.535 1105.25 152.164 1105.28C148.812 1105.62 145.385 1105.75 141.905 1105.7C136.604 1105.84 131.157 1105.53 125.648 1104.76C102.607 1101.56 83.9221 1091.19 70.0871 1073.97C56.2737 1056.74 51.0254 1037.28 54.5076 1016.14C58.0038 995.009 69.2928 977.857 88.0665 965.144C103.492 954.726 120.554 949.615 138.923 949.897C143.711 949.769 148.591 950.014 153.557 950.634L153.574 950.625C153.592 950.615 153.611 950.606 153.631 950.597C153.657 950.586 153.685 950.577 153.714 950.568C153.755 950.557 153.799 950.549 153.849 950.545L153.885 950.544L153.929 950.544C153.955 950.545 153.982 950.547 154.011 950.551C159.014 951.248 163.944 951.625 168.795 951.684C188.765 951.214 207.369 945.257 224.305 933.885C246.432 918.924 259.731 898.706 263.847 873.802C267.961 848.962 261.82 826.088 245.619 805.826C245.572 805.753 245.511 805.673 245.45 805.592C229.179 785.328 207.168 773.127 180.037 769.348C175.033 768.65 170.067 768.272 165.195 768.214C163.639 768.25 162.094 768.32 160.563 768.423C160.169 768.447 159.778 768.403 159.41 768.296C158.745 768.323 158.082 768.357 157.422 768.396C157.121 768.582 156.774 768.704 156.402 768.74C149.143 769.459 141.533 769.272 133.799 768.194C125.322 767.015 117.434 764.868 110.16 761.765C97.0903 756.454 85.9589 748.12 76.9047 736.846C63.0912 719.614 57.843 700.156 61.3252 679.018C64.8214 657.888 76.1104 640.736 94.8842 628.023C113.271 615.604 133.983 610.727 156.462 613.535L156.48 613.525C156.519 613.504 156.566 613.484 156.62 613.469L156.671 613.457C156.694 613.453 156.718 613.449 156.743 613.447C156.774 613.444 156.808 613.443 156.843 613.445L156.878 613.447L156.916 613.451C184.046 617.23 209.007 611.613 231.122 596.763C253.249 581.803 266.548 561.585 270.665 536.68C274.779 511.841 268.637 488.967 252.437 468.705L252.416 468.673L252.403 468.654L252.371 468.609L252.365 468.6L252.271 468.474C241.96 455.634 229.343 446.027 214.582 439.753C206.419 436.423 197.613 434.094 188.188 432.782C180.221 431.67 172.351 431.372 164.801 431.879C164.031 431.925 163.27 431.712 162.674 431.279C162.564 431.26 162.455 431.236 162.348 431.206C161.965 431.748 161.347 432.126 160.641 432.195C153.382 432.914 145.772 432.727 138.037 431.649C129.56 430.47 121.672 428.322 114.398 425.22C101.328 419.909 90.1971 411.575 81.143 400.301C67.3296 383.069 62.0814 363.611 65.5636 342.473C69.0598 321.343 80.3488 304.191 99.1225 291.478C117.509 279.059 138.222 274.182 160.701 276.99L160.718 276.98L160.746 276.966L160.775 276.953C160.8 276.942 160.828 276.932 160.858 276.924L160.906 276.913C160.933 276.907 160.962 276.903 160.992 276.901L161.029 276.899L161.072 276.9C161.098 276.901 161.126 276.903 161.154 276.906C188.285 280.685 213.245 275.068 235.361 260.218C257.488 245.258 270.787 225.04 274.903 200.135C279.017 175.296 272.876 152.422 256.675 132.159C256.655 132.128 256.632 132.095 256.607 132.061L256.506 131.926C240.235 111.661 218.224 99.4605 191.093 95.6818C183.126 94.5703 175.256 94.2714 167.706 94.7785C166.844 94.8309 165.993 94.5567 165.373 94.0154L165.335 93.9821C164.962 94.5906 164.305 95.0216 163.546 95.0956C156.287 95.8144 148.677 95.6278 140.942 94.5496C117.902 91.3463 99.2166 80.9835 85.3816 63.7569C71.5681 46.5247 66.3199 27.0665 69.8021 5.92878C73.2983 -15.2018 84.5873 -32.3534 103.361 -45.0663C121.748 -57.485 142.46 -62.3622 164.939 -59.5546L164.956 -59.5639C164.996 -59.5854 165.043 -59.6054 165.096 -59.6203C165.177 -59.6425 165.275 -59.6533 165.392 -59.6381C192.523 -55.8593 217.484 -61.476 239.599 -76.3261C261.726 -91.2866 275.025 -111.504 279.142 -136.409C283.255 -161.248 277.114 -184.122 260.914 -204.385L260.871 -204.448L260.842 -204.489L260.789 -204.56L260.745 -204.618C244.473 -224.883 222.463 -237.084 195.332 -240.863C187.364 -241.974 179.495 -242.273 171.945 -241.766C171.082 -241.713 170.232 -241.988 169.611 -242.529L169.573 -242.562C169.201 -241.954 168.543 -241.523 167.784 -241.449C160.525 -240.731 152.915 -240.917 145.181 -241.995C122.14 -245.199 103.455 -255.562 89.6199 -272.788C75.8065 -290.02 70.5582 -309.479 74.0405 -330.616C77.5366 -351.747 88.8256 -368.898 107.599 -381.611C108.7 -382.354 109.808 -383.071 110.925 -383.76L114.893 -380.16C113.49 -379.319 112.099 -378.432 110.722 -377.501C93.1742 -365.639 82.6227 -349.613 79.3828 -329.865C76.1467 -310.216 80.9725 -292.063 93.7507 -275.894L93.7367 -275.901L93.7525 -275.872L93.7828 -275.821L93.8252 -275.759L93.8504 -275.726L93.8916 -275.675L93.9295 -275.633L93.9812 -275.58C106.943 -259.568 124.45 -249.874 145.955 -246.888C152.989 -245.909 159.895 -245.725 166.51 -246.332C167.423 -246.409 168.317 -246.147 168.994 -245.578L169.018 -245.556L169.052 -245.526C169.438 -246.187 170.148 -246.647 170.993 -246.704C179.093 -247.286 187.538 -246.983 196.129 -245.793C224.668 -241.828 247.863 -228.938 265.08 -207.489C282.297 -186.04 288.819 -161.882 284.499 -135.684C280.179 -109.486 266.13 -88.1816 242.771 -72.3903L242.759 -72.3769L242.748 -72.3691L242.732 -72.3596L242.716 -72.3517L242.684 -72.3344C219.34 -56.5688 193.044 -50.5881 164.54 -54.5522L164.541 -54.5832C143.403 -57.3029 123.884 -52.7216 106.484 -40.9562C88.9358 -29.0937 78.3844 -13.068 75.1444 6.67927C71.9083 26.3294 76.7342 44.4822 89.5124 60.6514L89.4984 60.6444C89.5235 60.6915 89.5522 60.7379 89.5848 60.7828C89.6301 60.8455 89.6827 60.9063 89.7428 60.9652C102.704 76.9769 120.212 86.6705 141.717 89.6571C148.751 90.6357 155.657 90.8205 162.272 90.2126C163.185 90.1359 164.079 90.3983 164.755 90.9674L164.788 90.9956L164.814 91.0191C165.199 90.357 165.909 89.8975 166.754 89.8402C174.854 89.2584 183.3 89.5616 191.891 90.7508C220.43 94.7161 243.625 107.606 260.842 129.055C278.059 150.504 284.58 174.663 280.26 200.86C275.941 227.058 261.891 248.363 238.533 264.154L238.522 264.166L238.5 264.181L238.478 264.192L238.459 264.202L238.445 264.21C215.102 279.976 188.805 285.956 160.302 281.992L160.302 281.961C141.011 279.479 123.067 283.078 106.852 292.67L107.75 293.485C106.346 294.326 104.956 295.212 103.579 296.143C86.0307 308.006 75.4793 324.031 72.2393 343.779C69.0032 363.429 73.8291 381.581 86.6072 397.751L86.5933 397.744C86.6189 397.792 86.6483 397.839 86.6818 397.885C86.7266 397.947 86.7785 398.007 86.8377 398.065C95.0067 408.156 104.982 415.738 116.625 420.713C123.083 423.334 130.042 425.169 137.479 426.202C144.512 427.18 151.418 427.364 158.033 426.757C158.858 426.688 159.668 426.895 160.315 427.356C160.431 427.377 160.544 427.403 160.656 427.435C161.055 426.843 161.727 426.439 162.516 426.385C170.616 425.803 179.061 426.106 187.653 427.296C198.06 428.742 207.757 431.375 216.712 435.177C232.888 441.781 246.688 452.142 257.937 466.155C275.154 487.604 281.675 511.763 277.355 537.96C273.036 564.158 258.986 585.463 235.628 601.254L235.619 601.265L235.605 601.275L235.588 601.285L235.572 601.293L235.54 601.31C212.197 617.076 185.9 623.056 157.397 619.092L157.397 619.061C136.26 616.342 116.741 620.923 99.3404 632.688C81.7924 644.551 71.2409 660.576 68.0009 680.324C64.7648 699.974 69.5907 718.127 82.3689 734.296L82.3549 734.289C82.38 734.336 82.4088 734.382 82.4413 734.427C82.4866 734.49 82.5393 734.551 82.5993 734.61C90.7695 744.702 100.747 752.285 112.392 757.26C118.849 759.88 125.806 761.714 133.24 762.746C140.274 763.725 147.18 763.91 153.795 763.302C154.359 763.255 154.916 763.337 155.419 763.541C155.51 763.524 155.603 763.513 155.698 763.507C158.785 763.285 161.922 763.192 165.097 763.227C171.497 763.083 178.078 763.472 184.747 764.395C213.286 768.361 236.481 781.25 253.698 802.699C270.915 824.149 277.437 848.307 273.117 874.505C268.798 900.702 254.748 922.007 231.389 937.798L231.379 937.81L231.357 937.826L231.335 937.837L231.316 937.846L231.302 937.854C212.248 950.722 191.228 957.072 168.645 956.815C162.303 956.96 155.833 956.575 149.246 955.659L149.246 955.627C145.809 955.185 142.414 954.936 139.064 954.879C123.296 955.327 108.565 960.129 95.1018 969.233C77.5539 981.095 67.0024 997.121 63.7624 1016.87C60.5263 1036.52 65.3522 1054.67 78.1304 1070.84L78.1164 1070.83C78.1764 1070.95 78.2576 1071.05 78.3608 1071.15C91.3222 1087.17 108.83 1096.86 130.335 1099.85C134.168 1100.38 137.963 1100.68 141.693 1100.74C143.473 1100.69 145.235 1100.58 146.977 1100.42C147.471 1100.38 147.959 1100.44 148.41 1100.59C149.026 1100.55 149.639 1100.51 150.25 1100.46C150.595 1100.23 151.008 1100.08 151.46 1100.05C154.545 1099.83 157.68 1099.74 160.854 1099.77C167.256 1099.63 173.839 1100.02 180.509 1100.94C209.048 1104.91 232.243 1117.8 249.46 1139.24C266.677 1160.69 273.198 1184.85 268.879 1211.05C264.559 1237.25 250.509 1258.55 227.151 1274.34L227.141 1274.35L227.114 1274.37L227.095 1274.38L227.067 1274.4C208.013 1287.27 186.988 1293.62 164.405 1293.36C158.063 1293.5 151.594 1293.12 145.007 1292.2L145.008 1292.17C141.57 1291.73 138.175 1291.48 134.825 1291.42C119.057 1291.87 104.326 1296.67 90.8635 1305.78C73.3155 1317.64 62.764 1333.67 59.5241 1353.41C56.288 1373.06 61.1138 1391.22 73.892 1407.39L73.878 1407.38C73.9095 1407.44 73.9468 1407.49 73.99 1407.55C74.0292 1407.6 74.0734 1407.65 74.1224 1407.7C87.0838 1423.71 104.591 1433.4 126.097 1436.39C133.131 1437.37 140.037 1437.55 146.651 1436.95C147.216 1436.9 147.773 1436.98 148.276 1437.19C148.367 1437.17 148.46 1437.16 148.555 1437.15C156.655 1436.57 165.1 1436.87 173.691 1438.06C202.23 1442.03 225.425 1454.92 242.642 1476.37C259.859 1497.82 266.381 1521.97 262.061 1548.17C257.742 1574.37 243.692 1595.67 220.333 1611.46C220.329 1611.47 220.323 1611.48 220.316 1611.48L220.294 1611.5L220.278 1611.5L220.246 1611.52C196.902 1627.29 170.606 1633.27 142.102 1629.3L142.103 1629.27C120.965 1626.55 101.446 1631.13 84.0459 1642.9C66.4979 1654.76 55.9464 1670.79 52.7065 1690.53C49.4704 1710.18 54.2962 1728.34 67.0744 1744.51L67.0604 1744.5C67.1204 1744.61 67.2017 1744.72 67.3048 1744.82C80.2662 1760.83 97.7736 1770.53 119.279 1773.51C126.313 1774.49 133.219 1774.68 139.834 1774.07C140.747 1773.99 141.641 1774.25 142.317 1774.82L142.346 1774.85L142.376 1774.87C142.762 1774.21 143.471 1773.75 144.316 1773.7C152.417 1773.11 160.862 1773.42 169.453 1774.61C197.992 1778.57 221.187 1791.46 238.404 1812.91C255.621 1834.36 262.142 1858.52 257.823 1884.72C253.503 1910.91 239.453 1932.22 216.095 1948.01L216.086 1948.02L216.077 1948.03L216.052 1948.04L216.027 1948.05L216.007 1948.07C192.664 1963.83 166.367 1969.81 137.864 1965.85L137.865 1965.82C116.727 1963.1 97.208 1967.68 79.8075 1979.44C62.2596 1991.31 51.708 2007.33 48.4681 2027.08C45.232 2046.73 50.0579 2064.88 62.836 2081.05L62.822 2081.04C62.882 2081.16 62.9633 2081.26 63.0664 2081.37C71.0665 2091.25 80.7984 2098.72 92.1334 2103.7L88.0767 2107.38C76.673 2102.06 66.8489 2094.3 58.7053 2084.16C44.8918 2066.92 39.6436 2047.47 43.1258 2026.33C46.622 2005.2 57.9109 1988.05 76.6847 1975.33C95.0714 1962.91 115.784 1958.04 138.263 1960.85L138.28 1960.84C138.297 1960.83 138.316 1960.82 138.336 1960.81L138.361 1960.8L138.376 1960.79L138.42 1960.78C138.501 1960.76 138.599 1960.75 138.716 1960.76C165.847 1964.54 190.807 1958.92 212.923 1944.07C235.05 1929.11 248.349 1908.9 252.465 1883.99C256.579 1859.15 250.438 1836.28 234.238 1816.02L234.209 1815.97L234.194 1815.95L234.166 1815.91L234.113 1815.84L234.068 1815.78C217.797 1795.52 195.786 1783.32 168.656 1779.54C160.688 1778.43 152.818 1778.13 145.268 1778.63C144.406 1778.69 143.555 1778.41 142.935 1777.87L142.897 1777.84C142.524 1778.45 141.866 1778.88 141.108 1778.95C133.849 1779.67 126.239 1779.48 118.504 1778.4C95.4636 1775.2 76.7786 1764.84 62.9436 1747.61C49.1302 1730.38 43.8819 1710.92 47.3641 1689.78C50.8603 1668.65 62.1493 1651.5 80.9231 1638.79C99.3097 1626.37 120.022 1621.49 142.501 1624.3L142.518 1624.29L142.531 1624.28L142.552 1624.27C142.584 1624.26 142.619 1624.25 142.658 1624.23C142.739 1624.21 142.837 1624.2 142.955 1624.22C170.085 1628 195.046 1622.38 217.161 1607.53C239.288 1592.57 252.587 1572.35 256.704 1547.45C260.818 1522.61 254.676 1499.73 238.476 1479.47C238.429 1479.4 238.369 1479.32 238.308 1479.24C222.037 1458.97 200.025 1446.77 172.894 1442.99C164.926 1441.88 157.057 1441.58 149.507 1442.09C148.972 1442.12 148.443 1442.03 147.969 1441.82L147.926 1441.83C140.667 1442.55 133.056 1442.36 125.322 1441.28C114.831 1439.82 105.242 1436.88 96.604 1432.48Z" fill="#7C7C7C" fill-opacity="0.05"/>
<path d="M134.245 1272.67C114.276 1273.14 95.6728 1279.09 78.7373 1290.46C56.6105 1305.42 43.3114 1325.64 39.1951 1350.55C35.0811 1375.39 41.2225 1398.26 57.4227 1418.52L57.4649 1418.59L57.5305 1418.68L57.5919 1418.76C73.8632 1439.02 95.8739 1451.22 123.005 1455C130.973 1456.11 138.842 1456.41 146.392 1455.9C146.926 1455.87 147.456 1455.96 147.93 1456.17L147.973 1456.16C155.232 1455.45 162.842 1455.63 170.577 1456.71C193.617 1459.91 212.302 1470.28 226.137 1487.5C239.951 1504.73 245.199 1524.19 241.717 1545.33C238.221 1566.46 226.932 1583.61 208.158 1596.33C189.771 1608.74 169.059 1613.62 146.58 1610.81L146.563 1610.82L146.526 1610.84L146.511 1610.85L146.493 1610.86L146.464 1610.87L146.423 1610.88C146.342 1610.9 146.244 1610.91 146.126 1610.9C118.996 1607.12 94.0355 1612.74 71.9197 1627.59C49.7929 1642.55 36.4937 1662.76 32.3775 1687.67C28.2635 1712.51 34.4049 1735.38 50.6051 1755.64L50.6388 1755.69L50.6709 1755.74L50.6771 1755.75L50.7221 1755.81L50.7743 1755.88C67.0456 1776.14 89.0563 1788.34 116.187 1792.12C124.155 1793.23 132.024 1793.53 139.574 1793.03C140.437 1792.97 141.287 1793.25 141.908 1793.79L141.946 1793.82C142.318 1793.21 142.976 1792.78 143.735 1792.71C150.994 1791.99 158.604 1792.18 166.338 1793.25C189.379 1796.46 208.064 1806.82 221.899 1824.05C235.712 1841.28 240.961 1860.74 237.479 1881.88C233.982 1903.01 222.693 1920.16 203.92 1932.87C185.533 1945.29 164.821 1950.17 142.342 1947.36L142.324 1947.37C142.285 1947.39 142.238 1947.41 142.184 1947.42C142.103 1947.45 142.006 1947.46 141.888 1947.44C114.757 1943.66 89.7971 1949.28 67.6813 1964.13C45.5544 1979.09 32.2554 1999.31 28.1391 2024.21C24.0251 2049.05 30.1666 2071.93 46.3667 2092.19C46.4139 2092.26 46.4747 2092.34 46.5359 2092.42C55.0743 2103.06 65.1931 2111.47 76.8029 2117.61L72.8251 2121.22C61.1427 2114.8 50.9071 2106.14 42.2004 2095.29C24.9835 2073.84 18.4618 2049.69 22.7816 2023.49C27.1012 1997.29 41.1508 1975.99 64.5095 1960.19L64.5197 1960.18C64.53 1960.18 64.552 1960.16 64.5648 1960.16L64.583 1960.15L64.5969 1960.14C87.9405 1944.37 114.237 1938.39 142.741 1942.36L142.74 1942.39C163.877 1945.11 183.396 1940.53 200.797 1928.76C218.345 1916.9 228.896 1900.87 232.136 1881.13C235.372 1861.48 230.546 1843.32 217.768 1827.15L217.782 1827.16C217.722 1827.05 217.641 1826.94 217.538 1826.84C204.576 1810.83 187.069 1801.13 165.564 1798.15C158.53 1797.17 151.624 1796.98 145.009 1797.59C144.096 1797.67 143.202 1797.41 142.525 1796.84L142.466 1796.79C142.081 1797.45 141.371 1797.91 140.526 1797.96C132.426 1798.55 123.981 1798.24 115.39 1797.05C86.8506 1793.09 63.6555 1780.2 46.4387 1758.75C29.2219 1737.3 22.7001 1713.14 27.02 1686.94C31.3395 1660.75 45.3892 1639.44 68.7479 1623.65L68.7543 1623.64L68.7631 1623.63L68.777 1623.62L68.7902 1623.62L68.8156 1623.6L68.8353 1623.59C92.1789 1607.83 118.475 1601.85 146.979 1605.81L146.978 1605.84C168.116 1608.56 187.635 1603.98 205.035 1592.22C222.583 1580.35 233.135 1564.33 236.375 1544.58C239.611 1524.93 234.785 1506.78 222.007 1490.61L222.021 1490.62C221.961 1490.5 221.879 1490.4 221.776 1490.29C208.815 1474.28 191.307 1464.59 169.802 1461.6C162.768 1460.62 155.862 1460.44 149.247 1461.05C148.683 1461.09 148.126 1461.01 147.623 1460.81C147.532 1460.82 147.439 1460.84 147.344 1460.84C139.244 1461.42 130.798 1461.12 122.207 1459.93C107.107 1457.83 93.5033 1453.24 81.4893 1446.2L79.9686 1447.58C68.2861 1441.15 58.0505 1432.5 49.3438 1421.65C32.127 1400.2 25.6053 1376.04 29.9251 1349.84C34.2446 1323.65 48.2943 1302.34 71.653 1286.55L71.6631 1286.54L71.6873 1286.52L71.7082 1286.51L71.7264 1286.5L71.7404 1286.49C90.7936 1273.63 111.814 1267.28 134.396 1267.53C140.739 1267.39 147.209 1267.77 153.797 1268.69L153.796 1268.72C157.233 1269.16 160.629 1269.41 163.979 1269.47C179.746 1269.02 194.477 1264.22 207.94 1255.12C225.488 1243.25 236.04 1227.23 239.28 1207.48C242.516 1187.83 237.69 1169.68 224.912 1153.51L224.926 1153.52C224.866 1153.4 224.784 1153.3 224.681 1153.19C211.72 1137.18 194.212 1127.49 172.707 1124.5C168.875 1123.97 165.08 1123.67 161.35 1123.61C159.57 1123.66 157.807 1123.77 156.065 1123.93C155.571 1123.97 155.083 1123.91 154.632 1123.76C154.016 1123.8 153.403 1123.84 152.792 1123.89C152.447 1124.12 152.034 1124.27 151.582 1124.3C148.497 1124.52 145.361 1124.61 142.186 1124.58C135.785 1124.72 129.203 1124.33 122.533 1123.41C93.9941 1119.44 70.799 1106.55 53.5822 1085.1C36.3654 1063.66 29.8436 1039.5 34.1635 1013.3C38.483 987.102 52.5326 965.797 75.8914 950.006L75.9066 949.989L75.9205 949.98L75.9337 949.973L75.9591 949.96L75.9788 949.95C95.0324 937.081 116.053 930.732 138.636 930.988C144.978 930.844 151.448 931.229 158.035 932.145L158.034 932.176C161.472 932.619 164.868 932.868 168.218 932.924C183.985 932.477 198.716 927.674 212.179 918.571C229.727 906.709 240.278 890.683 243.518 870.936C246.754 851.286 241.928 833.133 229.15 816.964L229.164 816.971C229.104 816.858 229.023 816.751 228.92 816.65C215.958 800.638 198.451 790.945 176.945 787.958C173.112 787.425 169.317 787.127 165.586 787.065C163.808 787.115 162.045 787.221 160.303 787.38C159.81 787.422 159.322 787.364 158.87 787.213C158.255 787.251 157.643 787.295 157.032 787.346C156.686 787.576 156.273 787.722 155.821 787.753C147.72 788.335 139.275 788.031 130.684 786.842C120.279 785.397 110.585 782.765 101.631 778.964C85.4529 772.36 71.65 761.999 60.3998 747.983C43.183 726.534 36.6612 702.375 40.981 676.178C45.3006 649.98 59.3502 628.675 82.709 612.884C82.713 612.877 82.7192 612.871 82.7265 612.866L82.7416 612.857L82.7642 612.845L82.7793 612.838L82.7964 612.828C106.14 597.063 132.437 591.082 160.94 595.046L160.939 595.077C182.077 597.796 201.596 593.216 218.996 581.45C236.544 569.587 247.096 553.562 250.336 533.814C253.572 514.164 248.746 496.011 235.968 479.842L235.982 479.849C235.922 479.736 235.84 479.63 235.737 479.529C227.567 469.435 217.59 461.853 205.944 456.878C199.488 454.258 192.531 452.424 185.096 451.392C178.063 450.413 171.156 450.229 164.542 450.836C163.716 450.905 162.907 450.698 162.26 450.237C162.144 450.216 162.031 450.19 161.919 450.158C161.519 450.75 160.848 451.155 160.059 451.208C151.959 451.79 143.514 451.487 134.922 450.297C124.516 448.851 114.821 446.219 105.866 442.418C89.6893 435.813 75.8876 425.453 64.6382 411.438C47.4214 389.989 40.8996 365.83 45.2195 339.633C49.539 313.435 63.5886 292.13 86.9473 276.339C86.9536 276.328 86.9652 276.32 86.9784 276.313L87.0026 276.3L87.0218 276.29L87.0348 276.283C110.378 260.517 136.675 254.537 165.178 258.501L165.178 258.532C186.315 261.252 205.834 256.67 223.235 244.905C240.783 233.042 251.334 217.017 254.574 197.269C257.81 177.619 252.984 159.466 240.206 143.298L240.22 143.304L240.187 143.246C240.165 143.209 240.14 143.174 240.114 143.139C240.098 143.118 240.081 143.097 240.063 143.076C240.036 143.045 240.007 143.014 239.976 142.983C227.014 126.972 209.507 117.278 188.001 114.291C180.967 113.313 174.061 113.128 167.447 113.736C166.534 113.813 165.64 113.55 164.963 112.981L164.905 112.93C164.519 113.592 163.809 114.051 162.964 114.108C154.864 114.69 146.419 114.387 137.828 113.198C109.289 109.232 86.0935 96.3427 68.8767 74.8936C51.6599 53.4444 45.1381 29.286 49.4579 3.08845C53.7775 -23.1093 67.8271 -44.4137 91.1858 -60.205L91.196 -60.2172C91.2055 -60.2241 91.2255 -60.2363 91.2373 -60.2421L91.2593 -60.2531L91.2732 -60.2612C114.617 -76.0268 140.913 -82.0075 169.417 -78.0434L169.416 -78.0126C190.554 -75.2929 210.073 -79.8737 227.473 -91.6396C245.021 -103.502 255.573 -119.527 258.812 -139.275C262.049 -158.925 257.223 -177.078 244.445 -193.247L244.459 -193.24C244.399 -193.353 244.317 -193.46 244.214 -193.561C231.253 -209.572 213.745 -219.266 192.24 -222.253C185.206 -223.231 178.3 -223.416 171.685 -222.808C170.772 -222.732 169.878 -222.994 169.202 -223.563L169.178 -223.584L169.143 -223.615C168.757 -222.953 168.048 -222.493 167.203 -222.436C159.102 -221.854 150.657 -222.158 142.066 -223.347C113.527 -227.312 90.3319 -240.202 73.1151 -261.651C55.8983 -283.1 49.3765 -307.259 53.6963 -333.456C58.0158 -359.654 72.0655 -380.959 95.4242 -396.75C95.4242 -396.75 95.4326 -396.761 95.4385 -396.766C95.45 -396.775 95.4651 -396.782 95.4794 -396.789L95.4982 -396.799L95.5116 -396.806L95.6904 -396.927L96.1067 -397.205L99.9554 -393.714C99.5011 -393.418 99.0479 -393.118 98.596 -392.814C76.4691 -377.854 63.1701 -357.636 59.0538 -332.732C54.9398 -307.892 61.0812 -285.018 77.2814 -264.756L77.3151 -264.705L77.3472 -264.66L77.3535 -264.652L77.4039 -264.584L77.4506 -264.522C93.7219 -244.258 115.733 -232.057 142.863 -228.278C150.831 -227.166 158.701 -226.868 166.25 -227.375C167.113 -227.427 167.964 -227.153 168.584 -226.612L168.622 -226.578C168.995 -227.186 169.653 -227.617 170.411 -227.691C177.67 -228.41 185.28 -228.223 193.014 -227.145C216.055 -223.942 234.74 -213.579 248.575 -196.352C262.389 -179.12 267.637 -159.662 264.155 -138.524C260.659 -117.394 249.37 -100.242 230.596 -87.5295C212.209 -75.1105 191.497 -70.2336 169.018 -73.0412L169.001 -73.0317L168.948 -73.0063C168.922 -72.9948 168.892 -72.9843 168.861 -72.9755C168.812 -72.9621 168.756 -72.9528 168.694 -72.9509C168.654 -72.9496 168.611 -72.9516 168.564 -72.9575C141.434 -76.7363 116.473 -71.1196 94.3576 -56.2695C72.2308 -41.309 58.9317 -21.0912 54.8154 3.8133C50.7015 28.6529 56.8429 51.5267 73.043 71.7894L73.066 71.824L73.0905 71.8592L73.1071 71.8824L73.1569 71.95L73.2122 72.0228C89.4835 92.2877 111.494 104.488 138.625 108.267C146.593 109.379 154.462 109.677 162.012 109.17C162.875 109.118 163.725 109.392 164.346 109.933L164.383 109.966C164.756 109.358 165.414 108.927 166.173 108.853C173.432 108.134 181.042 108.321 188.776 109.399C211.817 112.602 230.502 122.965 244.337 140.192C258.15 157.424 263.399 176.882 259.916 198.02C256.42 219.15 245.131 236.302 226.357 249.015C207.971 261.434 187.258 266.311 164.779 263.503L164.762 263.513L164.708 263.539C164.682 263.55 164.653 263.56 164.622 263.569L164.589 263.577L164.542 263.586L164.518 263.589L164.481 263.592L164.443 263.594L164.409 263.593L164.375 263.592L164.361 263.59L164.326 263.587C137.921 259.909 113.572 265.131 91.8996 279.103L92.8119 279.931L92.3385 280.241C92.0426 280.435 91.7473 280.632 91.4525 280.83C69.3257 295.79 56.0266 316.008 51.9104 340.913C47.7964 365.752 53.9377 388.626 70.1379 408.889L70.1716 408.939L70.2038 408.984L70.21 408.993L70.2604 409.06L70.3071 409.122C80.6208 421.967 93.2404 431.572 108.008 437.846C116.167 441.173 124.968 443.5 134.386 444.811C142.354 445.923 150.224 446.221 157.774 445.714C158.544 445.668 159.305 445.882 159.901 446.314C160.011 446.333 160.12 446.357 160.227 446.387C160.61 445.845 161.228 445.467 161.934 445.398C169.193 444.679 176.803 444.866 184.538 445.944C193.015 447.123 200.904 449.271 208.177 452.373C221.247 457.685 232.378 466.019 241.432 477.292C255.245 494.524 260.494 513.983 257.011 535.12C253.515 556.25 242.226 573.402 223.452 586.115C205.066 598.534 184.353 603.411 161.874 600.603L161.857 600.613C161.839 600.623 161.819 600.633 161.797 600.642C161.772 600.652 161.746 600.661 161.717 600.669C161.636 600.691 161.538 600.702 161.421 600.687C134.29 596.908 109.33 602.525 87.2142 617.375C65.0873 632.335 51.7883 652.553 47.672 677.458C43.558 702.297 49.6994 725.171 65.8996 745.434L65.9225 745.468L65.9471 745.504L65.9637 745.527L66.0134 745.594L66.0687 745.667C76.3817 758.511 89.0004 768.116 103.767 774.39C111.926 777.717 120.729 780.045 130.148 781.356C138.116 782.468 145.985 782.767 153.535 782.259C154.07 782.227 154.6 782.32 155.073 782.524L155.117 782.519C158.469 782.187 161.897 782.049 165.377 782.102C170.678 781.96 176.124 782.276 181.633 783.043C204.673 786.247 223.358 796.61 237.193 813.836C251.007 831.069 256.255 850.527 252.773 871.664C249.277 892.795 237.988 909.947 219.214 922.659C203.788 933.078 186.726 938.189 168.357 937.907C163.569 938.035 158.689 937.79 153.723 937.17L153.706 937.179L153.67 937.197L153.654 937.204L153.637 937.212L153.607 937.222L153.566 937.235C153.485 937.258 153.387 937.268 153.27 937.253C148.267 936.556 143.338 936.179 138.486 936.12C118.517 936.59 99.912 942.547 82.9757 953.919C60.8488 968.88 47.5497 989.097 43.4335 1014C39.3195 1038.84 45.4609 1061.72 61.661 1081.98L61.7043 1082.04L61.7331 1082.08L61.7604 1082.12L61.7856 1082.15L61.8303 1082.21C78.1016 1102.48 100.112 1114.68 127.243 1118.46C132.248 1119.15 137.215 1119.53 142.087 1119.59C143.643 1119.55 145.187 1119.48 146.718 1119.38C147.111 1119.36 147.502 1119.4 147.87 1119.51C148.536 1119.48 149.199 1119.45 149.86 1119.41C150.161 1119.22 150.508 1119.1 150.878 1119.06C154.23 1118.73 157.657 1118.59 161.136 1118.65C166.437 1118.5 171.884 1118.82 177.394 1119.59C200.435 1122.79 219.12 1133.15 232.955 1150.38C246.768 1167.61 252.017 1187.07 248.534 1208.21C245.038 1229.34 233.749 1246.49 214.976 1259.2C199.551 1269.62 182.489 1274.73 164.12 1274.45C159.332 1274.58 154.452 1274.33 149.485 1273.71L149.468 1273.72C149.428 1273.75 149.382 1273.77 149.328 1273.78C149.247 1273.8 149.149 1273.81 149.032 1273.8C144.027 1273.1 139.097 1272.72 134.245 1272.67Z" fill="#7C7C7C" fill-opacity="0.05"/>
<path d="M66.5496 1459.75L64.9413 1461.21C52.8265 1453.85 42.1131 1444.36 32.8745 1432.79C12.2573 1407.24 4.42639 1378.38 9.60858 1347.02C14.7974 1315.68 31.5924 1290.24 59.5122 1271.45L59.52 1271.44L59.5446 1271.42L59.5674 1271.41L59.5773 1271.4L59.5898 1271.4L59.5997 1271.39C82.213 1256.04 107.199 1248.43 134.044 1248.66C139.888 1248.55 145.822 1248.81 151.841 1249.44C152.019 1249.46 152.191 1249.5 152.355 1249.55C152.734 1249.49 153.125 1249.49 153.507 1249.55C154.291 1249.69 155.091 1249.81 155.876 1249.92C158.51 1250.28 161.11 1250.5 163.672 1250.56C175.174 1250.14 185.884 1246.59 195.624 1239.94C202.92 1235.06 208.587 1229.2 212.595 1222.41L212.609 1222.42C215.776 1217.06 217.904 1211.13 218.971 1204.64C221.387 1189.96 217.729 1176.47 208.076 1164.56C198.56 1152.57 185.621 1145.37 169.614 1143.15C166.961 1142.77 164.334 1142.56 161.745 1142.49C159.785 1142.56 157.852 1142.72 155.951 1142.97C155.336 1143.05 154.706 1142.97 154.142 1142.76C153.474 1142.82 152.809 1142.89 152.149 1142.98C151.829 1143.15 151.464 1143.26 151.073 1143.28C148.27 1143.43 145.431 1143.5 142.564 1143.47C135.038 1143.62 127.289 1143.15 119.454 1142.06C85.2971 1137.29 57.5844 1121.88 37.1128 1096.24C16.4956 1070.69 8.66478 1041.83 13.8469 1010.47C19.0358 979.131 35.8307 953.699 63.7506 934.9C63.7553 934.893 63.7626 934.886 63.7714 934.88L63.7871 934.871L63.8048 934.862L63.8166 934.856L63.8272 934.851L63.838 934.844C86.4515 919.498 111.438 911.887 138.283 912.118C144.126 912.001 150.06 912.261 156.079 912.898C156.257 912.917 156.429 912.951 156.593 913.001C156.973 912.94 157.364 912.941 157.745 913.008C158.53 913.15 159.329 913.266 160.115 913.374C162.749 913.74 165.348 913.954 167.91 914.017C179.412 913.599 190.122 910.048 199.862 903.395C207.158 898.513 212.825 892.653 216.833 885.868L216.847 885.875C220.014 880.514 222.142 874.586 223.209 868.096C225.625 853.416 221.968 839.927 212.314 828.018C202.798 816.029 189.859 808.825 173.852 806.6C171.2 806.227 168.573 806.011 165.985 805.947C164.025 806.018 162.09 806.178 160.189 806.427C159.574 806.507 158.944 806.429 158.38 806.211C157.712 806.275 157.049 806.349 156.389 806.435C156.069 806.606 155.703 806.712 155.311 806.735C146.361 807.226 137.045 806.805 127.605 805.492C115.219 803.762 103.68 800.634 93.0265 796.126C73.7262 788.222 57.2871 775.851 43.9305 759.121C23.3132 733.572 15.4824 704.713 20.6646 673.351C25.8535 642.01 42.6484 616.578 70.5682 597.779L70.5781 597.767L70.5871 597.76L70.6005 597.752L70.6113 597.746L70.6386 597.732L70.6556 597.723C97.1227 579.761 126.84 572.396 158.984 575.799C159.162 575.817 159.334 575.852 159.498 575.901C159.878 575.841 160.269 575.841 160.651 575.909C161.435 576.05 162.234 576.166 163.02 576.275C179.013 578.493 193.707 575.135 206.68 566.274C213.976 561.391 219.643 555.532 223.651 548.747L223.665 548.754C226.832 543.393 228.96 537.464 230.027 530.975C232.443 516.294 228.785 502.806 219.132 490.897C213.15 483.361 205.816 477.715 197.217 474.008C192.508 472.116 187.432 470.788 182.003 470.034C175.96 469.184 170.052 469.147 164.428 469.883C163.534 469.999 162.611 469.781 161.9 469.288C161.749 469.259 161.601 469.22 161.456 469.173C161.033 469.752 160.347 470.143 159.55 470.19C150.599 470.681 141.283 470.259 131.843 468.946C119.458 467.217 107.919 464.089 97.2663 459.582C77.9654 451.678 61.5258 439.306 48.1689 422.576C27.5517 397.027 19.7208 368.168 24.9029 336.806C30.0918 305.465 46.8868 280.033 74.8066 261.234C74.8106 261.227 74.8166 261.221 74.8237 261.216L74.8342 261.209L74.8596 261.196L74.8753 261.188L74.894 261.178C101.361 243.216 131.078 235.851 163.223 239.254C163.401 239.272 163.573 239.307 163.737 239.357C164.116 239.296 164.507 239.296 164.889 239.364C165.673 239.505 166.473 239.621 167.258 239.73C183.251 241.948 197.945 238.59 210.918 229.729C218.214 224.846 223.881 218.987 227.889 212.202L227.903 212.209C231.07 206.848 233.198 200.919 234.265 194.43C236.681 179.749 233.024 166.261 223.37 154.352C213.854 142.363 200.915 135.159 184.908 132.934C178.865 132.084 172.957 132.047 167.333 132.783C166.354 132.909 165.34 132.637 164.607 132.04L164.528 131.973L164.502 131.95L164.466 131.917C164.058 132.582 163.322 133.04 162.455 133.091C153.504 133.581 144.188 133.16 134.749 131.847C100.592 127.077 72.8789 111.673 52.4073 86.0313C31.7901 60.483 23.9592 31.6234 29.1414 0.262036C34.3303 -31.0798 51.1252 -56.5116 79.0451 -75.3105C79.0517 -75.3217 79.0637 -75.33 79.0774 -75.3378L79.1002 -75.3491L79.1101 -75.3539L79.1227 -75.3605L79.1325 -75.3661C105.6 -93.3281 135.317 -100.693 167.461 -97.2902C167.639 -97.2717 167.811 -97.237 167.975 -97.1877C168.355 -97.2485 168.746 -97.248 169.127 -97.1801C169.912 -97.0388 170.711 -96.923 171.497 -96.8144C187.49 -94.5964 202.184 -97.954 215.157 -106.815C222.453 -111.698 228.12 -117.558 232.128 -124.343L232.142 -124.336C235.309 -129.697 237.437 -135.625 238.504 -142.114C240.92 -156.795 237.262 -170.283 227.608 -182.192C218.093 -194.181 205.154 -201.386 189.147 -203.611C183.104 -204.461 177.195 -204.497 171.571 -203.762C170.592 -203.635 169.578 -203.907 168.846 -204.504L168.75 -204.586L168.704 -204.627C168.296 -203.963 167.56 -203.506 166.693 -203.454C157.742 -202.964 148.427 -203.385 138.987 -204.698C104.83 -209.468 77.1172 -224.872 56.6457 -250.514C36.0285 -276.062 28.1976 -304.922 33.3798 -336.283C38.4503 -366.91 54.6034 -391.893 81.3901 -410.558L85.2257 -407.078C59.2491 -389.095 43.6076 -365.047 38.7365 -335.526C33.7822 -305.561 41.2598 -277.939 60.9469 -253.418C80.6267 -228.884 107.162 -214.149 139.812 -209.615C148.7 -208.377 157.483 -207.972 165.934 -208.413C166.775 -208.459 167.604 -208.179 168.196 -207.652L168.253 -207.6C168.592 -208.109 169.138 -208.471 169.782 -208.569C176.218 -209.515 183.002 -209.491 189.951 -208.521C207.352 -206.117 221.527 -198.281 232.114 -185.227C242.534 -172.107 246.495 -157.356 243.854 -141.376C241.23 -125.488 232.766 -112.507 218.689 -102.817C218.58 -102.755 218.464 -102.68 218.369 -102.611C204.17 -93.1142 188.108 -89.4919 170.715 -91.9094C170.386 -91.9545 170.057 -92.0024 169.729 -92.0524L169.725 -91.8483C137.809 -95.8512 108.379 -88.9738 82.2169 -71.3747C55.5038 -53.3029 39.4456 -28.9653 34.4981 1.01936C29.5439 30.9842 37.0215 58.606 56.7086 83.1268C76.3884 107.661 102.923 122.396 135.574 126.93C144.462 128.168 153.244 128.573 161.695 128.132C162.536 128.086 163.365 128.366 163.958 128.893L163.983 128.916L164.015 128.944C164.354 128.436 164.9 128.073 165.544 127.975C171.979 127.029 178.763 127.054 185.712 128.023C203.113 130.428 217.288 138.263 227.875 151.317C238.296 164.437 242.256 179.188 239.615 195.168C236.992 211.056 228.527 224.038 214.451 233.727L214.386 233.765L214.342 233.792L214.309 233.813L214.262 233.843L214.206 233.88L214.13 233.933C199.932 243.43 183.87 247.053 166.476 244.635L166.292 244.609L166.076 244.579L165.862 244.548L165.49 244.492L165.486 244.696C133.57 240.693 104.141 247.57 77.9784 265.17C77.704 265.355 77.4308 265.541 77.1587 265.728L78.0823 266.566C52.1056 284.549 36.4641 308.597 31.593 338.119C26.6387 368.084 34.1163 395.705 53.8034 420.226C66.3235 435.834 81.618 447.477 99.4966 455.05C109.348 459.082 119.971 461.896 131.335 463.474C140.223 464.712 149.006 465.117 157.457 464.676C158.205 464.635 158.944 464.852 159.515 465.272C159.637 465.292 159.757 465.32 159.875 465.353C160.216 464.917 160.72 464.609 161.306 464.52C167.741 463.574 174.525 463.598 181.474 464.568C187.959 465.464 193.996 467.114 199.567 469.508C209.515 473.519 218.016 479.842 224.97 488.417C235.391 501.537 239.351 516.289 236.71 532.268C234.087 548.157 225.623 561.138 211.546 570.827C211.437 570.89 211.32 570.965 211.225 571.033C197.027 580.53 180.965 584.153 163.571 581.735C163.242 581.69 162.914 581.642 162.585 581.592L162.581 581.796C130.665 577.793 101.236 584.671 75.0734 602.27C48.3603 620.341 32.3021 644.679 27.3546 674.664C22.4004 704.629 29.878 732.25 49.5651 756.771C62.0879 772.383 77.3864 784.027 95.27 791.599C105.118 795.63 115.737 798.442 127.097 800.02C135.985 801.257 144.768 801.662 153.219 801.221C153.811 801.189 154.398 801.318 154.901 801.582C158.427 801.088 162.056 800.883 165.758 800.964C169.934 800.824 174.218 801.06 178.569 801.667C195.97 804.072 210.145 811.908 220.732 824.961C231.152 838.081 235.113 852.832 232.472 868.812C229.848 884.701 221.384 897.682 207.307 907.372L207.243 907.409L207.198 907.437L207.165 907.457L207.119 907.487L207.063 907.524L206.987 907.578C195.199 915.462 182.126 919.298 168.073 918.989C163.942 919.128 159.722 918.899 155.42 918.302L154.814 918.215L154.66 918.192L154.434 918.158L154.43 918.362C148.967 917.677 143.577 917.311 138.263 917.262C114.019 917.76 91.4157 924.969 70.8349 938.814C44.1219 956.886 28.0636 981.224 23.1162 1011.21C18.1619 1041.17 25.6395 1068.79 45.3266 1093.32C65.0064 1117.85 91.5412 1132.58 124.192 1137.12C130.34 1137.97 136.438 1138.43 142.411 1138.49C143.748 1138.46 145.079 1138.41 146.401 1138.34C146.738 1138.32 147.072 1138.36 147.391 1138.44C148.156 1138.42 148.918 1138.39 149.678 1138.35C149.857 1138.27 150.048 1138.22 150.25 1138.19C153.905 1137.65 157.672 1137.42 161.519 1137.51C165.694 1137.37 169.98 1137.61 174.33 1138.21C191.732 1140.62 205.907 1148.45 216.493 1161.51C226.914 1174.63 230.875 1189.38 228.233 1205.36C225.61 1221.25 217.146 1234.23 203.069 1243.92C203.044 1243.93 203.02 1243.95 202.995 1243.96C202.958 1243.98 202.92 1244.01 202.884 1244.03C202.836 1244.06 202.79 1244.09 202.748 1244.12C190.961 1252.01 177.888 1255.84 163.836 1255.53C159.705 1255.67 155.484 1255.44 151.182 1254.85C150.853 1254.8 150.524 1254.75 150.196 1254.7L150.192 1254.91C144.729 1254.22 139.339 1253.86 134.026 1253.81C109.781 1254.3 87.1776 1261.51 66.5965 1275.36C39.8835 1293.43 23.8253 1317.77 18.8777 1347.75C13.9235 1377.72 21.4011 1405.34 41.0882 1429.86C60.768 1454.39 87.3028 1469.13 119.953 1473.66C128.841 1474.9 137.624 1475.31 146.075 1474.87C146.668 1474.83 147.255 1474.96 147.757 1475.23C154.07 1474.34 160.712 1474.38 167.513 1475.33C184.914 1477.74 199.089 1485.57 209.676 1498.63C220.096 1511.75 224.057 1526.5 221.416 1542.48C218.792 1558.37 210.328 1571.35 196.251 1581.04C196.142 1581.1 196.026 1581.17 195.931 1581.24C181.733 1590.74 165.67 1594.36 148.277 1591.95L147.671 1591.86L147.517 1591.84L147.291 1591.8L147.287 1592.01C115.371 1588 85.9412 1594.88 59.7789 1612.48C33.0659 1630.55 17.0076 1654.89 12.0602 1684.87C7.10591 1714.84 14.5835 1742.46 34.2706 1766.98C53.9504 1791.52 80.4852 1806.25 113.136 1810.79C122.024 1812.02 130.807 1812.43 139.257 1811.99C140.098 1811.94 140.927 1812.22 141.52 1812.75L141.577 1812.8C141.916 1812.29 142.462 1811.93 143.106 1811.83C149.541 1810.88 156.325 1810.91 163.274 1811.88C180.676 1814.28 194.851 1822.12 205.437 1835.17C215.858 1848.29 219.819 1863.04 217.177 1879.02C214.554 1894.91 206.09 1907.89 192.013 1917.58C191.904 1917.65 191.787 1917.72 191.692 1917.79C177.494 1927.29 161.432 1930.91 144.038 1928.49C143.709 1928.45 143.381 1928.4 143.053 1928.35L143.049 1928.55C111.133 1924.55 81.7028 1931.43 55.5405 1949.03C28.8275 1967.1 12.7693 1991.43 7.8218 2021.42C2.86755 2051.38 10.3452 2079.01 30.0322 2103.53C39.1524 2114.9 49.7447 2124.16 61.7357 2131.28L57.7979 2134.86C45.683 2127.49 34.9696 2118 25.731 2106.43C5.11383 2080.88 -2.71708 2052.02 2.46511 2020.66C7.65399 1989.32 24.4489 1963.89 52.3688 1945.09L52.3765 1945.08L52.4011 1945.06L52.4239 1945.05L52.4338 1945.05L52.4464 1945.04L52.4562 1945.03C78.9233 1927.07 108.641 1919.71 140.785 1923.11C140.963 1923.13 141.135 1923.16 141.299 1923.21C141.678 1923.15 142.07 1923.15 142.451 1923.22C143.235 1923.36 144.035 1923.48 144.82 1923.59C160.813 1925.8 175.507 1922.45 188.481 1913.58C195.776 1908.7 201.444 1902.84 205.451 1896.06L205.465 1896.06C208.632 1890.7 210.76 1884.78 211.827 1878.29C214.244 1863.61 210.586 1850.12 200.932 1838.21C191.417 1826.22 178.478 1819.01 162.471 1816.79C156.428 1815.94 150.519 1815.9 144.895 1816.64C143.916 1816.77 142.902 1816.49 142.17 1815.9L142.087 1815.83L142.046 1815.79L142.027 1815.77C141.619 1816.44 140.884 1816.89 140.017 1816.95C131.066 1817.44 121.75 1817.02 112.311 1815.7C78.1536 1810.93 50.4409 1795.53 29.9694 1769.89C9.35216 1744.34 1.52131 1715.48 6.70347 1684.12C11.8924 1652.78 28.6873 1627.34 56.6071 1608.54C56.6118 1608.54 56.6192 1608.53 56.6279 1608.52L56.6454 1608.51L56.6623 1608.51L56.6732 1608.5L56.6837 1608.5L56.6946 1608.49C83.1617 1590.53 112.879 1583.16 145.023 1586.56C145.201 1586.58 145.373 1586.62 145.537 1586.67C145.917 1586.61 146.308 1586.61 146.689 1586.67C147.474 1586.82 148.273 1586.93 149.059 1587.04C165.052 1589.26 179.746 1585.9 192.719 1577.04C200.015 1572.16 205.682 1566.3 209.69 1559.51L209.704 1559.52C212.871 1554.16 214.999 1548.23 216.066 1541.74C218.482 1527.06 214.824 1513.57 205.171 1501.66C195.655 1489.67 182.716 1482.47 166.709 1480.24C160.666 1479.39 154.757 1479.36 149.133 1480.09C148.443 1480.18 147.735 1480.07 147.121 1479.79L147.031 1479.81L146.974 1479.81L146.895 1479.82L146.834 1479.82C137.884 1480.32 128.568 1479.89 119.128 1478.58C99.4014 1475.83 81.824 1469.52 66.5496 1459.75Z" fill="#7C7C7C" fill-opacity="0.05"/>
</svg>
