<svg
  width="1088"
  height="130"
  viewBox="0 0 1088 130"
  fill="none"
  xmlns="http://www.w3.org/2000/svg"
>
          <path
    fill-rule="evenodd"
    clip-rule="evenodd"
    d="M746.099 129.4L346.151 129.4H-416.5C-399.165 55.9664 -314.897 0.250028 -213.556 0.250036C-166.053 0.250039 -122.302 12.4917 -87.4373 33.0614C-52.5724 12.4917 -8.82135 0.250051 38.6812 0.250054C86.1837 0.250058 129.935 12.4916 164.799 33.0614C199.664 12.4916 243.415 0.250039 290.918 0.250042C338.42 0.250046 382.171 12.4917 417.036 33.0614C451.901 12.4916 495.652 0.249996 543.155 0.25C544.147 0.25 545.138 0.255343 546.127 0.265992C547.115 0.255366 548.104 0.250036 549.095 0.250036C596.598 0.250039 640.349 12.4917 675.214 33.0614C710.078 12.4917 753.83 0.250051 801.332 0.250054C848.834 0.250058 892.586 12.4917 927.45 33.0615C962.315 12.4917 1006.07 0.250039 1053.57 0.250042C1101.07 0.250046 1144.82 12.4917 1179.69 33.0614C1214.55 12.4916 1258.3 0.249996 1305.81 0.25C1407.15 0.250007 1491.41 55.9665 1508.75 129.4H746.099Z"
    fill="#6199A8"
  />
          <path
    fill-rule="evenodd"
    clip-rule="evenodd"
    d="M746.099 129.4L346.151 129.4H-416.5C-399.165 55.9664 -314.897 0.250028 -213.556 0.250036C-166.053 0.250039 -122.302 12.4917 -87.4373 33.0614C-52.5724 12.4917 -8.82135 0.250051 38.6812 0.250054C86.1837 0.250058 129.935 12.4916 164.799 33.0614C199.664 12.4916 243.415 0.250039 290.918 0.250042C338.42 0.250046 382.171 12.4917 417.036 33.0614C451.901 12.4916 495.652 0.249996 543.155 0.25C544.147 0.25 545.138 0.255343 546.127 0.265992C547.115 0.255366 548.104 0.250036 549.095 0.250036C596.598 0.250039 640.349 12.4917 675.214 33.0614C710.078 12.4917 753.83 0.250051 801.332 0.250054C848.834 0.250058 892.586 12.4917 927.45 33.0615C962.315 12.4917 1006.07 0.250039 1053.57 0.250042C1101.07 0.250046 1144.82 12.4917 1179.69 33.0614C1214.55 12.4916 1258.3 0.249996 1305.81 0.25C1407.15 0.250007 1491.41 55.9665 1508.75 129.4H746.099Z"
    fill="#484939"
  />
        </svg>
