<svg
  width="1088"
  height="772"
  viewBox="0 0 1088 772"
  fill="none"
  xmlns="http://www.w3.org/2000/svg"
>
<mask
    id="mask0_6_3816"
    style="mask-type:alpha"
    maskUnits="userSpaceOnUse"
    x="-135"
    y="0"
    width="1263"
    height="772"
  >
<path
      d="M71.4657 0.199707C-18.0843 0.199707 -95.7637 47.6462 -134.3 117.08H-30.6V772H1116.9V117.08H1127.1C1123.96 111.415 1120.55 105.896 1116.9 100.537V71.5997H1093.32C1050.93 27.756 989.579 0.199811 921.334 0.199811C867.984 0.199811 818.846 17.04 779.689 45.3371C740.532 17.04 691.395 0.199811 638.045 0.199811C584.694 0.199811 535.557 17.0401 496.4 45.3371C457.243 17.0401 408.106 0.199811 354.755 0.199811C301.405 0.199811 252.268 17.04 213.11 45.3371C173.953 17.04 124.816 0.199707 71.4657 0.199707Z"
      fill="#D9D9D9"
    />
</mask>
<g mask="url(#mask0_6_3816)">
<rect
      x="1089.7"
      y="566.3"
      width="1144.1"
      height="638.35"
      transform="rotate(-180 1089.7 566.3)"
      fill="#B8B825"
      fill-opacity="0.59"
      style="mix-blend-mode:color"
    />
</g>
</svg>
