<svg
  width="228"
  height="2199"
  viewBox="0 0 228 2199"
  fill="none"
  xmlns="http://www.w3.org/2000/svg"
>
<path
    d="M-29.4422 2422.23L-30.9622 2423.61C-45.9762 2418.45 -58.6668 2409.54 -68.8503 2396.98C-82.6502 2379.61 -87.8953 2360.07 -84.3977 2338.91C-80.9233 2317.87 -69.7143 2300.68 -51.0724 2287.85C-50.9281 2287.77 -50.7737 2287.67 -50.6479 2287.58C-35.0371 2277.13 -17.7248 2272.06 0.885618 2272.46C6.35588 2272.28 11.9442 2272.58 17.6408 2273.37L18.2981 2273.47L18.9463 2273.56L18.9515 2273.29C26.1844 2274.2 33.321 2274.69 40.3559 2274.75C72.4648 2274.09 102.399 2264.55 129.656 2246.21C165.032 2222.28 186.297 2190.05 192.849 2150.34C199.41 2110.66 189.508 2074.08 163.436 2041.61C137.375 2009.12 102.235 1989.6 58.9964 1983.6C50.8556 1982.46 42.7813 1981.86 34.8731 1981.78C33.1004 1981.82 31.3372 1981.89 29.5849 1981.98C29.139 1982 28.6958 1981.96 28.274 1981.85C27.2612 1981.88 26.2516 1981.92 25.2455 1981.96C25.0086 1982.07 24.7547 1982.14 24.4881 1982.18C19.6481 1982.9 14.6591 1983.19 9.56569 1983.08C4.0354 1983.27 -1.64029 1982.95 -7.40173 1982.15C-30.446 1978.97 -49.2177 1968.59 -63.2375 1951.3C-77.0373 1933.93 -82.2825 1914.39 -78.7849 1893.23C-75.3105 1872.19 -64.1014 1855 -45.4596 1842.17C-45.3153 1842.08 -45.1609 1841.99 -45.035 1841.89C-29.4246 1831.45 -12.1127 1826.37 6.49728 1826.78C11.9679 1826.6 17.5566 1826.9 23.2536 1827.69C23.6891 1827.75 24.1245 1827.82 24.5591 1827.88L24.5643 1827.61C31.7977 1828.52 38.9347 1829 45.9701 1829.07C78.0785 1828.41 108.013 1818.86 135.269 1800.53C170.645 1776.6 191.91 1744.37 198.462 1704.66C205.023 1664.98 195.12 1628.4 169.049 1595.92C142.987 1563.43 107.848 1543.92 64.6092 1537.92C56.467 1536.78 48.3916 1536.18 40.4821 1536.1C38.7106 1536.14 36.9488 1536.2 35.1977 1536.29C34.7519 1536.32 34.3089 1536.27 33.8871 1536.17C32.8748 1536.2 31.8656 1536.23 30.86 1536.28C30.6227 1536.39 30.3683 1536.46 30.1011 1536.5C21.5792 1537.76 12.5952 1537.72 3.39251 1536.44C-5.19661 1535.25 -13.1908 1533.07 -20.568 1529.9C-33.7412 1524.58 -45.0002 1516.21 -54.209 1504.86C-68.0089 1487.48 -73.254 1467.95 -69.7564 1446.79C-66.282 1425.74 -55.0729 1408.55 -36.4311 1395.72C-36.2868 1395.64 -36.1324 1395.54 -36.0066 1395.45C-17.2042 1382.87 4.06653 1378.07 27.1008 1381.28C27.5363 1381.34 27.9717 1381.4 28.4062 1381.47L28.4115 1381.2C70.6775 1386.5 109.651 1377.39 144.297 1354.08C179.673 1330.15 200.939 1297.92 207.491 1258.21C214.051 1218.53 204.149 1181.95 178.078 1149.48C161.495 1128.81 141.237 1113.39 117.556 1103.36C104.513 1098.02 90.4487 1094.29 75.4035 1092.21C63.6332 1090.57 52.0021 1090.03 40.8107 1090.61C39.8201 1090.67 38.8419 1090.38 38.0855 1089.82C37.9241 1089.8 37.7649 1089.76 37.609 1089.72C37.1569 1090.3 36.4891 1090.7 35.7139 1090.82C27.192 1092.07 18.208 1092.04 9.00533 1090.76C0.416206 1089.57 -7.57801 1087.39 -14.9552 1084.21C-28.1285 1078.9 -39.3874 1070.53 -48.5962 1059.17C-62.396 1041.8 -67.6412 1022.26 -64.1435 1001.1C-60.6692 980.062 -49.4602 962.871 -30.8183 950.039L-30.6942 949.966L-30.6135 949.915L-30.4747 949.824L-30.3938 949.766C-11.5914 937.19 9.67935 932.393 32.7136 935.594C33.1491 935.654 33.5845 935.718 34.0191 935.784L34.0243 935.513C76.2903 940.815 115.264 931.707 149.91 908.401C185.286 884.469 206.552 852.238 213.103 812.53C219.664 772.848 209.762 736.269 183.69 703.796C157.629 671.306 122.489 651.793 79.2504 645.788C67.4801 644.149 55.8491 643.613 44.6577 644.196C43.5442 644.258 42.4462 643.887 41.6615 643.188L41.5862 643.121C41.1376 643.794 40.4144 644.274 39.5611 644.404C31.0392 645.657 22.0552 645.625 12.8525 644.341C-10.1917 641.157 -28.9634 630.78 -42.9832 613.493C-56.7831 596.118 -62.0282 576.583 -58.5306 555.422C-55.0562 534.381 -43.8471 517.19 -25.2053 504.358L-25.0944 504.293L-25.004 504.236C-24.9253 504.186 -24.8488 504.135 -24.7808 504.086C-5.97841 491.509 15.2923 486.712 38.3266 489.913L38.939 490L39.632 490.103L39.6373 489.833C81.9033 495.134 120.877 486.026 155.523 462.719C190.899 438.787 212.165 406.557 218.716 366.849C225.277 327.167 215.375 290.588 189.303 258.115C163.242 225.625 128.102 206.112 84.8635 200.107C73.0932 198.468 61.4621 197.932 50.2707 198.515C49.1572 198.576 48.0592 198.206 47.2745 197.507L47.2505 197.486L47.1987 197.439C46.75 198.113 46.027 198.593 45.1739 198.722C36.652 199.975 27.668 199.943 18.4653 198.659C-4.5789 195.475 -23.3506 185.098 -37.3704 167.811C-51.1702 150.436 -56.4154 130.901 -52.9178 109.74C-49.4434 88.6987 -38.2343 71.5081 -19.5925 58.676C-19.5271 58.6389 -19.4598 58.5979 -19.3939 58.5564C-19.3142 58.5061 -19.2368 58.4534 -19.168 58.4036C-16.535 56.6421 -13.8535 55.0339 -11.1256 53.5786L-5.71087 58.4917C-8.84635 60.0955 -11.9153 61.9221 -14.9149 63.9712C-24.5767 70.4375 -32.0814 78.1965 -37.3892 87.1819L-37.4077 87.1726C-41.6016 94.2725 -44.4195 102.124 -45.8325 110.717C-49.0324 130.158 -44.1884 148.021 -31.4043 163.791C-18.803 179.669 -1.66803 189.209 19.5298 192.156C27.5325 193.282 35.357 193.33 42.8048 192.356C44.1012 192.188 45.4442 192.549 46.4141 193.339L46.5207 193.429L46.6026 193.502C47.1428 192.622 48.117 192.017 49.2652 191.949C61.1182 191.299 73.455 191.857 85.956 193.595C131.19 199.912 167.889 220.312 194.999 254.269C222.303 288.102 232.673 326.32 225.81 367.852C218.939 409.357 196.697 443.036 159.723 467.932C159.71 467.954 159.68 467.969 159.65 467.983L159.63 467.993L159.608 468.006C124.558 491.792 85.2034 501.545 42.6352 497.039L42.4888 497.021C42.4306 497.013 42.3729 497.003 42.3158 496.992C42.1926 496.969 42.072 496.939 41.9545 496.903C41.4519 496.984 40.9339 496.983 40.4286 496.894C39.3899 496.707 38.3313 496.553 37.2911 496.409C16.1118 493.471 -3.34743 497.918 -20.5277 509.653C-30.1895 516.119 -37.6943 523.879 -43.002 532.864L-43.0205 532.855C-47.2144 539.955 -50.0323 547.805 -51.4453 556.399C-54.6452 575.84 -49.8012 593.703 -37.0171 609.473C-24.4158 625.351 -7.28082 634.891 13.917 637.838C21.9197 638.963 29.7442 639.012 37.192 638.038C38.4884 637.869 39.8314 638.23 40.8013 639.021L40.8994 639.104L40.9893 639.184C41.5295 638.304 42.5038 637.698 43.6522 637.629C55.5053 636.979 67.842 637.538 80.343 639.277C125.577 645.593 162.276 665.993 189.386 699.949C216.69 733.783 227.06 772.002 220.197 813.533C213.326 855.038 191.084 888.718 154.11 913.612C154.106 913.621 154.099 913.628 154.09 913.634L154.068 913.649L154.044 913.661L154.024 913.67L154.008 913.679L153.995 913.687C118.945 937.473 79.5904 947.227 37.0222 942.72C36.7864 942.696 36.5588 942.65 36.3414 942.584C35.8388 942.665 35.3209 942.664 34.8156 942.575C33.777 942.387 32.7183 942.234 31.6781 942.09C14.4374 939.699 -1.66363 942.201 -16.3233 949.544L-15.1709 950.59C-18.3063 952.194 -21.3753 954.021 -24.3749 956.069C-34.0367 962.536 -41.5414 970.295 -46.8492 979.28L-46.8677 979.271C-51.0617 986.371 -53.8795 994.222 -55.2925 1002.82C-58.4924 1022.26 -53.6484 1040.12 -40.8643 1055.89C-32.9432 1065.87 -23.2294 1073.35 -11.8422 1078.26C-5.60633 1080.76 1.1152 1082.52 8.30401 1083.52C16.3067 1084.64 24.1312 1084.69 31.579 1083.72C32.7628 1083.57 33.9855 1083.85 34.9275 1084.51C35.1271 1084.55 35.3232 1084.6 35.515 1084.66C36.0744 1083.89 36.9833 1083.37 38.0394 1083.31C49.8925 1082.66 62.2293 1083.22 74.7302 1084.96C91.1504 1087.25 106.446 1091.4 120.566 1097.38C146.106 1107.85 167.862 1124.22 185.539 1146.37C212.843 1180.2 223.213 1218.42 216.35 1259.95C209.479 1301.46 187.237 1335.13 150.263 1360.03C150.25 1360.05 150.22 1360.07 150.19 1360.08L150.17 1360.09L150.148 1360.1C115.098 1383.89 75.7434 1393.64 33.1752 1389.14L33.0288 1389.12C32.9706 1389.11 32.9129 1389.1 32.8558 1389.09C32.7326 1389.07 32.612 1389.04 32.4945 1389C31.9919 1389.08 31.4739 1389.08 30.9686 1388.99C29.93 1388.8 28.8713 1388.65 27.8312 1388.51C6.65184 1385.57 -12.8074 1390.02 -29.9877 1401.75C-39.6495 1408.22 -47.1543 1415.98 -52.462 1424.96L-52.4805 1424.95C-56.6744 1432.05 -59.4922 1439.9 -60.9053 1448.5C-64.1052 1467.94 -59.2613 1485.8 -46.4771 1501.57C-38.5561 1511.55 -28.8426 1519.03 -17.4558 1523.94C-11.2197 1526.44 -4.49787 1528.2 2.6912 1529.2C10.6939 1530.33 18.5184 1530.38 25.9662 1529.4C26.8806 1529.28 27.8183 1529.43 28.6318 1529.8L28.707 1529.79L28.8312 1529.77L28.8987 1529.77L29.0109 1529.76C32.7207 1529.55 36.4779 1529.47 40.2727 1529.5C50.2411 1529.3 60.5055 1529.93 70.883 1531.38C116.117 1537.69 152.816 1558.09 179.926 1592.05C207.23 1625.88 217.6 1664.1 210.737 1705.63C203.866 1747.14 181.624 1780.82 144.65 1805.71C144.646 1805.72 144.64 1805.72 144.632 1805.73L144.608 1805.75L144.584 1805.76L144.564 1805.77L144.548 1805.78L144.535 1805.79C114.589 1826.11 81.5016 1836.19 45.9522 1835.88C38.2126 1836.04 30.3531 1835.69 22.3809 1834.85C22.1451 1834.82 21.9175 1834.78 21.7001 1834.71C21.1976 1834.79 20.6796 1834.79 20.1743 1834.7C19.1356 1834.51 18.077 1834.36 17.0369 1834.22C13.5481 1833.73 10.106 1833.45 6.71304 1833.37C-8.51824 1833.92 -22.7021 1838.62 -35.6007 1847.43C-45.2625 1853.9 -52.7672 1861.66 -58.075 1870.64L-58.0935 1870.63C-62.2874 1877.73 -65.1053 1885.58 -66.5183 1894.18C-69.7183 1913.62 -64.8742 1931.48 -52.0901 1947.25C-39.4888 1963.13 -22.3538 1972.67 -1.15598 1975.62C2.3573 1976.11 5.83623 1976.4 9.26401 1976.48C11.8598 1976.39 14.4203 1976.18 16.9377 1975.85C17.7529 1975.74 18.5865 1975.84 19.3342 1976.13C20.2187 1976.05 21.0982 1975.95 21.9727 1975.84C22.3963 1975.61 22.8795 1975.47 23.3981 1975.44C27.109 1975.24 30.8673 1975.15 34.6633 1975.18C44.6307 1974.98 54.8939 1975.61 65.2702 1977.06C110.504 1983.37 147.203 2003.77 174.314 2037.73C201.617 2071.56 211.987 2109.78 205.124 2151.31C198.253 2192.82 176.012 2226.5 139.038 2251.39C139.032 2251.4 139.023 2251.41 139.013 2251.42L138.994 2251.43L138.965 2251.44L138.95 2251.45L138.936 2251.46L138.922 2251.47C108.975 2271.79 75.8868 2281.87 40.3362 2281.56C32.5977 2281.72 24.7392 2281.37 16.7681 2280.53C16.5323 2280.51 16.3047 2280.46 16.0874 2280.39C15.5847 2280.47 15.0668 2280.47 14.5615 2280.38C13.5228 2280.2 12.4642 2280.04 11.4241 2279.9C7.93576 2279.42 4.49409 2279.13 1.10161 2279.05C-14.1302 2279.6 -28.3145 2284.3 -41.2135 2293.11C-50.8753 2299.58 -58.3801 2307.34 -63.6878 2316.33L-63.7063 2316.32C-67.9003 2323.42 -70.7181 2331.27 -72.1312 2339.86C-75.3311 2359.3 -70.487 2377.16 -57.7029 2392.93C-45.1017 2408.81 -27.9666 2418.35 -6.76881 2421.3C1.23392 2422.43 9.05841 2422.47 16.5062 2421.5C17.4207 2421.38 18.3583 2421.53 19.1718 2421.9L19.247 2421.89L19.3712 2421.87L19.4387 2421.86L19.5509 2421.86C31.404 2421.21 43.7408 2421.76 56.2417 2423.5C101.475 2429.82 138.175 2450.22 165.285 2484.18C192.588 2518.01 202.959 2556.23 196.096 2597.76C189.224 2639.26 166.983 2672.94 130.009 2697.84C130.004 2697.85 129.998 2697.85 129.989 2697.86L129.966 2697.87L129.952 2697.88L129.938 2697.89L129.923 2697.9L129.906 2697.9L129.893 2697.91C94.8433 2721.7 55.4891 2731.45 12.9209 2726.95C12.6851 2726.92 12.4575 2726.88 12.2401 2726.81C11.7376 2726.89 11.2196 2726.89 10.7143 2726.8C9.67565 2726.61 8.61699 2726.46 7.57688 2726.32C-13.6024 2723.38 -33.0618 2727.83 -50.242 2739.56C-59.9038 2746.03 -67.4086 2753.79 -72.7163 2762.77L-72.7348 2762.76C-76.9287 2769.86 -79.7465 2777.71 -81.1596 2786.31C-84.3595 2805.75 -79.5155 2823.61 -66.7314 2839.38C-54.1301 2855.26 -36.9951 2864.8 -15.7973 2867.74C-7.79456 2868.87 0.0299616 2868.92 7.47772 2867.94C8.7741 2867.78 10.1171 2868.14 11.087 2868.93L11.1707 2869L11.2755 2869.09C11.8157 2868.21 12.7899 2867.61 13.9381 2867.54C25.7911 2866.89 38.128 2867.45 50.6289 2869.18C95.8625 2875.5 132.562 2895.9 159.672 2929.86C186.975 2963.69 197.346 3001.91 190.483 3043.44C183.611 3084.95 161.37 3118.63 124.396 3143.52C124.383 3143.54 124.353 3143.56 124.323 3143.57L124.281 3143.59C89.2305 3167.38 49.8763 3177.13 7.30808 3172.63C7.0723 3172.6 6.8447 3172.56 6.62734 3172.49C6.12473 3172.57 5.60682 3172.57 5.10152 3172.48C4.06286 3172.3 3.00422 3172.14 1.96404 3172C-19.2152 3169.06 -38.6745 3173.51 -55.8548 3185.24C-65.5166 3191.71 -73.0214 3199.47 -78.3291 3208.45L-78.3476 3208.44C-82.5415 3215.54 -85.3594 3223.39 -86.7724 3231.99C-89.9723 3251.43 -85.1283 3269.29 -72.3442 3285.06C-62.5003 3297.47 -49.8898 3306 -34.7371 3310.55L-40.4222 3315.71C-55.4362 3310.55 -68.1268 3301.64 -78.3103 3289.08C-92.1102 3271.71 -97.3553 3252.17 -93.8577 3231.01C-90.3832 3209.97 -79.1743 3192.78 -60.5324 3179.95C-60.3881 3179.86 -60.2337 3179.77 -60.1079 3179.67C-41.3055 3167.1 -20.0347 3162.3 2.99955 3165.5C3.43508 3165.56 3.87044 3165.63 4.305 3165.69L4.3102 3165.42C46.5762 3170.72 85.5496 3161.61 120.196 3138.31C155.572 3114.38 176.837 3082.15 183.389 3042.44C189.95 3002.76 180.048 2966.18 153.976 2933.7C127.915 2901.21 92.7749 2881.7 49.5364 2875.7C37.7661 2874.06 26.135 2873.52 14.9436 2874.1C13.8301 2874.17 12.7321 2873.79 11.9474 2873.1L11.8716 2873.03C11.4229 2873.7 10.6999 2874.18 9.8468 2874.31C1.32488 2875.56 -7.65908 2875.53 -16.8617 2874.25C-39.906 2871.06 -58.6777 2860.69 -72.6975 2843.4C-86.4973 2826.03 -91.7425 2806.49 -88.2449 2785.33C-84.7705 2764.29 -73.5614 2747.1 -54.9196 2734.26C-54.7752 2734.18 -54.6208 2734.08 -54.4951 2733.99C-35.6927 2721.42 -14.4219 2716.62 8.61232 2719.82C9.04785 2719.88 9.48323 2719.94 9.91779 2720.01L9.92301 2719.74C52.189 2725.04 91.1624 2715.93 125.809 2692.63C161.185 2668.69 182.45 2636.46 189.002 2596.76C195.563 2557.07 185.66 2520.49 159.589 2488.02C133.527 2455.53 98.3877 2436.02 55.1492 2430.01C43.3789 2428.38 31.7479 2427.84 20.5564 2428.42C19.7713 2428.47 18.9938 2428.29 18.3284 2427.94C9.96941 2429.12 1.17273 2429.06 -7.83329 2427.8C-15.5172 2426.74 -22.7261 2424.88 -29.4422 2422.23Z"
    fill="#302F2D"
    fill-opacity="0.02"
  />
<path
    d="M-49.9215 2440.81L-51.7541 2442.47C-66.856 2435.42 -79.8658 2425.14 -90.6504 2411.72C-108.943 2388.9 -115.894 2363.13 -111.282 2335.14C-106.652 2307.15 -91.7023 2284.44 -66.8404 2267.6C-46.4131 2253.81 -23.8182 2247.04 0.507275 2247.41C6.84797 2247.24 13.3108 2247.57 19.8879 2248.39L19.9108 2248.38C19.9632 2248.35 20.0249 2248.32 20.0962 2248.3L20.1643 2248.28L20.2143 2248.28L20.2595 2248.27C20.3011 2248.27 20.3452 2248.27 20.3919 2248.27C20.4229 2248.27 20.455 2248.27 20.4883 2248.28C27.1158 2249.2 33.6455 2249.7 40.0718 2249.78C66.5155 2249.15 91.1512 2241.27 113.578 2226.21C142.88 2206.39 160.492 2179.62 165.943 2146.64C171.391 2113.75 163.258 2083.45 141.805 2056.62L141.767 2056.56L141.748 2056.54L141.709 2056.48L141.64 2056.39L141.581 2056.31C120.033 2029.47 90.8843 2013.32 54.9555 2008.31C48.3283 2007.39 41.7525 2006.89 35.3007 2006.81C33.2399 2006.86 31.194 2006.95 29.1655 2007.09C28.6441 2007.12 28.1262 2007.06 27.6388 2006.92C26.7575 2006.96 25.8792 2007 25.004 2007.05C24.6053 2007.3 24.1465 2007.46 23.6557 2007.51C19.2166 2007.95 14.6783 2008.13 10.0705 2008.06C3.04984 2008.25 -4.16293 2007.83 -11.4591 2006.81C-41.9718 2002.57 -66.716 1988.85 -85.0375 1966.03C-103.33 1943.21 -110.281 1917.45 -105.669 1889.45C-101.039 1861.47 -86.0894 1838.76 -61.2276 1821.92C-40.8 1808.12 -18.2046 1801.36 6.12132 1801.73C12.4616 1801.56 18.924 1801.88 25.5007 1802.71L25.5236 1802.69C25.5469 1802.68 25.572 1802.67 25.599 1802.66C25.6328 1802.64 25.6694 1802.63 25.709 1802.62C25.7624 1802.6 25.8215 1802.59 25.8867 1802.59L25.9352 1802.59L25.9929 1802.59C26.0275 1802.59 26.0636 1802.59 26.1012 1802.6C32.7273 1803.52 39.2556 1804.02 45.6806 1804.1C72.1258 1803.47 96.7629 1795.58 119.191 1780.52C148.493 1760.71 166.105 1733.94 171.556 1700.96C177.004 1668.06 168.871 1637.77 147.418 1610.94C147.355 1610.84 147.274 1610.73 147.194 1610.63C125.646 1583.79 96.4971 1567.63 60.5683 1562.63C53.9408 1561.71 47.3648 1561.21 40.9128 1561.13C38.8527 1561.18 36.806 1561.27 34.7783 1561.41C34.2569 1561.44 33.7389 1561.38 33.2516 1561.24C32.371 1561.27 31.4933 1561.32 30.6188 1561.37C30.2197 1561.62 29.7603 1561.78 29.2687 1561.83C19.6557 1562.78 9.57754 1562.53 -0.664798 1561.1C-11.8913 1559.54 -22.3368 1556.7 -31.9689 1552.59C-49.2775 1545.56 -64.0187 1534.52 -76.0091 1519.59C-94.3021 1496.77 -101.252 1471 -96.6408 1443.01C-92.0108 1415.03 -77.0609 1392.31 -52.1991 1375.48C-27.8499 1359.03 -0.420804 1352.57 29.3479 1356.29L29.3708 1356.28C29.4232 1356.25 29.485 1356.22 29.5562 1356.2L29.6243 1356.19C29.6545 1356.18 29.6862 1356.18 29.7195 1356.17C29.7611 1356.17 29.8052 1356.17 29.8519 1356.17L29.8985 1356.17L29.9483 1356.18C65.8771 1361.18 98.9318 1353.74 128.219 1334.08C157.522 1314.27 175.133 1287.49 180.585 1254.51C186.033 1221.62 177.9 1191.33 156.446 1164.49L156.418 1164.45L156.401 1164.43L156.359 1164.37L156.351 1164.35L156.226 1164.19C142.572 1147.18 125.863 1134.46 106.315 1126.15C95.5052 1121.74 83.8429 1118.66 71.3626 1116.92C60.8108 1115.45 50.3896 1115.05 40.3913 1115.73C39.3709 1115.79 38.363 1115.5 37.5738 1114.93C37.4279 1114.91 37.2839 1114.87 37.1424 1114.83C36.6353 1115.55 35.8162 1116.05 34.8815 1116.14C25.2685 1117.1 15.1903 1116.85 4.94801 1115.42C-6.27879 1113.86 -16.7247 1111.02 -26.357 1106.91C-43.6652 1099.87 -58.4061 1088.84 -70.3963 1073.91C-88.6892 1051.09 -95.6394 1025.32 -91.028 997.326C-86.3981 969.343 -71.4481 946.629 -46.5863 929.794C-22.2371 913.348 5.192 906.889 34.9607 910.607L34.9836 910.594L35.0207 910.576L35.059 910.559C35.0928 910.544 35.1294 910.531 35.169 910.521L35.2324 910.505C35.2682 910.498 35.3063 910.493 35.3466 910.49L35.3952 910.488L35.4529 910.488C35.4875 910.489 35.5236 910.492 35.5612 910.497C71.49 915.501 104.545 908.063 133.832 888.397C163.135 868.585 180.746 841.811 186.197 808.83C191.645 775.935 183.513 745.644 162.059 718.811C162.032 718.768 162.001 718.725 161.969 718.68L161.835 718.501C140.287 691.665 111.138 675.508 75.2096 670.504C64.6578 669.032 54.2366 668.636 44.2382 669.307C43.0962 669.377 41.9696 669.014 41.1479 668.297L41.0983 668.253C40.6046 669.059 39.7333 669.629 38.7287 669.728C29.1157 670.679 19.0376 670.432 8.79522 669.004C-21.7175 664.762 -46.4617 651.039 -64.7833 628.226C-83.0762 605.406 -90.0264 579.637 -85.4149 551.645C-80.785 523.662 -65.8351 500.948 -40.9733 484.113C-16.6241 467.667 10.805 461.208 40.5737 464.926L40.5966 464.914C40.6489 464.886 40.7108 464.859 40.782 464.839C40.889 464.81 41.0187 464.796 41.1741 464.815C77.1029 469.82 110.158 462.382 139.445 442.716C168.748 422.904 186.359 396.13 191.81 363.149C197.258 330.254 189.126 299.963 167.672 273.129L167.615 273.045L167.576 272.991L167.507 272.898L167.448 272.82C145.9 245.984 116.751 229.826 80.8226 224.822C70.2708 223.35 59.8496 222.955 49.8513 223.627C48.7092 223.696 47.5826 223.332 46.7609 222.616L46.7108 222.571C46.2171 223.377 45.3459 223.948 44.3415 224.046C34.7285 224.997 24.6503 224.75 14.408 223.323C-16.1047 219.08 -40.8489 205.357 -59.1705 182.544C-77.4634 159.723 -84.4136 133.955 -79.8021 105.963C-75.1722 77.98 -60.2223 55.2661 -35.3605 38.4307C-33.9033 37.4465 -32.4351 36.4981 -30.9559 35.5855L-25.7013 40.353C-27.5599 41.4671 -29.4012 42.6409 -31.225 43.874C-54.4636 59.5833 -68.4367 80.8052 -72.7273 106.957C-77.0129 132.979 -70.6221 157.018 -53.7002 178.431L-53.7186 178.422L-53.6977 178.46L-53.6577 178.527L-53.6014 178.609L-53.5681 178.654L-53.5136 178.72L-53.4633 178.777L-53.3949 178.847C-36.2303 200.051 -13.0455 212.888 15.4339 216.844C24.7487 218.139 33.8943 218.384 42.6542 217.579C43.8634 217.478 45.0471 217.825 45.9429 218.578L45.976 218.607L46.0209 218.647C46.5317 217.771 47.4714 217.162 48.5903 217.086C59.3175 216.316 70.5015 216.718 81.8786 218.293C119.672 223.543 150.389 240.614 173.189 269.018C195.989 297.423 204.626 329.416 198.905 364.109C193.185 398.802 174.579 427.016 143.646 447.928L143.629 447.946L143.615 447.956L143.593 447.969L143.572 447.979L143.53 448.002C112.616 468.88 77.792 476.8 40.0453 471.551L40.0463 471.51C12.0541 467.908 -13.7945 473.975 -36.8378 489.556C-60.0764 505.265 -74.0496 526.488 -78.3402 552.639C-82.6258 578.661 -76.2349 602.701 -59.3129 624.113L-59.3314 624.104C-59.2982 624.167 -59.2601 624.228 -59.217 624.287C-59.157 624.37 -59.0873 624.451 -59.0077 624.529C-41.8432 645.733 -18.6583 658.57 9.82108 662.525C19.1359 663.821 28.2815 664.066 37.0414 663.261C38.2506 663.159 39.4343 663.507 40.3301 664.26L40.373 664.298L40.4077 664.329C40.9184 663.452 41.8582 662.844 42.9773 662.768C53.7045 661.997 64.8885 662.399 76.2656 663.974C114.059 669.225 144.776 686.295 167.576 714.699C190.376 743.104 199.013 775.097 193.292 809.79C187.572 844.483 168.966 872.697 138.033 893.609L138.019 893.625L137.99 893.645L137.96 893.66L137.935 893.673L137.917 893.683C107.003 914.561 72.179 922.482 34.4323 917.232L34.4333 917.191C8.8856 913.904 -14.8766 918.67 -36.3501 931.373L-35.1613 932.452C-37.0199 933.565 -38.8613 934.739 -40.685 935.972C-63.9236 951.681 -77.8968 972.904 -82.1874 999.055C-86.4729 1025.08 -80.0821 1049.12 -63.1601 1070.53L-63.1786 1070.52C-63.1447 1070.58 -63.1057 1070.65 -63.0614 1070.71C-63.0021 1070.79 -62.9333 1070.87 -62.855 1070.95C-52.0368 1084.31 -38.8273 1094.35 -23.4081 1100.94C-14.8559 1104.41 -5.64046 1106.84 4.20809 1108.21C13.5229 1109.5 22.6685 1109.75 31.4284 1108.94C32.5212 1108.85 33.5932 1109.13 34.4506 1109.74C34.6034 1109.76 34.7537 1109.8 34.9018 1109.84C35.4307 1109.06 36.3194 1108.52 37.3645 1108.45C48.0917 1107.68 59.2757 1108.08 70.6528 1109.66C84.4354 1111.57 97.2768 1115.06 109.136 1120.09C130.557 1128.84 148.833 1142.56 163.729 1161.12C186.529 1189.52 195.166 1221.51 189.445 1256.21C183.725 1290.9 165.119 1319.11 134.186 1340.03L134.174 1340.04L134.155 1340.05L134.133 1340.07L134.112 1340.08L134.07 1340.1C103.156 1360.98 68.332 1368.9 30.5853 1363.65L30.5863 1363.61C2.59412 1360.01 -23.2546 1366.07 -46.2978 1381.65C-69.5364 1397.36 -83.5096 1418.59 -87.8002 1444.74C-92.0857 1470.76 -85.6949 1494.8 -68.7729 1516.21L-68.7914 1516.2C-68.7582 1516.26 -68.7201 1516.33 -68.677 1516.39C-68.617 1516.47 -68.5473 1516.55 -68.4677 1516.63C-57.6481 1529.99 -44.4352 1540.04 -29.0131 1546.62C-20.4631 1550.09 -11.2503 1552.52 -1.40474 1553.89C7.91008 1555.18 17.0557 1555.43 25.8156 1554.62C26.5631 1554.56 27.3008 1554.67 27.9669 1554.94C28.0874 1554.92 28.2106 1554.9 28.336 1554.9C32.4236 1554.6 36.5775 1554.48 40.7832 1554.52C49.2587 1554.33 57.974 1554.85 66.8056 1556.07C104.599 1561.32 135.316 1578.39 158.116 1606.8C180.916 1635.2 189.553 1667.2 183.832 1701.89C178.112 1736.58 159.506 1764.8 128.573 1785.71L128.559 1785.72L128.53 1785.74L128.5 1785.76L128.475 1785.77L128.457 1785.78C103.225 1802.82 75.3872 1811.23 45.4817 1810.89C37.0824 1811.08 28.5147 1810.57 19.791 1809.36L19.792 1809.32C15.2396 1808.73 10.744 1808.4 6.30782 1808.33C-14.5734 1808.92 -34.0818 1815.28 -51.9108 1827.34C-75.1494 1843.04 -89.1226 1864.27 -93.4132 1890.42C-97.6987 1916.44 -91.3079 1940.48 -74.3859 1961.89L-74.4044 1961.88C-74.325 1962.03 -74.2174 1962.17 -74.0808 1962.31C-56.9162 1983.51 -33.7313 1996.35 -5.25189 2000.3C-0.176207 2001.01 4.84926 2001.4 9.78943 2001.49C12.1461 2001.42 14.48 2001.28 16.7871 2001.07C17.4409 2001.01 18.0873 2001.09 18.6847 2001.29C19.4999 2001.24 20.3118 2001.18 21.1207 2001.11C21.5783 2000.81 22.1251 2000.62 22.7232 2000.58C26.8089 2000.28 30.9608 2000.16 35.1644 2000.21C43.6418 2000.02 52.3591 2000.53 61.1928 2001.75C98.9866 2007.01 129.704 2024.08 152.503 2052.48C175.303 2080.88 183.94 2112.88 178.219 2147.57C172.499 2182.26 153.893 2210.48 122.96 2231.39L122.947 2231.4L122.91 2231.43L122.887 2231.44L122.849 2231.46C97.6165 2248.5 69.7729 2256.91 39.8665 2256.57C31.468 2256.76 22.9011 2256.25 14.1782 2255.04L14.1792 2255C9.62626 2254.41 5.13006 2254.08 0.693433 2254.01C-20.1869 2254.6 -39.6953 2260.96 -57.5236 2273.02C-80.7622 2288.73 -94.7354 2309.95 -99.026 2336.1C-103.312 2362.12 -96.9207 2386.16 -79.9987 2407.57L-80.0173 2407.57C-79.9756 2407.64 -79.9262 2407.72 -79.8689 2407.79C-79.817 2407.86 -79.7586 2407.93 -79.6936 2407.99C-62.529 2429.19 -39.3442 2442.03 -10.8647 2445.99C-1.54992 2447.28 7.59571 2447.53 16.3556 2446.72C17.1031 2446.66 17.8408 2446.77 18.5069 2447.04C18.6274 2447.02 18.7506 2447 18.876 2446.99C29.6033 2446.22 40.7872 2446.62 52.1643 2448.2C89.9581 2453.45 120.675 2470.52 143.475 2498.93C166.275 2527.33 174.912 2559.32 169.191 2594.02C163.471 2628.71 144.865 2656.92 113.931 2677.83C113.926 2677.84 113.918 2677.85 113.908 2677.86L113.879 2677.88L113.858 2677.89L113.816 2677.91C82.9019 2698.79 48.0777 2706.71 10.331 2701.46L10.332 2701.42C-17.6602 2697.82 -43.5088 2703.88 -66.5521 2719.46C-89.7907 2735.17 -103.764 2756.39 -108.054 2782.55C-112.34 2808.57 -105.949 2832.61 -89.0272 2854.02L-89.0458 2854.01C-88.9663 2854.16 -88.8587 2854.3 -88.7221 2854.44C-71.5575 2875.64 -48.3726 2888.48 -19.8932 2892.43C-10.5784 2893.73 -1.43278 2893.97 7.32711 2893.17C8.53628 2893.07 9.72006 2893.41 10.6159 2894.17L10.6538 2894.2L10.6939 2894.24C11.2046 2893.36 12.1443 2892.75 13.2632 2892.68C23.9904 2891.9 35.1744 2892.31 46.5515 2893.88C84.3453 2899.13 115.062 2916.2 137.862 2944.61C160.662 2973.01 169.299 3005 163.578 3039.7C157.858 3074.39 139.252 3102.6 108.318 3123.52L108.307 3123.53L108.295 3123.54L108.262 3123.56L108.229 3123.58L108.203 3123.59C77.2891 3144.47 42.4649 3152.39 4.71821 3147.14L4.71918 3147.1C-23.273 3143.5 -49.1216 3149.56 -72.1649 3165.15C-95.4034 3180.85 -109.377 3202.08 -113.667 3228.23C-117.953 3254.25 -111.562 3278.29 -94.64 3299.7L-94.6586 3299.69C-94.5791 3299.84 -94.4715 3299.98 -94.3349 3300.12C-83.7405 3313.21 -70.8526 3323.11 -55.8419 3329.7L-61.2142 3334.57C-76.316 3327.52 -89.3258 3317.24 -100.11 3303.81C-118.403 3280.99 -125.354 3255.23 -120.742 3227.23C-116.112 3199.25 -101.162 3176.54 -76.3004 3159.7C-51.9512 3143.26 -24.5221 3136.8 5.24663 3140.52L5.26952 3140.5C5.29253 3140.49 5.31736 3140.48 5.344 3140.47L5.377 3140.45L5.39713 3140.45L5.4549 3140.43C5.56186 3140.4 5.69159 3140.38 5.84705 3140.4C41.7759 3145.41 74.8305 3137.97 104.118 3118.3C133.42 3098.49 151.032 3071.72 156.483 3038.74C161.931 3005.84 153.798 2975.55 132.345 2948.72L132.307 2948.66L132.288 2948.63L132.249 2948.58L132.18 2948.49L132.121 2948.41C110.573 2921.57 81.4243 2905.42 45.4955 2900.41C34.9437 2898.94 24.5225 2898.54 14.5241 2899.22C13.3821 2899.28 12.2555 2898.92 11.4338 2898.2L11.3838 2898.16C10.89 2898.97 10.0189 2899.54 9.01438 2899.63C-0.598608 2900.59 -10.6767 2900.34 -20.9191 2898.91C-51.4318 2894.67 -76.176 2880.95 -94.4976 2858.13C-112.79 2835.31 -119.741 2809.54 -115.129 2781.55C-110.499 2753.57 -95.5494 2730.85 -70.6876 2714.02C-46.3384 2697.57 -18.9093 2691.12 10.8594 2694.83L10.8823 2694.82L10.8996 2694.81L10.9268 2694.8C10.9688 2694.78 11.0157 2694.76 11.0677 2694.75C11.1747 2694.72 11.3044 2694.7 11.4599 2694.72C47.3887 2699.73 80.4433 2692.29 109.731 2672.62C139.033 2652.81 156.645 2626.04 162.096 2593.06C167.544 2560.16 159.411 2529.87 137.958 2503.04C137.896 2502.94 137.816 2502.84 137.735 2502.73C116.188 2475.89 87.0371 2459.73 51.1083 2454.73C40.5565 2453.26 30.1353 2452.86 20.137 2453.53C19.4293 2453.58 18.7277 2453.45 18.1008 2453.18L18.0429 2453.19C8.42988 2454.14 -1.64828 2453.89 -11.8906 2452.47C-25.7842 2450.53 -38.4817 2446.64 -49.9215 2440.81Z"
    fill="#302F2D"
    fill-opacity="0.02"
  />
<path
    d="M-0.073933 2229.17C-26.5184 2229.79 -51.1548 2237.68 -73.5822 2252.74C-102.884 2272.55 -120.496 2299.32 -125.947 2332.3C-131.395 2365.2 -123.262 2395.49 -101.809 2422.32L-101.753 2422.41L-101.666 2422.53L-101.585 2422.63C-80.0369 2449.47 -50.8884 2465.63 -14.9596 2470.63C-4.40777 2472.1 6.01339 2472.5 16.0117 2471.83C16.7194 2471.78 17.4212 2471.91 18.0482 2472.18L18.1059 2472.17C27.7188 2471.22 37.797 2471.47 48.0393 2472.9C78.552 2477.14 103.296 2490.86 121.618 2513.67C139.911 2536.49 146.861 2562.26 142.25 2590.25C137.62 2618.24 122.67 2640.95 97.8079 2657.79C73.4586 2674.23 46.0295 2680.69 16.2608 2676.97L16.2379 2676.99L16.1901 2677.01L16.1692 2677.02L16.1458 2677.03L16.1073 2677.04L16.0525 2677.06C15.9456 2677.09 15.8159 2677.1 15.6604 2677.08C-20.2684 2672.08 -53.323 2679.52 -82.6107 2699.18C-111.913 2719 -129.525 2745.77 -134.976 2778.75C-140.424 2811.64 -132.291 2841.94 -110.837 2868.77L-110.793 2868.84L-110.75 2868.9L-110.742 2868.91L-110.682 2868.99L-110.613 2869.08C-89.0654 2895.92 -59.9168 2912.07 -23.988 2917.08C-13.4363 2918.55 -3.01506 2918.94 6.98324 2918.27C8.12536 2918.2 9.25187 2918.57 10.0736 2919.28L10.1237 2919.33C10.6174 2918.52 11.4886 2917.95 12.4931 2917.85C22.106 2916.9 32.1842 2917.15 42.4265 2918.58C72.9392 2922.82 97.6835 2936.54 116.005 2959.36C134.298 2982.18 141.248 3007.94 136.637 3035.94C132.007 3063.92 117.057 3086.63 92.195 3103.47C67.8458 3119.91 40.4167 3126.37 10.648 3122.66L10.6251 3122.67C10.5727 3122.7 10.511 3122.72 10.4397 3122.74C10.3328 3122.77 10.203 3122.79 10.0476 3122.77C-25.8813 3117.76 -58.9359 3125.2 -88.2235 3144.87C-117.526 3164.68 -135.138 3191.45 -140.589 3224.43C-146.037 3257.33 -137.904 3287.62 -116.45 3314.45C-116.388 3314.55 -116.307 3314.65 -116.226 3314.76C-104.919 3328.84 -91.5186 3339.99 -76.1439 3348.12L-81.4116 3352.9C-96.8825 3344.39 -110.437 3332.93 -121.968 3318.56C-144.768 3290.16 -153.404 3258.17 -147.684 3223.47C-141.963 3188.78 -123.357 3160.57 -92.4238 3139.65L-92.4104 3139.64C-92.3967 3139.63 -92.3676 3139.61 -92.3507 3139.6L-92.3266 3139.59L-92.3081 3139.58C-61.3945 3118.7 -26.5703 3110.78 11.1764 3116.03L11.1755 3116.07C39.1676 3119.67 65.0163 3113.61 88.0596 3098.03C111.298 3082.32 125.271 3061.09 129.562 3034.94C133.847 3008.92 127.457 2984.88 110.535 2963.47L110.553 2963.48C110.474 2963.33 110.366 2963.19 110.229 2963.05C93.0649 2941.85 69.8801 2929.01 41.4006 2925.06C32.0858 2923.76 22.9402 2923.52 14.1803 2924.32C12.9711 2924.42 11.7874 2924.07 10.8916 2923.32L10.8135 2923.25C10.3028 2924.13 9.36309 2924.74 8.24424 2924.81C-2.48298 2925.58 -13.667 2925.18 -25.0441 2923.61C-62.8379 2918.36 -93.5548 2901.29 -116.355 2872.88C-139.155 2844.48 -147.791 2812.48 -142.071 2777.79C-136.35 2743.1 -117.745 2714.88 -86.811 2693.97L-86.8025 2693.96L-86.7909 2693.95L-86.7724 2693.94L-86.755 2693.93L-86.7213 2693.91L-86.6953 2693.9C-55.7817 2673.02 -20.9575 2665.1 16.7892 2670.35L16.7883 2670.39C44.7804 2673.99 70.6291 2667.92 93.6724 2652.34C116.911 2636.63 130.884 2615.41 135.175 2589.26C139.46 2563.24 133.069 2539.2 116.147 2517.79L116.166 2517.8C116.087 2517.65 115.979 2517.5 115.842 2517.37C98.6778 2496.17 75.4929 2483.33 47.0134 2479.37C37.6986 2478.08 28.553 2477.83 19.7931 2478.64C19.0456 2478.7 18.3079 2478.59 17.6418 2478.32C17.5212 2478.34 17.3981 2478.36 17.2727 2478.37C6.54546 2479.14 -4.63845 2478.74 -16.0156 2477.16C-36.0122 2474.38 -54.0278 2468.3 -69.9377 2458.97L-71.9516 2460.8C-87.4225 2452.3 -100.977 2440.83 -112.508 2426.46C-135.308 2398.06 -143.944 2366.07 -138.224 2331.37C-132.503 2296.68 -113.897 2268.47 -82.9638 2247.56L-82.9504 2247.54L-82.9184 2247.52L-82.8907 2247.5L-82.8666 2247.49L-82.8481 2247.48C-57.6162 2230.44 -29.779 2222.03 0.126064 2222.37C8.52571 2222.18 17.0937 2222.69 25.8177 2223.9L25.8168 2223.94C30.3692 2224.53 34.8657 2224.86 39.302 2224.93C60.1828 2224.34 79.6909 2217.98 97.5196 2205.93C120.758 2190.22 134.731 2169 139.022 2142.84C143.307 2116.82 136.917 2092.78 119.995 2071.37L120.013 2071.38C119.934 2071.23 119.826 2071.09 119.689 2070.95C102.525 2049.75 79.3401 2036.91 50.8606 2032.96C45.7855 2032.25 40.7606 2031.86 35.8209 2031.78C33.4637 2031.84 31.1292 2031.98 28.8216 2032.19C28.1679 2032.25 27.5218 2032.17 26.9245 2031.97C26.109 2032.02 25.2967 2032.08 24.4875 2032.15C24.0301 2032.45 23.4834 2032.64 22.8855 2032.69C18.7992 2032.98 14.6465 2033.1 10.4421 2033.06C1.9654 2033.25 -6.75113 2032.73 -15.584 2031.51C-53.3779 2026.26 -84.0948 2009.19 -106.895 1980.78C-129.695 1952.38 -138.331 1920.39 -132.611 1885.69C-126.89 1851 -108.285 1822.79 -77.351 1801.87L-77.3308 1801.85L-77.3124 1801.84L-77.295 1801.83L-77.2613 1801.81L-77.2353 1801.8C-52.0028 1784.76 -24.1649 1776.35 5.74099 1776.69C14.1399 1776.5 22.7072 1777.01 31.4305 1778.22L31.4296 1778.26C35.9822 1778.85 40.479 1779.18 44.9154 1779.25C65.796 1778.66 85.3039 1772.3 103.132 1760.24C126.371 1744.54 140.344 1723.31 144.635 1697.16C148.92 1671.14 142.529 1647.1 125.607 1625.69L125.626 1625.7C125.547 1625.55 125.439 1625.41 125.302 1625.27C108.138 1604.07 84.9529 1591.23 56.4735 1587.28C51.3973 1586.57 46.3715 1586.18 41.4309 1586.09C39.0752 1586.16 36.7406 1586.3 34.4344 1586.51C33.7807 1586.57 33.1346 1586.49 32.5371 1586.29C31.7225 1586.34 30.9109 1586.4 30.1026 1586.47C29.6447 1586.77 29.0973 1586.96 28.4985 1587C17.7713 1587.77 6.58735 1587.37 -4.78978 1585.8C-18.5687 1583.88 -31.4069 1580.4 -43.2637 1575.37C-64.6888 1566.62 -82.9677 1552.9 -97.8663 1534.34C-120.666 1505.93 -129.303 1473.94 -123.582 1439.25C-117.862 1404.55 -99.2562 1376.34 -68.3226 1355.43C-68.3172 1355.42 -68.309 1355.41 -68.2993 1355.4L-68.2793 1355.39L-68.2494 1355.38L-68.2294 1355.37L-68.2068 1355.35C-37.2932 1334.48 -2.46904 1326.56 35.2777 1331.8L35.2767 1331.85C63.2689 1335.45 89.1176 1329.38 112.161 1313.8C135.399 1298.09 149.373 1276.87 153.663 1250.72C157.949 1224.69 151.558 1200.65 134.636 1179.24L134.654 1179.25C134.575 1179.1 134.467 1178.96 134.331 1178.83C123.511 1165.46 110.299 1155.42 94.8764 1148.83C86.3266 1145.36 77.113 1142.93 67.2677 1141.57C57.9529 1140.27 48.8073 1140.03 40.0474 1140.83C38.9546 1140.92 37.8828 1140.65 37.0254 1140.04C36.8726 1140.01 36.7219 1139.97 36.5738 1139.93C36.0449 1140.72 35.1563 1141.25 34.1113 1141.32C23.3841 1142.09 12.2001 1141.69 0.823023 1140.12C-12.9576 1138.2 -25.7974 1134.72 -37.6555 1129.68C-59.0786 1120.94 -77.356 1107.21 -92.2535 1088.66C-115.053 1060.25 -123.69 1028.26 -117.969 993.565C-112.249 958.871 -93.6434 930.658 -62.7097 909.746C-62.7015 909.732 -62.6861 909.72 -62.6686 909.711L-62.6365 909.694L-62.6111 909.681L-62.5939 909.671C-31.6803 888.793 3.14378 880.873 40.8905 886.123L40.8896 886.164C68.8817 889.765 94.7304 883.699 117.774 868.117C141.012 852.408 154.985 831.186 159.276 805.035C163.562 779.012 157.171 754.973 140.249 733.561L140.267 733.57L140.223 733.492C140.194 733.444 140.162 733.397 140.127 733.351C140.105 733.323 140.083 733.295 140.059 733.267C140.023 733.226 139.985 733.185 139.944 733.145C122.779 711.941 99.5941 699.103 71.1147 695.148C61.7999 693.852 52.6543 693.608 43.8944 694.413C42.6852 694.514 41.5015 694.167 40.6057 693.413L40.5281 693.345C40.0174 694.221 39.0776 694.83 37.9585 694.906C27.2313 695.677 16.0473 695.275 4.67023 693.7C-33.1236 688.449 -63.8405 671.379 -86.6405 642.974C-109.44 614.569 -118.077 582.576 -112.356 547.884C-106.636 513.19 -88.0304 484.977 -57.0967 464.065L-57.0833 464.049C-57.0708 464.04 -57.0443 464.023 -57.0286 464.016L-56.9995 464.001L-56.981 463.99C-26.0674 443.112 8.75677 435.192 46.5035 440.442L46.5025 440.482C74.4947 444.084 100.343 438.018 123.387 422.437C146.625 406.728 160.598 385.505 164.889 359.354C169.175 333.331 162.784 309.292 145.862 287.879L145.88 287.888C145.801 287.739 145.693 287.597 145.557 287.463C128.392 266.26 105.207 253.422 76.7277 249.467C67.4129 248.171 58.2673 247.927 49.5074 248.731C48.2982 248.833 47.1145 248.486 46.2187 247.732L46.1867 247.704L46.1406 247.663C45.6299 248.539 44.6902 249.148 43.5713 249.224C32.8441 249.995 21.6601 249.593 10.283 248.018C-27.5108 242.767 -58.2277 225.697 -81.0276 197.292C-103.828 168.887 -112.464 136.895 -106.744 102.202C-101.023 67.5083 -82.4176 39.2947 -51.4839 18.3826C-51.4839 18.3826 -51.4729 18.3684 -51.465 18.3621C-51.4498 18.3504 -51.4298 18.3403 -51.4108 18.3311L-51.386 18.3186L-51.3682 18.3084L-51.1314 18.1489L-50.5801 17.7793L-45.4833 22.4038C-46.085 22.7954 -46.6851 23.1924 -47.2836 23.5945C-76.5859 43.4063 -94.1976 70.1802 -99.6488 103.162C-105.097 136.056 -96.9639 166.348 -75.5102 193.181L-75.4656 193.248L-75.423 193.308L-75.4148 193.319L-75.348 193.408L-75.2862 193.49C-53.7383 220.326 -24.5898 236.484 11.339 241.488C21.8908 242.96 32.312 243.355 42.3103 242.684C43.4524 242.615 44.579 242.978 45.4007 243.695L45.4507 243.739C45.9445 242.934 46.8157 242.363 47.8201 242.265C57.4331 241.313 67.5112 241.56 77.7536 242.988C108.266 247.23 133.011 260.954 151.332 283.767C169.625 306.587 176.575 332.355 171.964 360.347C167.334 388.33 152.384 411.044 127.522 427.879C103.173 444.326 75.7438 450.784 45.9751 447.066L45.9522 447.079L45.8832 447.112C45.8477 447.127 45.8089 447.141 45.7668 447.153C45.7021 447.171 45.629 447.183 45.5469 447.186C45.4934 447.187 45.436 447.185 45.3747 447.177C9.44586 442.173 -23.6088 449.611 -52.8964 469.276C-82.1987 489.088 -99.8105 515.863 -105.262 548.844C-110.71 581.738 -102.577 612.03 -81.123 638.863L-81.0926 638.909L-81.0601 638.956L-81.0381 638.986L-80.9723 639.076L-80.899 639.172C-59.3512 666.009 -30.2026 682.166 5.72625 687.17C16.278 688.642 26.6992 689.037 36.6976 688.366C37.8396 688.297 38.9662 688.66 39.7879 689.377L39.8375 689.421C40.3312 688.615 41.2025 688.044 42.2071 687.946C51.8201 686.994 61.8983 687.241 72.1406 688.669C102.653 692.911 127.398 706.635 145.719 729.448C164.012 752.268 170.962 778.037 166.351 806.029C161.721 834.011 146.771 856.726 121.909 873.561C97.5599 890.007 70.1308 896.465 40.3621 892.747L40.3392 892.76L40.268 892.794C40.2331 892.809 40.1951 892.823 40.1538 892.834L40.1102 892.845L40.0476 892.857L40.016 892.861L39.9668 892.865L39.9161 892.867L39.8718 892.867L39.8268 892.865L39.8082 892.863L39.7617 892.858C4.79371 887.988 -27.4517 894.903 -56.1516 913.406L-54.9433 914.502L-55.5704 914.913C-55.9621 915.17 -56.3532 915.43 -56.7436 915.693C-86.0459 935.505 -103.658 962.279 -109.109 995.26C-114.557 1028.15 -106.424 1058.45 -84.9702 1085.28L-84.9256 1085.35L-84.883 1085.41L-84.8748 1085.42L-84.808 1085.51L-84.7462 1085.59C-71.0879 1102.6 -54.3759 1115.32 -34.8191 1123.63C-24.015 1128.03 -12.3594 1131.11 0.113214 1132.85C10.665 1134.32 21.0862 1134.72 31.0846 1134.05C32.1048 1133.99 33.1126 1134.27 33.9017 1134.84C34.0478 1134.87 34.1916 1134.9 34.3333 1134.94C34.8404 1134.22 35.6597 1133.72 36.5944 1133.63C46.2073 1132.68 56.2855 1132.92 66.5278 1134.35C77.7549 1135.91 88.201 1138.76 97.8335 1142.87C115.141 1149.9 129.882 1160.94 141.872 1175.86C160.165 1198.69 167.115 1224.45 162.504 1252.45C157.874 1280.43 142.924 1303.14 118.062 1319.98C93.7129 1336.42 66.2838 1342.88 36.5151 1339.16L36.4922 1339.18C36.4677 1339.19 36.4412 1339.2 36.4126 1339.22C36.38 1339.23 36.3448 1339.24 36.3068 1339.25C36.1998 1339.28 36.0701 1339.3 35.9147 1339.28C-0.0141424 1334.27 -33.0687 1341.71 -62.3564 1361.37C-91.6587 1381.19 -109.27 1407.96 -114.722 1440.94C-120.17 1473.84 -112.037 1504.13 -90.5831 1530.96L-90.5527 1531.01L-90.5201 1531.05L-90.4981 1531.08L-90.4323 1531.17L-90.359 1531.27C-76.7016 1548.28 -59.9909 1561 -40.4356 1569.31C-29.6304 1573.71 -17.9737 1576.8 -5.49954 1578.53C5.05223 1580.01 15.4734 1580.4 25.4717 1579.73C26.1795 1579.69 26.8812 1579.81 27.5082 1580.08L27.5659 1580.07C32.0059 1579.63 36.5453 1579.45 41.1541 1579.52C48.1742 1579.33 55.3851 1579.75 62.6806 1580.77C93.1933 1585.01 117.938 1598.73 136.259 1621.55C154.552 1644.37 161.502 1670.13 156.891 1698.13C152.261 1726.11 137.311 1748.82 112.449 1765.66C92.0214 1779.46 69.4259 1786.22 45.0998 1785.85C38.7596 1786.02 32.2973 1785.7 25.7208 1784.87L25.6979 1784.89L25.6501 1784.91L25.6292 1784.92L25.6058 1784.93L25.5673 1784.94L25.5125 1784.96C25.4056 1784.99 25.2759 1785.01 25.1204 1784.99C18.4949 1784.06 11.9672 1783.56 5.54278 1783.48C-20.9031 1784.11 -45.5408 1792 -67.9694 1807.06C-97.2717 1826.87 -114.883 1853.64 -120.335 1886.62C-125.783 1919.52 -117.65 1949.81 -96.1961 1976.64L-96.1388 1976.73L-96.1006 1976.78L-96.0645 1976.83L-96.0311 1976.87L-95.9719 1976.95C-74.4241 2003.79 -45.2756 2019.95 -9.34677 2024.95C-2.71835 2025.87 3.85855 2026.37 10.3115 2026.45C12.3712 2026.4 14.4159 2026.31 16.4433 2026.17C16.9645 2026.14 17.4825 2026.2 17.9697 2026.34C18.8512 2026.31 19.7295 2026.26 20.6049 2026.21C21.0035 2025.96 21.4624 2025.8 21.953 2025.76C26.3917 2025.32 30.9295 2025.13 35.5369 2025.2C42.558 2025.01 49.7712 2025.43 57.0678 2026.45C87.5805 2030.69 112.325 2044.42 130.646 2067.23C148.939 2090.05 155.889 2115.82 151.278 2143.81C146.648 2171.79 131.698 2194.51 106.836 2211.34C86.4092 2225.14 63.8144 2231.91 39.4891 2231.53C33.1483 2231.7 26.6853 2231.38 20.108 2230.56L20.0851 2230.57C20.0327 2230.6 19.971 2230.62 19.8997 2230.64C19.7928 2230.67 19.663 2230.69 19.5075 2230.67C12.8807 2229.74 6.35171 2229.24 -0.073933 2229.17Z"
    fill="#302F2D"
    fill-opacity="0.02"
  />
<path
    d="M-89.7222 2476.92L-91.852 2478.86C-107.896 2469.1 -122.083 2456.54 -134.318 2441.21C-161.621 2407.38 -171.991 2369.16 -165.128 2327.63C-158.257 2286.13 -136.016 2252.45 -99.0417 2227.55L-99.0314 2227.54L-98.9988 2227.52L-98.9687 2227.5L-98.9555 2227.49L-98.9389 2227.49L-98.9259 2227.48C-68.9793 2207.15 -35.8907 2197.08 -0.340048 2197.38C7.39843 2197.23 15.2568 2197.57 23.2278 2198.41C23.4636 2198.44 23.6912 2198.48 23.9086 2198.55C24.4112 2198.47 24.9291 2198.47 25.4344 2198.56C26.473 2198.75 27.5317 2198.9 28.5719 2199.05C32.0604 2199.53 35.5028 2199.81 38.8955 2199.9C54.1271 2199.34 68.3106 2194.64 81.2094 2185.83C90.8712 2179.36 98.376 2171.6 103.684 2162.62L103.702 2162.63C107.896 2155.53 110.714 2147.68 112.127 2139.08C115.327 2119.64 110.483 2101.78 97.6988 2086.01C85.0976 2070.13 67.9625 2060.59 46.7647 2057.65C43.2511 2057.15 39.7719 2056.86 36.3438 2056.78C33.7483 2056.87 31.1881 2057.09 28.671 2057.42C27.8559 2057.52 27.0224 2057.42 26.2747 2057.13C25.3902 2057.21 24.5105 2057.31 23.636 2057.43C23.2123 2057.65 22.7293 2057.79 22.2106 2057.82C18.499 2058.03 14.7399 2058.11 10.9432 2058.08C0.976551 2058.28 -9.28595 2057.65 -19.6614 2056.21C-64.8951 2049.89 -101.595 2029.49 -128.705 1995.53C-156.008 1961.7 -166.378 1923.48 -159.516 1881.95C-152.644 1840.44 -130.403 1806.76 -93.4289 1781.87C-93.4227 1781.86 -93.413 1781.85 -93.4013 1781.84L-93.3805 1781.83L-93.3571 1781.82L-93.3414 1781.81L-93.3275 1781.8L-93.3131 1781.8C-63.3664 1761.47 -30.2777 1751.39 5.27308 1751.7C13.0115 1751.54 20.8697 1751.89 28.8406 1752.73C29.0764 1752.76 29.304 1752.8 29.5214 1752.87C30.0239 1752.79 30.5419 1752.79 31.0472 1752.88C32.0858 1753.07 33.1445 1753.22 34.1847 1753.36C37.6732 1753.85 41.1156 1754.13 44.5083 1754.21C59.7399 1753.66 73.9234 1748.96 86.8222 1740.15C96.484 1733.68 103.989 1725.92 109.297 1716.94L109.315 1716.95C113.509 1709.85 116.327 1702 117.74 1693.4C120.94 1673.96 116.096 1656.1 103.312 1640.33C90.7104 1624.45 73.5753 1614.91 52.3775 1611.96C48.8646 1611.47 45.386 1611.18 41.9585 1611.1C39.3627 1611.19 36.8012 1611.4 34.2838 1611.73C33.4686 1611.84 32.635 1611.74 31.8873 1611.45C31.0036 1611.53 30.1248 1611.63 29.2511 1611.74C28.8269 1611.97 28.3431 1612.11 27.8236 1612.14C15.9706 1612.79 3.63376 1612.23 -8.86719 1610.5C-25.2702 1608.2 -40.551 1604.06 -54.6592 1598.09C-80.2183 1587.63 -101.988 1571.24 -119.676 1549.09C-146.98 1515.25 -157.35 1477.04 -150.487 1435.5C-143.616 1394 -121.374 1360.32 -84.4004 1335.42L-84.3872 1335.41L-84.3754 1335.4L-84.3576 1335.39L-84.3433 1335.38L-84.3072 1335.36L-84.2846 1335.35C-49.2346 1311.56 -9.8804 1301.81 32.6878 1306.32C32.9236 1306.34 33.1512 1306.39 33.3686 1306.45C33.8712 1306.37 34.3891 1306.37 34.8944 1306.46C35.933 1306.65 36.9917 1306.8 38.0319 1306.95C59.2112 1309.88 78.6705 1305.44 95.8507 1293.7C105.513 1287.24 113.017 1279.48 118.325 1270.49L118.344 1270.5C122.537 1263.4 125.355 1255.55 126.768 1246.96C129.968 1227.52 125.124 1209.65 112.34 1193.88C104.419 1183.9 94.7064 1176.43 83.3194 1171.52C77.0834 1169.01 70.3606 1167.25 63.1718 1166.25C55.1691 1165.13 47.3446 1165.08 39.8968 1166.05C38.7129 1166.21 37.4905 1165.92 36.5485 1165.27C36.3489 1165.23 36.1525 1165.18 35.9607 1165.11C35.4014 1165.88 34.4925 1166.4 33.4364 1166.46C21.5833 1167.11 9.24653 1166.55 -3.2544 1164.81C-19.6567 1162.52 -34.9368 1158.38 -49.0445 1152.41C-74.6044 1141.94 -96.3751 1125.56 -114.064 1103.41C-141.367 1069.57 -151.737 1031.35 -144.874 989.822C-138.003 948.316 -115.761 914.637 -78.7876 889.742C-78.7822 889.733 -78.7744 889.725 -78.7649 889.718L-78.751 889.709L-78.7174 889.692L-78.6966 889.682L-78.6718 889.668C-43.6218 865.881 -4.26763 856.128 38.3006 860.634C38.5364 860.659 38.764 860.705 38.9814 860.77C39.4839 860.69 40.0019 860.69 40.5072 860.78C41.5458 860.967 42.6045 861.12 43.6447 861.265C64.824 864.202 84.2833 859.755 101.464 848.02C111.125 841.554 118.63 833.794 123.938 824.809L123.956 824.819C128.15 817.719 130.968 809.868 132.381 801.274C135.581 781.833 130.737 763.971 117.953 748.2C105.352 732.323 88.2166 722.782 67.0188 719.836C59.0161 718.71 51.1916 718.661 43.7438 719.636C42.4474 719.804 41.1044 719.443 40.1345 718.652L40.0298 718.564L39.9948 718.533L39.9465 718.49C39.4063 719.369 38.432 719.976 37.2836 720.044C25.4306 720.694 13.0938 720.136 0.59281 718.397C-44.6408 712.08 -81.3404 691.68 -108.451 657.724C-135.754 623.89 -146.124 585.672 -139.261 544.14C-132.39 502.635 -110.148 468.956 -73.1746 444.061C-73.1658 444.046 -73.15 444.035 -73.1318 444.025L-73.1016 444.01L-73.0884 444.003L-73.0718 443.994L-73.0588 443.987C-38.0088 420.2 1.34541 410.447 43.9136 414.953C44.1494 414.978 44.377 415.024 44.5944 415.089C45.097 415.009 45.6149 415.009 46.1202 415.099C47.1588 415.286 48.2175 415.439 49.2577 415.583C70.437 418.521 89.8963 414.074 107.077 402.339C116.738 395.873 124.243 388.114 129.551 379.128L129.569 379.137C133.763 372.038 136.581 364.187 137.994 355.593C141.194 336.152 136.35 318.29 123.566 302.519C110.965 286.642 93.8296 277.101 72.6318 274.155C64.6291 273.029 56.8045 272.98 49.3568 273.955C48.0604 274.123 46.7174 273.762 45.7475 272.971L45.6201 272.863L45.559 272.808C45.0188 273.688 44.0446 274.294 42.8964 274.362C31.0434 275.011 18.7065 274.454 6.2056 272.715C-39.028 266.398 -75.7276 245.999 -102.838 212.042C-130.141 178.208 -140.511 139.99 -133.649 98.4583C-126.934 57.8997 -105.542 24.8147 -70.0691 0.0964486L-64.9896 4.70509C-99.3902 28.5198 -120.104 60.3662 -126.555 99.4614C-133.116 139.144 -123.213 175.722 -97.1418 208.195C-71.0801 240.685 -35.9404 260.198 7.29811 266.204C19.0684 267.842 30.6995 268.378 41.8909 267.795C43.0044 267.734 44.1024 268.105 44.8871 268.803L44.9629 268.871C45.4115 268.198 46.1346 267.718 46.9877 267.588C55.5096 266.335 64.4936 266.367 73.6963 267.651C96.7405 270.836 115.512 281.212 129.532 298.499C143.332 315.874 148.577 335.409 145.079 356.571C141.605 377.612 130.396 394.802 111.754 407.634C111.61 407.717 111.455 407.816 111.33 407.907C92.5272 420.483 71.2564 425.281 48.2222 422.079C47.7867 422.019 47.3513 421.956 46.9167 421.89L46.9115 422.16C4.64549 416.859 -34.3279 425.967 -68.9742 449.273C-104.35 473.205 -125.616 505.435 -132.168 545.144C-138.728 584.825 -128.826 621.405 -102.755 653.877C-76.6928 686.367 -41.5532 705.88 1.68535 711.886C13.4557 713.524 25.0867 714.061 36.2781 713.477C37.3916 713.416 38.4896 713.787 39.2743 714.485L39.3077 714.515L39.3496 714.552C39.7983 713.879 40.5214 713.399 41.3747 713.269C49.8966 712.016 58.8806 712.049 68.0833 713.332C91.1275 716.517 109.899 726.894 123.919 744.18C137.719 761.555 142.964 781.09 139.466 802.252C135.992 823.292 124.783 840.483 106.141 853.315L106.056 853.365L105.997 853.401L105.953 853.429L105.891 853.468L105.818 853.518L105.717 853.588C86.9142 866.164 65.6434 870.962 42.6092 867.761L42.365 867.727L42.0796 867.686L41.7964 867.645L41.3037 867.571L41.2985 867.841C-0.967517 862.54 -39.9409 871.648 -74.5872 894.954C-74.9505 895.2 -75.3123 895.446 -75.6726 895.694L-74.4496 896.803C-108.85 920.618 -129.564 952.465 -136.015 991.56C-142.576 1031.24 -132.673 1067.82 -106.602 1100.29C-90.0216 1120.96 -69.7673 1136.38 -46.0909 1146.41C-33.0451 1151.75 -18.9769 1155.48 -3.92765 1157.57C7.84266 1159.21 19.4737 1159.74 30.6651 1159.16C31.6557 1159.1 32.6341 1159.39 33.3905 1159.95C33.5519 1159.97 33.7109 1160.01 33.8668 1160.05C34.3189 1159.48 34.9867 1159.07 35.7619 1158.95C44.2838 1157.7 53.2678 1157.73 62.4705 1159.01C71.0588 1160.2 79.0537 1162.39 86.4303 1165.56C99.6045 1170.87 110.863 1179.24 120.072 1190.6C133.872 1207.97 139.117 1227.51 135.619 1248.67C132.145 1269.71 120.936 1286.9 102.294 1299.73C102.15 1299.81 101.995 1299.91 101.87 1300.01C83.0672 1312.58 61.7964 1317.38 38.7622 1314.18C38.3267 1314.12 37.8913 1314.05 37.4567 1313.99L37.4515 1314.26C-4.8145 1308.96 -43.7878 1318.06 -78.4342 1341.37C-113.81 1365.3 -135.076 1397.53 -141.628 1437.24C-148.188 1476.92 -138.286 1513.5 -112.215 1545.98C-95.6308 1566.65 -75.3712 1582.07 -51.6882 1592.1C-38.6467 1597.44 -24.5838 1601.16 -9.54045 1603.25C2.22987 1604.89 13.8609 1605.42 25.0523 1604.84C25.8374 1604.8 26.6148 1604.97 27.2802 1605.32C31.9496 1604.66 36.7555 1604.39 41.6582 1604.5C47.1882 1604.31 52.8621 1604.63 58.6233 1605.43C81.6675 1608.62 100.439 1618.99 114.459 1636.28C128.259 1653.65 133.504 1673.19 130.006 1694.35C126.532 1715.39 115.323 1732.58 96.6811 1745.41L96.5959 1745.46L96.5367 1745.5L96.4931 1745.53L96.4314 1745.57L96.3575 1745.62L96.2566 1745.69C80.646 1756.13 63.3343 1761.21 44.7241 1760.8C39.2537 1760.98 33.6647 1760.68 27.9679 1759.89L27.1651 1759.77L26.9616 1759.74L26.6625 1759.7L26.6572 1759.97C19.4223 1759.06 12.2838 1758.58 5.24702 1758.51C-26.8598 1759.17 -56.7923 1768.72 -84.0472 1787.05C-119.423 1810.98 -140.689 1843.21 -147.241 1882.92C-153.801 1922.6 -143.899 1959.18 -117.828 1991.66C-91.7659 2024.15 -56.6262 2043.66 -13.3876 2049.66C-5.24534 2050.8 2.83031 2051.4 10.7399 2051.48C12.5112 2051.44 14.2729 2051.38 16.0238 2051.29C16.4697 2051.26 16.913 2051.31 17.3348 2051.41C18.3478 2051.38 19.3574 2051.35 20.3637 2051.3C20.6004 2051.19 20.8542 2051.12 21.1206 2051.08C25.9609 2050.37 30.9503 2050.07 36.0441 2050.18C41.5741 2050 47.2494 2050.31 53.0105 2051.11C76.0548 2054.3 94.8264 2064.67 108.846 2081.96C122.646 2099.34 127.891 2118.87 124.394 2140.03C120.919 2161.07 109.71 2178.26 91.0683 2191.1C91.0361 2191.11 91.0033 2191.13 90.9705 2191.15C90.9212 2191.18 90.8717 2191.21 90.8236 2191.25C90.7603 2191.29 90.6993 2191.33 90.6438 2191.37C75.0336 2201.81 57.7224 2206.89 39.1127 2206.48C33.6418 2206.66 28.0524 2206.36 22.3551 2205.57C21.9196 2205.51 21.4842 2205.45 21.0496 2205.38L21.0444 2205.65C13.8099 2204.74 6.6719 2204.26 -0.364461 2204.19C-32.4717 2204.85 -62.4047 2214.4 -89.66 2232.73C-125.036 2256.67 -146.301 2288.9 -152.853 2328.61C-159.414 2368.29 -149.512 2404.87 -123.44 2437.34C-97.3787 2469.83 -62.239 2489.34 -19.0005 2495.35C-7.23014 2496.99 4.40089 2497.52 15.5923 2496.94C16.3774 2496.9 17.1548 2497.07 17.8202 2497.42C26.1793 2496.24 34.9759 2496.3 43.982 2497.56C67.0263 2500.74 85.7979 2511.12 99.8177 2528.41C113.618 2545.78 118.863 2565.32 115.365 2586.48C111.891 2607.52 100.682 2624.71 82.0398 2637.54C81.8955 2637.62 81.7411 2637.72 81.6153 2637.81C62.813 2650.39 41.5422 2655.19 18.5079 2651.99L17.7051 2651.87L17.5016 2651.84L17.2025 2651.8L17.1972 2652.07C-25.0688 2646.77 -64.0422 2655.87 -98.6885 2679.18C-134.064 2703.11 -155.33 2735.34 -161.882 2775.05C-168.443 2814.73 -158.54 2851.31 -132.469 2883.78C-106.407 2916.27 -71.2675 2935.79 -28.0289 2941.79C-16.2586 2943.43 -4.6276 2943.97 6.56382 2943.38C7.67727 2943.32 8.77533 2943.69 9.55999 2944.39L9.6358 2944.46C10.0845 2943.79 10.8075 2943.31 11.6607 2943.18C20.1825 2941.92 29.1665 2941.96 38.3692 2943.24C61.4134 2946.42 80.1851 2956.8 94.2049 2974.09C108.005 2991.46 113.25 3011 109.752 3032.16C106.278 3053.2 95.0689 3070.39 76.427 3083.22C76.2827 3083.31 76.1283 3083.4 76.0025 3083.5C57.2001 3096.07 35.9294 3100.87 12.8951 3097.67C12.4596 3097.61 12.0242 3097.54 11.5896 3097.48L11.5844 3097.75C-30.6816 3092.45 -69.655 3101.56 -104.301 3124.86C-139.677 3148.79 -160.943 3181.02 -167.495 3220.73C-174.055 3260.41 -164.153 3296.99 -138.082 3329.47C-126.004 3344.52 -111.977 3356.79 -96.0972 3366.22L-101.312 3370.95C-117.356 3361.2 -131.543 3348.64 -143.778 3333.31C-171.081 3299.48 -181.451 3261.26 -174.588 3219.73C-167.717 3178.22 -145.476 3144.55 -108.502 3119.65L-108.491 3119.64L-108.459 3119.61L-108.429 3119.6L-108.416 3119.59L-108.399 3119.58L-108.386 3119.58C-73.3359 3095.79 -33.9817 3086.04 8.58655 3090.54C8.82233 3090.57 9.04995 3090.61 9.26731 3090.68C9.76989 3090.6 10.2878 3090.6 10.7931 3090.69C11.8318 3090.88 12.8904 3091.03 13.9306 3091.17C35.1099 3094.11 54.5692 3089.66 71.7494 3077.93C81.4112 3071.46 88.916 3063.7 94.2237 3054.72L94.2422 3054.73C98.4362 3047.63 101.254 3039.78 102.667 3031.18C105.867 3011.74 101.023 2993.88 88.2388 2978.11C75.6376 2962.23 58.5025 2952.69 37.3047 2949.74C29.302 2948.62 21.4775 2948.57 14.0297 2949.54C12.7333 2949.71 11.3903 2949.35 10.4204 2948.56L10.3108 2948.47L10.2568 2948.42L10.2319 2948.4C9.69171 2949.28 8.71751 2949.88 7.56932 2949.95C-4.28376 2950.6 -16.6205 2950.04 -29.1214 2948.3C-74.3551 2941.99 -111.055 2921.59 -138.165 2887.63C-165.468 2853.8 -175.838 2815.58 -168.976 2774.05C-162.104 2732.54 -139.863 2698.86 -102.889 2673.97C-102.883 2673.96 -102.873 2673.95 -102.861 2673.94L-102.838 2673.93L-102.816 2673.92L-102.801 2673.91L-102.787 2673.9L-102.773 2673.89C-67.7231 2650.11 -28.3689 2640.35 14.1993 2644.86C14.4351 2644.88 14.6627 2644.93 14.8801 2645C15.3826 2644.92 15.9006 2644.92 16.4059 2645.01C17.4446 2645.19 18.5032 2645.35 19.5434 2645.49C40.7227 2648.43 60.182 2643.98 77.3622 2632.25C87.024 2625.78 94.5288 2618.02 99.8365 2609.04L99.8551 2609.04C104.049 2601.94 106.867 2594.09 108.28 2585.5C111.48 2566.06 106.636 2548.2 93.8516 2532.43C81.2504 2516.55 64.1153 2507.01 42.9175 2504.06C34.9148 2502.94 27.0903 2502.89 19.6425 2503.86C18.7281 2503.98 17.7905 2503.84 16.977 2503.46L16.8583 2503.48L16.783 2503.49L16.6785 2503.5L16.5978 2503.51C4.74476 2504.16 -7.59208 2503.6 -20.093 2501.86C-46.217 2498.21 -69.4945 2489.86 -89.7222 2476.92Z"
    fill="#302F2D"
    fill-opacity="0.02"
  />
</svg>
