<svg
  width="259"
  height="1429"
  viewBox="0 0 259 1429"
  fill="none"
  xmlns="http://www.w3.org/2000/svg"
>
<path
    d="M94.567 1540.5L93.6004 1541.38C84.0525 1538.1 75.9822 1532.43 69.5063 1524.44C60.7305 1513.4 57.395 1500.97 59.6193 1487.52C61.8287 1474.13 68.9569 1463.2 80.8118 1455.04C80.9035 1454.99 81.0017 1454.93 81.0817 1454.87C91.009 1448.23 102.018 1445 113.853 1445.26C117.332 1445.14 120.886 1445.33 124.508 1445.84L124.926 1445.9L125.339 1445.96L125.342 1445.79C129.942 1446.36 134.48 1446.67 138.954 1446.71C159.373 1446.29 178.409 1440.22 195.742 1428.56C218.238 1413.34 231.762 1392.85 235.928 1367.6C240.101 1342.36 233.803 1319.1 217.224 1298.45C200.65 1277.79 178.304 1265.38 150.808 1261.56C145.631 1260.84 140.496 1260.45 135.467 1260.41C134.34 1260.43 133.218 1260.47 132.104 1260.53C131.82 1260.55 131.539 1260.52 131.27 1260.45C130.626 1260.47 129.984 1260.49 129.344 1260.52C129.194 1260.59 129.032 1260.64 128.863 1260.66C125.785 1261.11 122.612 1261.3 119.373 1261.23C115.856 1261.35 112.247 1261.15 108.583 1260.64C93.9287 1258.62 81.9912 1252.02 73.0756 1241.02C64.2999 1229.97 60.9644 1217.55 63.1886 1204.09C65.3981 1190.71 72.5262 1179.78 84.3811 1171.62C84.4729 1171.57 84.5711 1171.51 84.6511 1171.45C94.5782 1164.81 105.587 1161.58 117.422 1161.84C120.901 1161.72 124.455 1161.91 128.078 1162.42C128.355 1162.45 128.632 1162.49 128.908 1162.54L128.911 1162.36C133.511 1162.94 138.05 1163.25 142.524 1163.29C162.942 1162.87 181.978 1156.8 199.311 1145.14C221.808 1129.92 235.331 1109.43 239.498 1084.17C243.67 1058.94 237.373 1035.68 220.793 1015.03C204.22 994.367 181.874 981.958 154.377 978.139C149.199 977.418 144.064 977.033 139.034 976.986C137.907 977.01 136.787 977.05 135.673 977.108C135.39 977.124 135.108 977.095 134.84 977.027C134.196 977.046 133.554 977.07 132.915 977.1C132.764 977.167 132.602 977.214 132.432 977.24C127.013 978.037 121.3 978.017 115.448 977.2C109.985 976.446 104.902 975.056 100.21 973.04C91.8331 969.662 84.6732 964.337 78.8171 957.116C70.0414 946.067 66.7058 933.644 68.9301 920.187C71.1395 906.806 78.2677 895.874 90.1226 887.714C90.2143 887.661 90.3125 887.598 90.3925 887.54C102.349 879.543 115.876 876.492 130.524 878.528C130.801 878.566 131.078 878.606 131.354 878.648L131.358 878.476C158.236 881.847 183.02 876.056 205.053 861.234C227.549 846.016 241.073 825.519 245.239 800.268C249.411 775.033 243.114 751.771 226.535 731.121C215.989 717.974 203.107 708.169 188.047 701.792C179.753 698.397 170.809 696.028 161.241 694.699C153.756 693.657 146.36 693.316 139.243 693.687C138.613 693.722 137.991 693.539 137.51 693.186C137.407 693.168 137.306 693.146 137.207 693.117C136.919 693.485 136.495 693.744 136.002 693.819C130.582 694.615 124.869 694.595 119.017 693.779C113.555 693.024 108.471 691.634 103.78 689.618C95.4024 686.24 88.2426 680.915 82.3865 673.694C73.6107 662.645 70.2752 650.222 72.4994 636.765C74.7089 623.384 81.837 612.452 93.6919 604.292L93.7708 604.245L93.8221 604.213L93.9104 604.155L93.9619 604.119C105.919 596.121 119.445 593.07 134.094 595.106C134.371 595.144 134.647 595.185 134.924 595.227L134.927 595.055C161.805 598.426 186.59 592.634 208.622 577.813C231.119 562.594 244.642 542.098 248.809 516.846C252.981 491.611 246.684 468.35 230.104 447.699C213.531 427.038 191.184 414.629 163.688 410.81C156.203 409.768 148.806 409.427 141.689 409.798C140.981 409.837 140.283 409.601 139.784 409.157L139.736 409.114C139.451 409.542 138.991 409.847 138.448 409.93C133.029 410.727 127.316 410.706 121.463 409.89C106.809 407.865 94.8715 401.266 85.9559 390.273C77.1802 379.224 73.8446 366.801 76.0689 353.344C78.2783 339.963 85.4065 329.031 97.2614 320.871L97.3319 320.829L97.3894 320.793C97.4394 320.762 97.488 320.729 97.5313 320.698C109.488 312.7 123.015 309.649 137.663 311.685L138.053 311.74L138.493 311.806L138.497 311.634C165.375 315.005 190.159 309.213 212.192 294.392C234.688 279.172 248.212 258.676 252.378 233.425C256.55 208.19 250.253 184.928 233.673 164.278C217.1 143.617 194.754 131.208 167.257 127.389C159.772 126.347 152.376 126.006 145.259 126.377C144.551 126.416 143.852 126.18 143.353 125.736L143.338 125.723L143.305 125.693C143.02 126.121 142.56 126.426 142.017 126.508C136.598 127.305 130.885 127.285 125.033 126.468C110.378 124.443 98.4408 117.844 89.5252 106.851C80.7495 95.802 77.414 83.3794 79.6382 69.9221C81.8477 56.5415 88.9758 45.6094 100.831 37.4492C100.872 37.4255 100.915 37.3994 100.957 37.3731C101.008 37.3411 101.057 37.3076 101.101 37.2759C102.775 36.1558 104.48 35.1331 106.215 34.2075L109.658 37.3318C107.664 38.3518 105.713 39.5134 103.805 40.8164C97.6611 44.9285 92.8886 49.8628 89.5133 55.5769L89.5015 55.5711C86.8345 60.0859 85.0425 65.0786 84.1439 70.5435C82.109 82.9067 85.1895 94.2661 93.3192 104.295C101.333 114.392 112.229 120.459 125.71 122.333C130.799 123.049 135.775 123.079 140.511 122.46C141.335 122.353 142.189 122.582 142.806 123.085L142.874 123.142L142.926 123.189C143.27 122.629 143.889 122.244 144.619 122.201C152.157 121.787 160.002 122.142 167.952 123.248C196.717 127.265 220.056 140.238 237.296 161.832C254.659 183.347 261.253 207.652 256.889 234.063C252.519 260.457 238.375 281.875 214.863 297.706C214.854 297.72 214.835 297.73 214.816 297.739L214.803 297.745L214.789 297.753C192.5 312.88 167.473 319.082 140.403 316.216L140.31 316.205C140.273 316.2 140.236 316.194 140.2 316.187C140.122 316.172 140.045 316.153 139.97 316.13C139.651 316.181 139.321 316.181 139 316.124C138.339 316.005 137.666 315.907 137.005 315.816C123.536 313.948 111.161 316.775 100.236 324.238C94.0918 328.35 89.3193 333.285 85.944 338.999L85.9322 338.993C83.2651 343.508 81.4732 348.5 80.5746 353.965C78.5397 366.328 81.6201 377.688 89.7499 387.717C97.7634 397.813 108.66 403.88 122.14 405.754C127.23 406.47 132.205 406.501 136.942 405.881C137.766 405.774 138.62 406.004 139.237 406.507L139.299 406.559L139.356 406.61C139.7 406.051 140.319 405.665 141.05 405.622C148.587 405.209 156.433 405.564 164.382 406.669C193.148 410.686 216.486 423.659 233.726 445.253C251.089 466.769 257.684 491.073 253.32 517.484C248.95 543.878 234.806 565.296 211.293 581.127C211.29 581.132 211.286 581.137 211.281 581.141L211.266 581.15L211.251 581.158L211.238 581.164L211.228 581.17L211.22 581.174C188.93 596.301 163.904 602.503 136.834 599.638C136.684 599.622 136.539 599.593 136.401 599.551C136.081 599.602 135.752 599.602 135.43 599.545C134.77 599.426 134.097 599.328 133.435 599.237C122.471 597.716 112.232 599.307 102.91 603.977L103.643 604.642C101.649 605.662 99.6969 606.824 97.7895 608.127C91.6452 612.239 86.8728 617.173 83.4974 622.887L83.4856 622.881C80.8186 627.396 79.0267 632.389 78.1281 637.854C76.0932 650.217 79.1736 661.576 87.3034 671.605C92.3406 677.952 98.5179 682.707 105.759 685.829C109.725 687.422 113.999 688.54 118.571 689.175C123.66 689.891 128.636 689.922 133.372 689.303C134.125 689.205 134.902 689.388 135.501 689.803C135.628 689.828 135.753 689.86 135.875 689.901C136.231 689.412 136.809 689.083 137.48 689.044C145.018 688.63 152.863 688.985 160.813 690.091C171.255 691.549 180.982 694.187 189.962 697.99C206.203 704.646 220.038 715.061 231.28 729.142C248.643 750.658 255.237 774.962 250.873 801.373C246.503 827.768 232.36 849.185 208.847 865.016C208.838 865.031 208.819 865.04 208.8 865.049L208.787 865.056L208.773 865.064C186.484 880.19 161.457 886.393 134.387 883.527L134.294 883.515C134.257 883.51 134.22 883.504 134.184 883.497C134.106 883.482 134.029 883.463 133.954 883.441C133.635 883.492 133.305 883.491 132.984 883.434C132.323 883.315 131.65 883.218 130.989 883.126C117.52 881.258 105.146 884.086 94.2201 891.548C88.0759 895.661 83.3034 900.595 79.9281 906.309L79.9163 906.303C77.2493 910.818 75.4573 915.811 74.5587 921.276C72.5238 933.639 75.6042 944.998 83.734 955.027C88.7712 961.374 94.9483 966.129 102.189 969.25C106.155 970.844 110.43 971.962 115.002 972.597C120.091 973.313 125.066 973.344 129.803 972.724C130.384 972.649 130.981 972.741 131.498 972.978L131.546 972.97L131.625 972.961L131.668 972.956L131.739 972.951C134.098 972.822 136.487 972.767 138.901 972.788C145.24 972.661 151.767 973.062 158.367 973.98C187.132 977.997 210.47 990.969 227.71 1012.56C245.073 1034.08 251.668 1058.38 247.304 1084.79C242.934 1111.19 228.79 1132.61 205.277 1148.44C205.275 1148.44 205.271 1148.45 205.266 1148.45L205.25 1148.46L205.235 1148.47L205.223 1148.47L205.212 1148.48L205.204 1148.48C186.161 1161.41 165.119 1167.82 142.512 1167.62C137.591 1167.72 132.593 1167.5 127.523 1166.97C127.373 1166.95 127.228 1166.92 127.09 1166.88C126.77 1166.93 126.441 1166.93 126.12 1166.87C125.459 1166.75 124.786 1166.66 124.124 1166.57C121.906 1166.26 119.717 1166.08 117.559 1166.02C107.873 1166.38 98.8532 1169.37 90.6507 1174.97C84.5064 1179.08 79.734 1184.02 76.3586 1189.73L76.3469 1189.72C73.6798 1194.24 71.8878 1199.23 70.9892 1204.7C68.9543 1217.06 72.0348 1228.42 80.1646 1238.45C88.1781 1248.55 99.0747 1254.61 112.555 1256.49C114.789 1256.8 117.002 1256.98 119.181 1257.04C120.832 1256.98 122.46 1256.84 124.061 1256.63C124.58 1256.56 125.11 1256.63 125.585 1256.81C126.148 1256.76 126.707 1256.7 127.263 1256.63C127.533 1256.48 127.84 1256.39 128.17 1256.37C130.529 1256.24 132.92 1256.19 135.333 1256.21C141.672 1256.08 148.199 1256.48 154.797 1257.4C183.563 1261.42 206.901 1274.39 224.141 1295.99C241.504 1317.5 248.099 1341.8 243.734 1368.22C239.365 1394.61 225.221 1416.03 201.708 1431.86C201.704 1431.87 201.699 1431.87 201.693 1431.88L201.68 1431.88L201.662 1431.89L201.652 1431.9L201.644 1431.9L201.634 1431.91C182.591 1444.83 161.549 1451.24 138.941 1451.05C134.02 1451.14 129.022 1450.92 123.953 1450.39C123.803 1450.37 123.659 1450.34 123.521 1450.3C123.201 1450.35 122.872 1450.35 122.55 1450.3C121.89 1450.18 121.216 1450.08 120.555 1449.99C118.337 1449.68 116.148 1449.5 113.991 1449.45C104.304 1449.8 95.2841 1452.79 87.0813 1458.39C80.9371 1462.5 76.1646 1467.44 72.7893 1473.15L72.7775 1473.15C70.1104 1477.66 68.3185 1482.65 67.4199 1488.12C65.385 1500.48 68.4654 1511.84 76.5952 1521.87C84.6087 1531.97 95.5054 1538.03 108.986 1539.91C114.075 1540.62 119.051 1540.65 123.787 1540.03C124.368 1539.96 124.965 1540.05 125.482 1540.29L125.53 1540.28L125.609 1540.27L125.652 1540.27L125.723 1540.26C133.261 1539.85 141.106 1540.2 149.056 1541.31C177.821 1545.33 201.159 1558.3 218.4 1579.89C235.762 1601.41 242.357 1625.71 237.993 1652.12C233.623 1678.52 219.479 1699.93 195.967 1715.77C195.964 1715.77 195.959 1715.78 195.954 1715.78L195.939 1715.79L195.93 1715.79L195.921 1715.8L195.912 1715.8L195.901 1715.81L195.893 1715.81C173.604 1730.94 148.577 1737.14 121.507 1734.28C121.357 1734.26 121.212 1734.23 121.074 1734.19C120.754 1734.24 120.425 1734.24 120.104 1734.18C119.443 1734.07 118.77 1733.97 118.108 1733.88C104.64 1732.01 92.2652 1734.84 81.3398 1742.3C75.1956 1746.41 70.4231 1751.35 67.0478 1757.06L67.036 1757.05C64.369 1761.57 62.5771 1766.56 61.6785 1772.03C59.6435 1784.39 62.724 1795.75 70.8538 1805.78C78.8672 1815.87 89.7639 1821.94 103.244 1823.81C108.333 1824.53 113.309 1824.56 118.045 1823.94C118.87 1823.84 119.724 1824.06 120.341 1824.57L120.394 1824.61L120.461 1824.67C120.804 1824.11 121.424 1823.73 122.154 1823.68C129.691 1823.27 137.537 1823.62 145.486 1824.73C174.252 1828.75 197.59 1841.72 214.83 1863.31C232.193 1884.83 238.788 1909.13 234.424 1935.54C230.054 1961.94 215.91 1983.36 192.397 1999.19C192.389 1999.2 192.37 1999.21 192.351 1999.22L192.324 1999.24C170.034 2014.36 145.008 2020.56 117.938 2017.7C117.788 2017.68 117.643 2017.65 117.505 2017.61C117.185 2017.66 116.856 2017.66 116.534 2017.61C115.874 2017.49 115.201 2017.39 114.539 2017.3C101.071 2015.43 88.6959 2018.26 77.7705 2025.72C71.6263 2029.83 66.8538 2034.77 63.4784 2040.48L63.4667 2040.47C60.7996 2044.99 59.0077 2049.98 58.1091 2055.45C56.0742 2067.81 59.1546 2079.17 67.2844 2089.2C73.5444 2097.09 81.5638 2102.51 91.1998 2105.41L87.5845 2108.69C78.0367 2105.41 69.9664 2099.74 63.4904 2091.76C54.7147 2080.71 51.3792 2068.28 53.6034 2054.83C55.8129 2041.45 62.941 2030.51 74.7959 2022.35C74.8876 2022.3 74.9858 2022.24 75.0659 2022.18C87.0228 2014.18 100.549 2011.13 115.198 2013.17C115.475 2013.21 115.751 2013.25 116.028 2013.29L116.031 2013.12C142.909 2016.49 167.694 2010.69 189.726 1995.87C212.223 1980.65 225.746 1960.16 229.913 1934.91C234.085 1909.67 227.787 1886.41 211.208 1865.76C194.635 1845.1 172.288 1832.69 144.792 1828.87C137.307 1827.83 129.91 1827.49 122.793 1827.86C122.085 1827.9 121.387 1827.66 120.888 1827.22L120.84 1827.17C120.554 1827.6 120.094 1827.91 119.552 1827.99C114.133 1828.79 108.419 1828.77 102.567 1827.95C87.9128 1825.93 75.9753 1819.33 67.0598 1808.33C58.284 1797.28 54.9485 1784.86 57.1727 1771.4C59.3822 1758.02 66.5103 1747.09 78.3652 1738.93C78.457 1738.88 78.5552 1738.82 78.6352 1738.76C90.5921 1730.76 104.119 1727.71 118.767 1729.75C119.044 1729.78 119.321 1729.82 119.597 1729.87L119.6 1729.69C146.479 1733.07 171.263 1727.27 193.295 1712.45C215.792 1697.23 229.315 1676.74 233.482 1651.49C237.654 1626.25 231.357 1602.99 214.777 1582.34C198.204 1561.68 175.858 1549.27 148.361 1545.45C140.876 1544.41 133.479 1544.07 126.363 1544.44C125.863 1544.46 125.369 1544.36 124.946 1544.13C119.63 1544.88 114.036 1544.84 108.309 1544.04C103.422 1543.37 98.8379 1542.18 94.567 1540.5Z"
    fill="#FF8400"
  />
<path
    d="M81.5436 1552.32L80.3782 1553.37C70.7745 1548.89 62.5012 1542.35 55.643 1533.81C44.01 1519.3 39.5902 1502.91 42.5227 1485.11C45.467 1467.32 54.9741 1452.87 70.7844 1442.17C83.7747 1433.39 98.1435 1429.09 113.613 1429.33C117.645 1429.22 121.755 1429.43 125.937 1429.95L125.952 1429.94C125.985 1429.92 126.025 1429.91 126.07 1429.89L126.113 1429.88L126.145 1429.88L126.174 1429.87C126.2 1429.87 126.228 1429.87 126.258 1429.87C126.278 1429.87 126.298 1429.88 126.319 1429.88C130.534 1430.46 134.686 1430.78 138.773 1430.83C155.589 1430.44 171.256 1425.42 185.518 1415.84C204.152 1403.24 215.352 1386.22 218.818 1365.24C222.283 1344.33 217.111 1325.06 203.468 1308L203.444 1307.96L203.431 1307.94L203.407 1307.91L203.363 1307.85L203.325 1307.8C189.622 1290.74 171.086 1280.46 148.238 1277.28C144.023 1276.69 139.842 1276.37 135.739 1276.32C134.428 1276.35 133.127 1276.41 131.837 1276.5C131.506 1276.52 131.176 1276.48 130.866 1276.39C130.306 1276.41 129.747 1276.44 129.191 1276.48C128.937 1276.63 128.646 1276.73 128.333 1276.77C125.511 1277.04 122.624 1277.16 119.694 1277.12C115.23 1277.24 110.643 1276.97 106.003 1276.32C86.5991 1273.63 70.8635 1264.9 59.2124 1250.39C47.5794 1235.88 43.1595 1219.49 46.0921 1201.69C49.0364 1183.9 58.5434 1169.45 74.3538 1158.75C87.3443 1149.97 101.713 1145.67 117.183 1145.91C121.215 1145.8 125.324 1146 129.507 1146.53L129.521 1146.52C129.536 1146.51 129.552 1146.5 129.569 1146.5C129.591 1146.49 129.614 1146.48 129.639 1146.47C129.673 1146.46 129.711 1146.45 129.752 1146.45L129.783 1146.45L129.82 1146.45C129.842 1146.45 129.865 1146.45 129.889 1146.46C134.102 1147.04 138.254 1147.36 142.34 1147.41C159.157 1147.01 174.824 1142 189.087 1132.42C207.721 1119.82 218.921 1102.8 222.387 1081.82C225.852 1060.9 220.68 1041.64 207.037 1024.58C206.997 1024.51 206.946 1024.45 206.895 1024.38C193.192 1007.31 174.655 997.038 151.807 993.856C147.593 993.268 143.411 992.95 139.308 992.901C137.998 992.932 136.696 992.99 135.407 993.077C135.075 993.097 134.746 993.06 134.436 992.97C133.876 992.993 133.318 993.021 132.761 993.055C132.508 993.211 132.216 993.314 131.903 993.344C125.79 993.949 119.381 993.792 112.867 992.884C105.728 991.892 99.0855 990.083 92.9602 987.47C81.9532 982.997 72.5788 975.979 64.9538 966.485C53.3208 951.972 48.901 935.586 51.8335 917.785C54.7778 899.99 64.2849 885.545 80.0952 874.839C95.5796 864.38 113.023 860.273 131.953 862.638L131.968 862.63C132.001 862.612 132.04 862.595 132.086 862.583L132.129 862.573C132.148 862.569 132.168 862.566 132.19 862.564C132.216 862.562 132.244 862.561 132.274 862.562L132.303 862.564L132.335 862.568C155.183 865.75 176.204 861.02 194.828 848.514C213.463 835.915 224.662 818.888 228.129 797.915C231.594 776.996 226.422 757.733 212.779 740.669L212.761 740.642L212.75 740.627L212.723 740.588L212.718 740.581L212.638 740.475C203.956 729.661 193.33 721.571 180.899 716.287C174.025 713.483 166.608 711.522 158.672 710.417C151.961 709.481 145.334 709.229 138.976 709.656C138.327 709.695 137.686 709.515 137.184 709.151C137.092 709.135 137 709.115 136.91 709.089C136.588 709.546 136.067 709.865 135.472 709.923C129.359 710.528 122.95 710.371 116.437 709.463C109.297 708.47 102.654 706.661 96.5289 704.048C85.5222 699.575 76.148 692.557 68.5231 683.063C56.8901 668.551 52.4703 652.164 55.4029 634.363C58.3472 616.568 67.8542 602.123 83.6646 591.417C99.1489 580.959 116.592 576.852 135.523 579.216L135.537 579.208L135.561 579.196L135.585 579.185C135.607 579.176 135.63 579.168 135.655 579.161L135.695 579.151C135.718 579.147 135.742 579.143 135.768 579.141L135.799 579.14L135.836 579.14C135.858 579.141 135.881 579.143 135.904 579.146C158.753 582.328 179.773 577.598 198.398 565.092C217.032 552.493 228.232 535.467 231.698 514.493C235.163 493.574 229.991 474.311 216.348 457.247C216.331 457.22 216.311 457.193 216.291 457.164L216.205 457.05C202.503 439.984 183.966 429.71 161.118 426.527C154.408 425.591 147.781 425.34 141.422 425.767C140.696 425.811 139.98 425.58 139.457 425.124L139.426 425.096C139.112 425.609 138.558 425.971 137.919 426.034C131.806 426.639 125.397 426.482 118.883 425.574C99.4793 422.876 83.7438 414.149 72.0926 399.642C60.4596 385.13 56.0398 368.743 58.9724 350.942C61.9167 333.147 71.4237 318.702 87.234 307.996C102.718 297.538 120.161 293.431 139.092 295.795L139.107 295.787C139.14 295.769 139.179 295.752 139.225 295.74C139.293 295.721 139.375 295.712 139.474 295.725C162.322 298.907 183.342 294.177 201.967 281.671C220.601 269.072 231.801 252.045 235.268 231.072C238.732 210.153 233.56 190.89 219.917 173.826L219.881 173.772L219.857 173.738L219.812 173.679L219.775 173.629C206.072 156.563 187.536 146.288 164.687 143.106C157.977 142.17 151.35 141.919 144.992 142.346C144.266 142.39 143.549 142.159 143.027 141.703L142.995 141.675C142.681 142.187 142.127 142.55 141.488 142.612C135.375 143.217 128.966 143.06 122.453 142.152C103.049 139.455 87.3131 130.727 75.662 116.22C64.029 101.708 59.6091 85.3211 62.5417 67.52C65.486 49.7251 74.993 35.2808 90.8034 24.5745C91.7301 23.9487 92.6638 23.3455 93.6044 22.7651L96.946 25.7969C95.764 26.5054 94.593 27.252 93.4333 28.0361C78.6552 38.0259 69.7693 51.5217 67.0408 68.1524C64.3155 84.7007 68.3795 99.9877 79.1407 113.605L79.1289 113.599L79.1422 113.623L79.1677 113.666L79.2035 113.718L79.2247 113.746L79.2593 113.789L79.2913 113.825L79.3348 113.869C90.2502 127.353 104.994 135.517 123.105 138.032C129.029 138.856 134.844 139.012 140.415 138.5C141.184 138.436 141.937 138.656 142.507 139.135L142.528 139.154L142.556 139.179C142.881 138.622 143.479 138.235 144.19 138.187C151.012 137.697 158.124 137.952 165.359 138.954C189.393 142.293 208.927 153.148 223.426 171.212C237.925 189.275 243.418 209.62 239.78 231.682C236.142 253.745 224.31 271.687 204.638 284.985L204.628 284.997L204.619 285.003L204.605 285.011L204.592 285.018L204.565 285.032C184.906 298.309 162.76 303.346 138.756 300.008L138.757 299.982C120.956 297.691 104.518 301.549 89.8639 311.458C75.0859 321.448 66.1999 334.944 63.4714 351.574C60.7461 368.122 64.8102 383.41 75.5714 397.026L75.5596 397.021C75.5807 397.06 75.605 397.099 75.6324 397.137C75.6705 397.19 75.7148 397.241 75.7654 397.291C86.6809 410.775 101.425 418.939 119.536 421.454C125.459 422.278 131.275 422.433 136.846 421.922C137.615 421.857 138.368 422.078 138.937 422.557L138.964 422.581L138.987 422.601C139.311 422.043 139.909 421.656 140.621 421.608C147.442 421.118 154.555 421.373 161.79 422.375C185.824 425.714 205.357 436.569 219.857 454.633C234.356 472.696 239.848 493.042 236.21 515.104C232.572 537.166 220.741 555.108 201.069 568.406L201.06 568.417L201.042 568.429L201.023 568.439L201.007 568.447L200.995 568.454C181.336 581.731 159.191 586.767 135.187 583.429L135.187 583.403C118.941 581.313 103.83 584.343 90.1741 592.421L90.9301 593.108C89.7481 593.816 88.5772 594.562 87.4174 595.346C72.6393 605.336 63.7534 618.832 61.0249 635.463C58.2996 652.011 62.3637 667.298 73.1248 680.915L73.1131 680.909C73.1346 680.95 73.1594 680.99 73.1876 681.028C73.2253 681.08 73.2691 681.131 73.3189 681.179C80.1984 689.678 88.5988 696.063 98.4043 700.253C103.843 702.46 109.703 704.005 115.966 704.875C121.89 705.699 127.706 705.854 133.276 705.343C133.971 705.284 134.653 705.459 135.198 705.847C135.295 705.865 135.391 705.887 135.485 705.914C135.821 705.415 136.387 705.075 137.051 705.03C143.873 704.539 150.985 704.795 158.22 705.797C166.985 707.014 175.151 709.232 182.693 712.433C196.315 717.995 207.937 726.72 217.41 738.522C231.909 756.585 237.402 776.93 233.764 798.993C230.126 821.055 218.294 838.997 198.623 852.296L198.615 852.305L198.603 852.314L198.589 852.322L198.576 852.328L198.549 852.343C178.89 865.62 156.744 870.657 132.74 867.318L132.741 867.292C114.94 865.002 98.5019 868.86 83.848 878.768C69.07 888.758 60.184 902.254 57.4555 918.884C54.7302 935.433 58.7943 950.72 69.5555 964.337L69.5437 964.331C69.5648 964.371 69.5891 964.41 69.6165 964.448C69.6546 964.5 69.699 964.552 69.7496 964.601C76.6301 973.101 85.0325 979.487 94.8399 983.676C100.277 985.883 106.136 987.427 112.397 988.297C118.32 989.121 124.136 989.276 129.707 988.764C130.182 988.725 130.651 988.794 131.075 988.966C131.152 988.952 131.23 988.942 131.31 988.937C133.909 988.75 136.551 988.672 139.225 988.701C144.615 988.58 150.157 988.908 155.774 989.685C179.808 993.025 199.342 1003.88 213.841 1021.94C228.34 1040.01 233.832 1060.35 230.194 1082.41C226.557 1104.48 214.725 1122.42 195.053 1135.72L195.045 1135.73L195.026 1135.74L195.007 1135.75L194.991 1135.76L194.979 1135.76C178.934 1146.6 161.231 1151.95 142.213 1151.73C136.872 1151.85 131.423 1151.53 125.876 1150.76L125.876 1150.73C122.981 1150.36 120.122 1150.15 117.301 1150.1C104.022 1150.48 91.6165 1154.52 80.2786 1162.19C65.5005 1172.18 56.6146 1185.68 53.8861 1202.31C51.1608 1218.85 55.2249 1234.14 65.986 1247.76L65.9742 1247.75C66.0248 1247.85 66.0932 1247.94 66.1801 1248.02C77.0955 1261.51 91.8394 1269.67 109.95 1272.19C113.178 1272.63 116.374 1272.88 119.515 1272.94C121.014 1272.89 122.498 1272.81 123.966 1272.67C124.381 1272.64 124.792 1272.69 125.172 1272.81C125.691 1272.78 126.207 1272.74 126.721 1272.7C127.012 1272.51 127.36 1272.38 127.74 1272.36C130.339 1272.17 132.979 1272.09 135.652 1272.12C141.043 1272 146.587 1272.33 152.204 1273.11C176.239 1276.45 195.772 1287.3 210.271 1305.36C224.771 1323.43 230.263 1343.77 226.625 1365.84C222.987 1387.9 211.155 1405.84 191.484 1419.14L191.476 1419.15L191.452 1419.16L191.437 1419.17L191.414 1419.18C175.367 1430.02 157.661 1435.37 138.642 1435.15C133.301 1435.28 127.854 1434.95 122.306 1434.18L122.307 1434.15C119.412 1433.78 116.552 1433.57 113.731 1433.52C100.453 1433.9 88.0468 1437.94 76.7092 1445.61C61.9312 1455.6 53.0452 1469.1 50.3167 1485.73C47.5914 1502.28 51.6555 1517.56 62.4167 1531.18L62.4049 1531.17C62.4314 1531.22 62.4628 1531.27 62.4992 1531.32C62.5322 1531.36 62.5694 1531.4 62.6107 1531.44C73.5262 1544.93 88.2701 1553.09 106.381 1555.61C112.304 1556.43 118.12 1556.59 123.691 1556.07C124.166 1556.03 124.636 1556.1 125.059 1556.28C125.136 1556.26 125.214 1556.25 125.294 1556.25C132.116 1555.76 139.228 1556.01 146.463 1557.01C170.497 1560.35 190.031 1571.21 204.53 1589.27C219.029 1607.34 224.521 1627.68 220.883 1649.74C217.246 1671.81 205.414 1689.75 185.742 1703.05C185.739 1703.05 185.734 1703.06 185.728 1703.06L185.709 1703.07L185.696 1703.08L185.669 1703.09C166.01 1716.37 143.864 1721.41 119.86 1718.07L119.861 1718.04C102.06 1715.75 85.6216 1719.61 70.9678 1729.52C56.1897 1739.51 47.3038 1753 44.5753 1769.63C41.85 1786.18 45.9141 1801.47 56.6752 1815.09L56.6634 1815.08C56.7139 1815.18 56.7824 1815.27 56.8693 1815.35C67.7847 1828.84 82.5286 1837 100.639 1839.51C106.563 1840.34 112.379 1840.49 117.95 1839.98C118.719 1839.92 119.471 1840.14 120.041 1840.62L120.065 1840.64L120.091 1840.66C120.415 1840.1 121.013 1839.72 121.725 1839.67C128.546 1839.18 135.658 1839.43 142.894 1840.44C166.928 1843.78 186.461 1854.63 200.961 1872.69C215.46 1890.76 220.952 1911.1 217.314 1933.16C213.676 1955.23 201.844 1973.17 182.173 1986.47L182.166 1986.48L182.158 1986.48L182.137 1986.49L182.116 1986.51L182.099 1986.51C162.44 1999.79 140.295 2004.83 116.291 2001.49L116.291 2001.46C98.4902 1999.17 82.0523 2003.03 67.3984 2012.94C52.6204 2022.93 43.7344 2036.43 41.0059 2053.06C38.2806 2069.6 42.3447 2084.89 53.1059 2098.51L53.0941 2098.5C53.1446 2098.6 53.213 2098.69 53.2999 2098.77C60.0372 2107.1 68.2329 2113.39 77.7787 2117.58L74.3623 2120.68C64.7587 2116.2 56.4853 2109.66 49.6271 2101.12C37.9941 2086.61 33.5743 2070.22 36.5069 2052.42C39.4512 2034.63 48.9582 2020.18 64.7685 2009.48C80.2529 1999.02 97.6959 1994.91 116.627 1997.28L116.641 1997.27C116.656 1997.26 116.672 1997.25 116.689 1997.25L116.71 1997.24L116.722 1997.23L116.759 1997.22C116.827 1997.2 116.91 1997.19 117.008 1997.21C139.857 2000.39 160.877 1995.66 179.502 1983.15C198.136 1970.55 209.336 1953.53 212.802 1932.55C216.267 1911.64 211.095 1892.37 197.452 1875.31L197.428 1875.27L197.415 1875.25L197.391 1875.22L197.347 1875.16L197.309 1875.11C183.607 1858.05 165.07 1847.77 142.222 1844.59C135.512 1843.65 128.885 1843.4 122.526 1843.83C121.8 1843.87 121.084 1843.64 120.561 1843.19L120.529 1843.16C120.215 1843.67 119.661 1844.03 119.023 1844.09C112.909 1844.7 106.501 1844.54 99.9871 1843.63C80.5832 1840.94 64.8476 1832.21 53.1965 1817.7C41.5635 1803.19 37.1436 1786.8 40.0762 1769C43.0205 1751.21 52.5276 1736.76 68.3379 1726.06C83.8222 1715.6 101.265 1711.49 120.196 1713.86L120.21 1713.85L120.221 1713.84L120.239 1713.83C120.265 1713.82 120.295 1713.81 120.328 1713.8C120.396 1713.78 120.479 1713.77 120.578 1713.79C143.426 1716.97 164.446 1712.24 183.071 1699.73C201.705 1687.13 212.905 1670.11 216.372 1649.13C219.836 1628.21 214.664 1608.95 201.021 1591.89C200.982 1591.83 200.931 1591.76 200.88 1591.69C187.177 1574.63 168.639 1564.35 145.791 1561.17C139.081 1560.23 132.454 1559.98 126.096 1560.41C125.646 1560.43 125.2 1560.35 124.801 1560.18L124.764 1560.19C118.651 1560.79 112.242 1560.64 105.729 1559.73C96.8932 1558.5 88.8185 1556.02 81.5436 1552.32Z"
    fill="#FF8400"
  />
<path
    d="M113.243 1417.73C96.4264 1418.12 80.7594 1423.14 66.4971 1432.71C47.863 1445.31 36.6631 1462.34 33.1966 1483.31C29.7321 1504.23 34.904 1523.5 48.547 1540.56L48.5826 1540.61L48.6378 1540.69L48.6895 1540.76C62.3924 1557.82 80.9288 1568.1 103.777 1571.28C110.487 1572.22 117.114 1572.47 123.472 1572.04C123.922 1572.01 124.369 1572.09 124.767 1572.26L124.804 1572.26C130.917 1571.65 137.326 1571.81 143.84 1572.72C163.244 1575.42 178.979 1584.14 190.63 1598.65C202.263 1613.16 206.683 1629.55 203.751 1647.35C200.806 1665.15 191.299 1679.59 175.489 1690.3C160.005 1700.76 142.562 1704.86 123.631 1702.5L123.616 1702.51L123.586 1702.52L123.573 1702.53L123.558 1702.53L123.533 1702.54L123.498 1702.55C123.43 1702.57 123.348 1702.58 123.249 1702.57C100.401 1699.39 79.3805 1704.12 60.7557 1716.62C42.1215 1729.22 30.9217 1746.25 27.4551 1767.22C23.9906 1788.14 29.1625 1807.4 42.8055 1824.47L42.834 1824.51L42.861 1824.55L42.8662 1824.55L42.9041 1824.61L42.948 1824.66C56.6509 1841.73 75.1873 1852 98.0354 1855.19C104.746 1856.12 111.373 1856.37 117.731 1855.95C118.457 1855.9 119.174 1856.13 119.696 1856.59L119.728 1856.62C120.042 1856.11 120.596 1855.74 121.235 1855.68C127.348 1855.08 133.757 1855.23 140.27 1856.14C159.674 1858.84 175.41 1867.57 187.061 1882.07C198.694 1896.58 203.114 1912.97 200.181 1930.77C197.237 1948.57 187.73 1963.01 171.92 1973.72C156.435 1984.18 138.992 1988.28 120.062 1985.92L120.047 1985.93C120.014 1985.95 119.974 1985.96 119.929 1985.97C119.861 1985.99 119.779 1986 119.68 1985.99C96.8315 1982.81 75.8111 1987.54 57.1863 2000.04C38.5522 2012.64 27.3523 2029.67 23.8858 2050.64C20.4212 2071.56 25.5932 2090.82 39.2362 2107.89C39.2759 2107.95 39.3272 2108.02 39.3787 2108.09C46.5693 2117.04 55.0909 2124.13 64.8681 2129.3L61.5182 2132.34C51.6798 2126.93 43.0599 2119.64 35.7275 2110.5C21.2284 2092.44 15.7361 2072.09 19.374 2050.03C23.0117 2027.97 34.8436 2010.03 54.5152 1996.73L54.5237 1996.72C54.5324 1996.71 54.551 1996.7 54.5617 1996.7L54.5771 1996.69L54.5888 1996.68C74.2477 1983.4 96.3933 1978.37 120.398 1981.71L120.397 1981.73C138.198 1984.02 154.636 1980.17 169.29 1970.26C184.068 1960.27 192.954 1946.77 195.682 1930.14C198.407 1913.59 194.343 1898.3 183.582 1884.69L183.594 1884.69C183.543 1884.6 183.475 1884.51 183.388 1884.42C172.473 1870.94 157.729 1862.78 139.618 1860.26C133.694 1859.44 127.878 1859.28 122.308 1859.79C121.539 1859.86 120.786 1859.64 120.216 1859.16L120.167 1859.11C119.842 1859.67 119.244 1860.06 118.533 1860.11C111.711 1860.6 104.599 1860.34 97.3639 1859.34C73.3297 1856 53.796 1845.14 39.2969 1827.08C24.7977 1809.02 19.3054 1788.67 22.9434 1766.61C26.581 1744.55 38.413 1726.61 58.0845 1713.31L58.09 1713.3L58.0974 1713.29L58.1091 1713.29L58.1202 1713.28L58.1416 1713.27L58.1582 1713.26C77.817 1699.98 99.9627 1694.95 123.967 1698.28L123.966 1698.31C141.767 1700.6 158.205 1696.74 172.859 1686.83C187.637 1676.85 196.523 1663.35 199.252 1646.72C201.977 1630.17 197.913 1614.88 187.152 1601.27L187.163 1601.27C187.113 1601.18 187.044 1601.09 186.958 1601C176.042 1587.52 161.298 1579.35 143.187 1576.84C137.264 1576.01 131.448 1575.86 125.877 1576.37C125.402 1576.41 124.933 1576.34 124.509 1576.17C124.432 1576.18 124.354 1576.19 124.274 1576.2C117.453 1576.69 110.34 1576.43 103.105 1575.43C90.3889 1573.66 78.9323 1569.79 68.8148 1563.86L67.534 1565.03C57.6957 1559.62 49.0757 1552.33 41.7434 1543.19C27.2442 1525.13 21.752 1504.78 25.3899 1482.72C29.0276 1460.66 40.8595 1442.72 60.5311 1429.42L60.5396 1429.41L60.56 1429.39L60.5776 1429.39L60.5929 1429.38L60.6047 1429.37C76.6504 1418.53 94.3528 1413.19 113.37 1413.4C118.712 1413.28 124.16 1413.61 129.708 1414.38L129.708 1414.4C132.603 1414.78 135.462 1414.99 138.283 1415.03C151.562 1414.66 163.968 1410.61 175.306 1402.95C190.084 1392.96 198.97 1379.46 201.698 1362.83C204.423 1346.28 200.359 1330.99 189.598 1317.38L189.61 1317.38C189.559 1317.29 189.491 1317.2 189.404 1317.11C178.489 1303.63 163.745 1295.47 145.634 1292.95C142.406 1292.5 139.211 1292.25 136.07 1292.2C134.571 1292.24 133.086 1292.33 131.619 1292.46C131.203 1292.5 130.792 1292.45 130.412 1292.32C129.894 1292.35 129.377 1292.39 128.862 1292.44C128.572 1292.63 128.224 1292.75 127.844 1292.78C125.245 1292.96 122.604 1293.04 119.931 1293.01C114.54 1293.13 108.997 1292.81 103.38 1292.03C79.3456 1288.69 59.8119 1277.83 45.3128 1259.77C30.8136 1241.71 25.3213 1221.36 28.9592 1199.3C32.5969 1177.24 44.4289 1159.3 64.1004 1146L64.1133 1145.98L64.125 1145.98L64.1361 1145.97L64.1575 1145.96L64.174 1145.95C80.2201 1135.11 97.923 1129.77 116.941 1129.98C122.282 1129.86 127.73 1130.18 133.278 1130.96L133.277 1130.98C136.172 1131.35 139.032 1131.56 141.853 1131.61C155.132 1131.24 167.537 1127.19 178.875 1119.52C193.653 1109.53 202.539 1096.04 205.267 1079.41C207.993 1062.86 203.929 1047.57 193.167 1033.96L193.179 1033.96C193.129 1033.87 193.06 1033.78 192.973 1033.69C182.058 1020.21 167.314 1012.04 149.203 1009.53C145.975 1009.08 142.779 1008.83 139.637 1008.78C138.139 1008.82 136.655 1008.91 135.188 1009.04C134.772 1009.08 134.361 1009.03 133.981 1008.9C133.463 1008.93 132.947 1008.97 132.433 1009.01C132.142 1009.21 131.794 1009.33 131.413 1009.36C124.591 1009.85 117.479 1009.59 110.244 1008.59C101.482 1007.37 93.3176 1005.16 85.7775 1001.95C72.1527 996.393 60.5286 987.667 51.0542 975.864C36.5551 957.8 31.0627 937.455 34.7007 915.393C38.3384 893.33 50.1703 875.388 69.8419 862.09C69.8453 862.084 69.8505 862.079 69.8567 862.075L69.8694 862.067L69.8884 862.057L69.9011 862.051L69.9155 862.043C89.5743 848.766 111.72 843.729 135.724 847.067L135.724 847.094C153.525 849.384 169.962 845.526 184.616 835.617C199.394 825.628 208.28 812.132 211.009 795.501C213.734 778.953 209.67 763.666 198.909 750.049L198.921 750.054C198.87 749.959 198.802 749.87 198.715 749.784C191.834 741.284 183.432 734.899 173.625 730.709C168.188 728.503 162.328 726.958 156.068 726.089C150.144 725.265 144.328 725.109 138.757 725.621C138.062 725.679 137.381 725.505 136.836 725.117C136.738 725.099 136.643 725.077 136.548 725.05C136.212 725.549 135.647 725.889 134.982 725.934C128.161 726.424 121.049 726.169 113.814 725.167C105.05 723.95 96.8848 721.733 89.3439 718.532C75.7204 712.97 64.0973 704.244 54.6236 692.442C40.1244 674.378 34.6321 654.033 38.27 631.971C41.9077 609.909 53.7397 591.967 73.4112 578.668C73.4165 578.659 73.4263 578.652 73.4374 578.646L73.4578 578.636L73.474 578.627L73.4849 578.621C93.1437 565.344 115.289 560.308 139.294 563.646L139.293 563.672C157.094 565.962 173.532 562.104 188.186 552.196C202.964 542.206 211.85 528.71 214.578 512.079C217.304 495.531 213.239 480.244 202.478 466.627L202.49 466.633L202.462 466.583C202.443 466.553 202.423 466.523 202.401 466.494C202.387 466.476 202.373 466.458 202.357 466.441C202.335 466.414 202.31 466.388 202.284 466.363C191.369 452.878 176.625 444.715 158.514 442.199C152.59 441.375 146.774 441.22 141.204 441.732C140.435 441.796 139.682 441.575 139.112 441.096L139.063 441.053C138.738 441.61 138.141 441.997 137.429 442.046C130.607 442.536 123.495 442.28 116.26 441.279C92.2259 437.939 72.6922 427.084 58.193 409.021C43.6939 390.957 38.2016 370.612 41.8395 348.55C45.4772 326.487 57.3091 308.546 76.9807 295.247L76.9892 295.237C76.9972 295.231 77.0141 295.221 77.0241 295.216L77.0426 295.207L77.0543 295.2C96.7131 281.923 118.859 276.886 142.863 280.225L142.862 280.251C160.663 282.541 177.101 278.683 191.755 268.775C206.533 258.785 215.419 245.289 218.148 228.658C220.873 212.11 216.809 196.823 206.048 183.206L206.059 183.212C206.009 183.117 205.941 183.027 205.854 182.941C194.938 169.457 180.194 161.294 162.083 158.778C156.16 157.954 150.344 157.799 144.773 158.311C144.004 158.375 143.252 158.155 142.682 157.675L142.662 157.657L142.632 157.631C142.307 158.188 141.71 158.576 140.998 158.624C134.177 159.114 127.064 158.859 119.829 157.857C95.7952 154.518 76.2615 143.662 61.7624 125.599C47.2632 107.536 41.7709 87.1904 45.4089 65.1282C49.0465 43.0659 60.8785 25.124 80.55 11.8254C80.55 11.8254 80.5571 11.8164 80.5621 11.8123C80.5717 11.8049 80.5844 11.7986 80.5966 11.7925L80.6123 11.7847L80.6237 11.7783L80.7742 11.6768L81.1248 11.4419L84.366 14.3826C83.9834 14.6316 83.6018 14.884 83.2212 15.1399C64.587 27.7388 53.3872 44.7651 49.9207 65.7388C46.4561 86.6572 51.628 105.921 65.271 122.985L65.2994 123.027L65.3265 123.065L65.3317 123.072L65.3742 123.129L65.4135 123.181C79.1164 140.247 97.6528 150.522 120.501 153.704C127.211 154.641 133.838 154.892 140.196 154.465C140.923 154.421 141.639 154.652 142.162 155.108L142.194 155.136C142.508 154.624 143.062 154.261 143.7 154.198C149.813 153.593 156.222 153.75 162.736 154.658C182.14 157.356 197.875 166.083 209.526 180.591C221.159 195.103 225.579 211.49 222.647 229.29C219.702 247.085 210.195 261.53 194.385 272.236C178.901 282.695 161.458 286.802 142.527 284.437L142.512 284.445L142.469 284.467C142.446 284.476 142.421 284.485 142.395 284.493C142.353 284.504 142.307 284.512 142.255 284.513C142.221 284.514 142.184 284.513 142.145 284.508C119.297 281.325 98.2767 286.056 79.6518 298.561C61.0177 311.16 49.8178 328.187 46.3513 349.16C42.8867 370.079 48.0587 389.342 61.7017 406.406L61.721 406.436L61.7417 406.465L61.7557 406.485L61.7976 406.542L61.8442 406.603C75.5471 423.669 94.0835 433.944 116.932 437.126C123.642 438.062 130.269 438.314 136.627 437.886C137.353 437.843 138.07 438.074 138.592 438.529L138.624 438.557C138.938 438.045 139.492 437.682 140.131 437.62C146.244 437.014 152.653 437.172 159.166 438.079C178.57 440.777 194.306 449.504 205.957 464.011C217.59 478.524 222.01 494.911 219.077 512.712C216.133 530.507 206.626 544.951 190.816 555.657C175.331 566.116 157.888 570.223 138.957 567.859L138.943 567.867L138.898 567.888C138.875 567.898 138.851 567.907 138.825 567.914L138.797 567.921L138.758 567.928L138.737 567.931L138.706 567.933L138.674 567.935L138.646 567.934L138.617 567.933L138.605 567.932L138.576 567.929C116.339 564.832 95.8328 569.229 77.5818 580.996L78.3501 581.693L77.9514 581.954C77.7022 582.118 77.4536 582.283 77.2053 582.45C58.5711 595.049 47.3713 612.076 43.9048 633.049C40.4402 653.968 45.6122 673.231 59.2552 690.295L59.2836 690.337L59.3106 690.375L59.3159 690.383L59.3583 690.44L59.3977 690.491C68.0833 701.309 78.711 709.398 91.1477 714.682C98.0183 717.483 105.43 719.443 113.362 720.547C120.072 721.483 126.699 721.735 133.058 721.308C133.706 721.268 134.347 721.448 134.849 721.812C134.942 721.828 135.034 721.849 135.124 721.874C135.446 721.418 135.967 721.099 136.561 721.041C142.675 720.436 149.084 720.593 155.597 721.501C162.737 722.494 169.38 724.303 175.505 726.916C186.512 731.389 195.886 738.407 203.511 747.901C215.144 762.413 219.563 778.8 216.631 796.601C213.687 814.396 204.179 828.84 188.369 839.546C172.885 850.005 155.442 854.112 136.511 851.748L136.497 851.756C136.481 851.764 136.464 851.772 136.446 851.78C136.425 851.788 136.403 851.796 136.379 851.803C136.311 851.822 136.228 851.831 136.129 851.818C113.281 848.636 92.2608 853.366 73.6359 865.872C55.0018 878.471 43.802 895.497 40.3354 916.471C36.8709 937.389 42.0428 956.653 55.6858 973.717L55.7051 973.746L55.7258 973.776L55.7398 973.795L55.7817 973.852L55.8283 973.913C64.5134 984.73 75.1402 992.819 87.576 998.102C94.4473 1000.9 101.86 1002.86 109.793 1003.97C116.503 1004.91 123.13 1005.16 129.488 1004.73C129.938 1004.7 130.385 1004.78 130.783 1004.95L130.82 1004.95C133.644 1004.67 136.53 1004.55 139.461 1004.6C143.925 1004.48 148.511 1004.74 153.15 1005.39C172.554 1008.09 188.29 1016.81 199.941 1031.32C211.574 1045.83 215.994 1062.22 213.061 1080.02C210.117 1097.82 200.61 1112.26 184.8 1122.97C171.809 1131.74 157.44 1136.05 141.97 1135.81C137.938 1135.92 133.829 1135.71 129.647 1135.19L129.632 1135.2L129.602 1135.21L129.588 1135.22L129.574 1135.22L129.549 1135.23L129.514 1135.24C129.446 1135.26 129.364 1135.27 129.265 1135.26C125.052 1134.67 120.9 1134.35 116.815 1134.3C99.9973 1134.7 84.3294 1139.72 70.0665 1149.29C51.4323 1161.89 40.2325 1178.92 36.766 1199.89C33.3014 1220.81 38.4733 1240.07 52.1163 1257.14L52.1528 1257.19L52.1771 1257.23L52.2 1257.26L52.2212 1257.28L52.2589 1257.33C65.9618 1274.4 84.4981 1284.68 107.346 1287.86C111.561 1288.45 115.744 1288.76 119.847 1288.81C121.157 1288.78 122.458 1288.72 123.747 1288.64C124.078 1288.62 124.408 1288.65 124.718 1288.74C125.278 1288.72 125.837 1288.69 126.393 1288.66C126.647 1288.5 126.939 1288.4 127.251 1288.37C130.073 1288.09 132.959 1287.97 135.889 1288.02C140.354 1287.9 144.941 1288.16 149.581 1288.81C168.985 1291.51 184.721 1300.24 196.372 1314.74C208.005 1329.26 212.425 1345.64 209.492 1363.44C206.548 1381.24 197.041 1395.68 181.23 1406.39C168.24 1415.16 153.871 1419.47 138.402 1419.23C134.37 1419.34 130.26 1419.13 126.077 1418.61L126.063 1418.62C126.03 1418.64 125.99 1418.65 125.945 1418.66C125.877 1418.68 125.794 1418.69 125.696 1418.68C121.481 1418.09 117.329 1417.77 113.243 1417.73Z"
    fill="#FF8400"
  />
<path
    d="M56.2333 1575.28L54.8789 1576.51C44.6763 1570.31 35.654 1562.32 27.8737 1552.57C10.5109 1531.06 3.91613 1506.75 8.28031 1480.34C12.6501 1453.95 26.794 1432.53 50.3067 1416.7L50.3133 1416.69L50.334 1416.67L50.3532 1416.67L50.3615 1416.66L50.3721 1416.66L50.3804 1416.65C69.4242 1403.73 90.4662 1397.32 113.074 1397.51C117.995 1397.41 122.992 1397.63 128.061 1398.17C128.211 1398.18 128.356 1398.21 128.494 1398.26C128.814 1398.2 129.143 1398.2 129.465 1398.26C130.125 1398.38 130.798 1398.48 131.46 1398.57C133.678 1398.88 135.867 1399.06 138.025 1399.11C147.711 1398.76 156.731 1395.77 164.933 1390.17C171.078 1386.05 175.85 1381.12 179.226 1375.41L179.237 1375.41C181.904 1370.9 183.696 1365.9 184.595 1360.44C186.63 1348.08 183.549 1336.72 175.42 1326.69C167.406 1316.59 156.509 1310.52 143.029 1308.65C140.795 1308.34 138.582 1308.15 136.402 1308.1C134.752 1308.16 133.124 1308.29 131.523 1308.5C131.004 1308.57 130.474 1308.51 129.999 1308.32C129.436 1308.38 128.877 1308.44 128.321 1308.51C128.051 1308.65 127.744 1308.74 127.414 1308.76C125.054 1308.89 122.664 1308.95 120.249 1308.93C113.911 1309.05 107.385 1308.65 100.787 1307.73C72.0215 1303.72 48.6832 1290.74 31.4431 1269.15C14.0802 1247.63 7.48549 1223.33 11.8497 1196.92C16.2195 1170.53 30.3633 1149.11 53.8761 1133.28C53.88 1133.27 53.8862 1133.26 53.8936 1133.26L53.9068 1133.25L53.9217 1133.24L53.9317 1133.24L53.9406 1133.23L53.9497 1133.23C72.9936 1120.3 94.0357 1113.9 116.643 1114.09C121.564 1113.99 126.562 1114.21 131.631 1114.75C131.781 1114.76 131.925 1114.79 132.064 1114.83C132.383 1114.78 132.713 1114.78 133.034 1114.84C133.694 1114.96 134.368 1115.06 135.029 1115.15C137.248 1115.46 139.437 1115.64 141.594 1115.69C151.28 1115.34 160.3 1112.35 168.503 1106.74C174.647 1102.63 179.42 1097.7 182.795 1091.98L182.807 1091.99C185.474 1087.47 187.266 1082.48 188.164 1077.02C190.199 1064.65 187.119 1053.29 178.989 1043.27C170.975 1033.17 160.079 1027.1 146.598 1025.23C144.364 1024.91 142.152 1024.73 139.973 1024.68C138.322 1024.74 136.693 1024.87 135.092 1025.08C134.574 1025.15 134.044 1025.08 133.568 1024.9C133.006 1024.95 132.447 1025.02 131.892 1025.09C131.622 1025.23 131.314 1025.32 130.984 1025.34C123.446 1025.76 115.601 1025.4 107.651 1024.29C97.2201 1022.84 87.5026 1020.2 78.5308 1016.41C62.2771 1009.75 48.4328 999.332 37.1845 985.243C19.8217 963.728 13.227 939.423 17.5911 913.012C21.961 886.618 36.1048 865.201 59.6175 849.369L59.6259 849.359L59.6334 849.353L59.6448 849.346L59.6538 849.341L59.6768 849.33L59.6912 849.322C81.9805 834.195 107.007 827.993 134.077 830.859C134.227 830.874 134.372 830.903 134.51 830.945C134.83 830.894 135.159 830.894 135.48 830.951C136.141 831.07 136.814 831.168 137.476 831.26C150.944 833.127 163.319 830.3 174.244 822.837C180.389 818.725 185.161 813.791 188.536 808.077L188.548 808.082C191.215 803.568 193.007 798.575 193.906 793.11C195.941 780.747 192.86 769.387 184.73 759.358C179.693 753.012 173.517 748.257 166.275 745.136C162.31 743.542 158.034 742.424 153.463 741.788C148.374 741.072 143.398 741.042 138.662 741.661C137.909 741.759 137.131 741.576 136.532 741.161C136.405 741.136 136.281 741.103 136.159 741.063C135.803 741.551 135.225 741.88 134.553 741.92C127.016 742.333 119.17 741.979 111.221 740.873C100.79 739.416 91.0728 736.782 82.1013 732.986C65.8471 726.33 52.0025 715.911 40.7539 701.822C23.3911 680.306 16.7963 656.002 21.1605 629.591C25.5303 603.196 39.6742 581.779 63.1869 565.947C63.1903 565.942 63.1953 565.937 63.2013 565.932L63.2102 565.927L63.2315 565.916L63.2447 565.909L63.2605 565.9C85.5498 550.774 110.576 544.571 137.647 547.437C137.797 547.452 137.941 547.482 138.079 547.523C138.399 547.472 138.728 547.472 139.05 547.53C139.71 547.649 140.384 547.746 141.045 547.838C154.514 549.706 166.888 546.878 177.814 539.415C183.958 535.303 188.73 530.369 192.106 524.655L192.117 524.661C194.785 520.146 196.576 515.153 197.475 509.688C199.51 497.325 196.429 485.966 188.3 475.937C180.286 465.84 169.39 459.773 155.909 457.899C150.82 457.183 145.844 457.152 141.108 457.772C140.284 457.879 139.43 457.649 138.813 457.147L138.746 457.091L138.724 457.071L138.693 457.043C138.35 457.603 137.73 457.988 137 458.031C129.462 458.445 121.617 458.09 113.667 456.984C84.9018 452.967 61.5635 439.994 44.3233 418.4C26.9605 396.885 20.3657 372.581 24.7299 346.169C29.0997 319.775 43.2436 298.358 66.7563 282.526C66.7619 282.517 66.772 282.51 66.7836 282.503L66.8028 282.494L66.8111 282.49L66.8217 282.484L66.83 282.479C89.1193 267.353 114.146 261.15 141.216 264.016C141.366 264.031 141.511 264.061 141.649 264.102C141.969 264.051 142.298 264.051 142.619 264.109C143.28 264.228 143.953 264.325 144.614 264.417C158.083 266.285 170.458 263.457 181.383 255.994C187.527 251.882 192.3 246.948 195.675 241.234L195.687 241.24C198.354 236.725 200.146 231.732 201.044 226.267C203.079 213.904 199.999 202.545 191.869 192.516C183.856 182.419 172.959 176.352 159.479 174.478C154.39 173.762 149.414 173.731 144.677 174.351C143.853 174.458 142.999 174.228 142.382 173.725L142.301 173.657L142.262 173.622C141.919 174.181 141.299 174.567 140.569 174.61C133.031 175.023 125.186 174.668 117.236 173.562C88.4711 169.545 65.1328 156.573 47.8927 134.979C30.5298 113.463 23.9351 89.1589 28.2993 62.7478C32.5694 36.9556 46.1728 15.9158 68.7312 0.196786L71.9614 3.12745C50.0851 18.272 36.9126 38.5239 32.8104 63.3858C28.6382 88.6206 34.9354 111.882 51.5149 132.533C68.0883 153.194 90.4346 165.603 117.931 169.422C125.416 170.464 132.813 170.805 139.93 170.434C140.638 170.395 141.336 170.631 141.835 171.075L141.883 171.118C142.169 170.69 142.628 170.385 143.171 170.302C148.59 169.505 154.303 169.526 160.156 170.342C174.81 172.367 186.748 178.966 195.663 189.959C204.439 201.009 207.774 213.432 205.55 226.889C203.341 240.269 196.213 251.201 184.358 259.361C184.266 259.414 184.168 259.477 184.088 259.535C172.131 267.533 158.604 270.583 143.956 268.547C143.679 268.509 143.402 268.469 143.126 268.427L143.122 268.599C116.244 265.228 91.4601 271.02 69.4275 285.841C46.931 301.06 33.4076 321.556 29.2411 346.808C25.0688 372.042 31.3661 395.304 47.9456 415.954C64.519 436.615 86.8653 449.025 114.362 452.843C121.847 453.886 129.243 454.227 136.36 453.856C137.068 453.817 137.767 454.052 138.266 454.497L138.287 454.515L138.314 454.539C138.599 454.111 139.059 453.806 139.601 453.723C145.021 452.927 150.734 452.947 156.586 453.763C171.241 455.789 183.178 462.387 192.094 473.381C200.869 484.43 204.205 496.852 201.981 510.31C199.771 523.69 192.643 534.622 180.788 542.783L180.734 542.814L180.696 542.837L180.669 542.855L180.629 542.88L180.582 542.911L180.518 542.956C168.561 550.954 155.035 554.005 140.386 551.969L140.231 551.947L140.05 551.921L139.87 551.895L139.556 551.848L139.553 552.02C112.675 548.649 87.8906 554.441 65.858 569.262C65.627 569.418 65.3969 569.575 65.1678 569.732L65.9455 570.438C44.0692 585.582 30.8967 605.834 26.7945 630.696C22.6223 655.931 28.9196 679.193 45.4991 699.843C56.0428 712.987 68.9231 722.792 83.9796 729.169C92.2758 732.566 101.222 734.935 110.792 736.264C118.277 737.307 125.674 737.648 132.791 737.276C133.421 737.242 134.043 737.425 134.524 737.778C134.627 737.795 134.728 737.818 134.827 737.847C135.114 737.479 135.539 737.22 136.032 737.145C141.451 736.348 147.165 736.369 153.017 737.185C158.478 737.94 163.563 739.33 168.254 741.346C176.631 744.724 183.791 750.048 189.647 757.27C198.423 768.319 201.759 780.742 199.534 794.199C197.325 807.58 190.197 818.512 178.342 826.672C178.25 826.724 178.152 826.787 178.072 826.845C166.115 834.843 152.588 837.894 137.94 835.858C137.663 835.82 137.386 835.779 137.11 835.737L137.107 835.909C110.228 832.538 85.4442 838.33 63.4116 853.151C40.9152 868.37 27.3917 888.866 23.2252 914.118C19.053 939.353 25.3502 962.614 41.9297 983.265C52.4758 996.412 65.3594 1006.22 80.4202 1012.6C88.7136 1015.99 97.6566 1018.36 107.223 1019.69C114.708 1020.73 122.105 1021.07 129.222 1020.7C129.721 1020.67 130.215 1020.78 130.638 1021C133.608 1020.59 136.664 1020.41 139.782 1020.48C143.298 1020.36 146.907 1020.56 150.57 1021.07C165.225 1023.1 177.162 1029.7 186.078 1040.69C194.854 1051.74 198.189 1064.16 195.965 1077.62C193.755 1091 186.627 1101.93 174.772 1110.09L174.718 1110.12L174.681 1110.15L174.653 1110.16L174.614 1110.19L174.567 1110.22L174.502 1110.27C164.575 1116.91 153.566 1120.14 141.731 1119.88C138.253 1119.99 134.698 1119.8 131.076 1119.3L130.565 1119.22L130.436 1119.21L130.246 1119.18L130.242 1119.35C125.641 1118.77 121.102 1118.46 116.627 1118.42C96.2093 1118.84 77.1743 1124.91 59.8421 1136.57C37.3457 1151.79 23.8223 1172.29 19.6557 1197.54C15.4835 1222.77 21.7808 1246.04 38.3603 1266.69C54.9336 1287.35 77.28 1299.76 104.777 1303.57C109.954 1304.3 115.09 1304.68 120.12 1304.73C121.246 1304.7 122.367 1304.66 123.48 1304.61C123.764 1304.59 124.046 1304.62 124.314 1304.69C124.958 1304.67 125.6 1304.64 126.24 1304.61C126.39 1304.55 126.552 1304.5 126.721 1304.47C129.799 1304.02 132.972 1303.83 136.212 1303.9C139.728 1303.79 143.337 1303.98 147.001 1304.5C161.655 1306.52 173.593 1313.12 182.509 1324.11C191.284 1335.16 194.62 1347.58 192.396 1361.04C190.186 1374.42 183.058 1385.35 171.203 1393.51C171.183 1393.53 171.162 1393.54 171.141 1393.55C171.109 1393.57 171.078 1393.59 171.047 1393.61C171.007 1393.64 170.968 1393.66 170.933 1393.69C161.006 1400.33 149.997 1403.56 138.163 1403.3C134.684 1403.42 131.129 1403.22 127.506 1402.72C127.229 1402.68 126.953 1402.64 126.676 1402.6L126.673 1402.77C122.072 1402.19 117.533 1401.88 113.058 1401.84C92.6404 1402.26 73.6052 1408.33 56.2728 1419.99C33.7764 1435.21 20.2529 1455.71 16.0864 1480.96C11.9141 1506.2 18.2114 1529.46 34.7909 1550.11C51.3643 1570.77 73.7106 1583.18 101.207 1587C108.692 1588.04 116.089 1588.38 123.206 1588.01C123.705 1587.98 124.199 1588.09 124.622 1588.31C129.938 1587.57 135.532 1587.6 141.26 1588.4C155.914 1590.43 167.851 1597.03 176.767 1608.02C185.543 1619.07 188.878 1631.49 186.654 1644.95C184.445 1658.33 177.316 1669.26 165.462 1677.42C165.37 1677.47 165.272 1677.54 165.192 1677.6C153.235 1685.59 139.708 1688.64 125.06 1686.61L124.549 1686.54L124.42 1686.52L124.23 1686.49L124.226 1686.66C97.3482 1683.29 72.5639 1689.08 50.5313 1703.9C28.0349 1719.12 14.5114 1739.62 10.3449 1764.87C6.17268 1790.1 12.47 1813.36 29.0494 1834.01C45.6228 1854.68 67.9691 1867.09 95.4657 1870.9C102.951 1871.95 110.347 1872.29 117.464 1871.92C118.172 1871.88 118.871 1872.11 119.37 1872.56L119.418 1872.6C119.703 1872.17 120.163 1871.87 120.705 1871.78C126.125 1870.99 131.838 1871.01 137.69 1871.82C152.345 1873.85 164.282 1880.45 173.198 1891.44C181.973 1902.49 185.309 1914.91 183.085 1928.37C180.875 1941.75 173.747 1952.68 161.892 1960.84C161.8 1960.9 161.702 1960.96 161.622 1961.02C149.665 1969.01 136.139 1972.07 121.49 1970.03C121.214 1969.99 120.937 1969.95 120.66 1969.91L120.657 1970.08C93.7788 1966.71 68.9946 1972.5 46.962 1987.32C24.4655 2002.54 10.9421 2023.04 6.77558 2048.29C2.60336 2073.52 8.90062 2096.79 25.4801 2117.44C33.1606 2127.01 42.081 2134.81 52.1792 2140.81L48.863 2143.82C38.6604 2137.62 29.6382 2129.63 21.8578 2119.88C4.49504 2098.37 -2.09973 2074.06 2.26443 2047.65C6.63426 2021.26 20.7781 1999.84 44.2909 1984.01L44.2974 1984L44.3181 1983.99L44.3373 1983.98L44.3456 1983.97L44.3562 1983.97L44.3645 1983.96C66.6538 1968.83 91.6802 1962.63 118.751 1965.5C118.9 1965.51 119.045 1965.54 119.183 1965.58C119.503 1965.53 119.832 1965.53 120.154 1965.59C120.814 1965.71 121.488 1965.81 122.149 1965.9C135.617 1967.77 147.992 1964.94 158.918 1957.48C165.062 1953.36 169.834 1948.43 173.21 1942.72L173.221 1942.72C175.888 1938.21 177.68 1933.21 178.579 1927.75C180.614 1915.39 177.533 1904.03 169.404 1894C161.39 1883.9 150.494 1877.83 137.013 1875.96C131.924 1875.24 126.948 1875.21 122.212 1875.83C121.388 1875.94 120.534 1875.71 119.917 1875.21L119.847 1875.15L119.813 1875.12L119.797 1875.1C119.453 1875.66 118.834 1876.05 118.104 1876.09C110.566 1876.51 102.721 1876.15 94.771 1875.04C66.0056 1871.03 42.6673 1858.06 25.4272 1836.46C8.06438 1814.95 1.46962 1790.64 5.83378 1764.23C10.2036 1737.84 24.3475 1716.42 47.8602 1700.59C47.8641 1700.58 47.8703 1700.57 47.8777 1700.57L47.8924 1700.56L47.9066 1700.55L47.9158 1700.55L47.9247 1700.54L47.9338 1700.54C70.2231 1685.41 95.2495 1679.21 122.32 1682.08C122.47 1682.09 122.615 1682.12 122.753 1682.16C123.072 1682.11 123.402 1682.11 123.723 1682.17C124.384 1682.29 125.057 1682.39 125.718 1682.48C139.187 1684.34 151.562 1681.52 162.487 1674.05C168.631 1669.94 173.404 1665.01 176.779 1659.29L176.791 1659.3C179.458 1654.79 181.25 1649.79 182.148 1644.33C184.183 1631.96 181.103 1620.6 172.973 1610.58C164.96 1600.48 154.063 1594.41 140.583 1592.54C135.493 1591.82 130.518 1591.79 125.781 1592.41C125.2 1592.49 124.604 1592.39 124.086 1592.16L124.011 1592.17L123.963 1592.17L123.896 1592.18L123.845 1592.18C116.307 1592.6 108.462 1592.24 100.512 1591.14C83.8994 1588.82 69.0966 1583.51 56.2333 1575.28Z"
    fill="#FF8400"
  />
</svg>
