<svg
  width="1088"
  height="892"
  viewBox="0 0 1088 892"
  fill="none"
  xmlns="http://www.w3.org/2000/svg"
>
<path
    fill-rule="evenodd"
    clip-rule="evenodd"
    d="M-2032.35 0.149902C-2061.98 74.2646 -2078.25 155.023 -2078.25 239.536C-2078.25 599.772 -1782.58 891.8 -1417.84 891.8C-1265.71 891.8 -1125.59 840.995 -1013.94 755.625C-902.278 840.994 -762.162 891.8 -610.031 891.8C-457.9 891.8 -317.783 840.994 -206.125 755.625C-94.4675 840.994 45.6492 891.8 197.78 891.8C349.911 891.8 490.028 840.994 601.686 755.625C713.344 840.994 853.46 891.8 1005.59 891.8C1370.32 891.8 1666 599.771 1666 239.536C1666 155.023 1649.73 74.2645 1620.1 0.149902H-2032.35Z"
    fill="#6199A8"
  />
<path
    fill-rule="evenodd"
    clip-rule="evenodd"
    d="M-2032.35 0.149902C-2061.98 74.2646 -2078.25 155.023 -2078.25 239.536C-2078.25 599.772 -1782.58 891.8 -1417.84 891.8C-1265.71 891.8 -1125.59 840.995 -1013.94 755.625C-902.278 840.994 -762.162 891.8 -610.031 891.8C-457.9 891.8 -317.783 840.994 -206.125 755.625C-94.4675 840.994 45.6492 891.8 197.78 891.8C349.911 891.8 490.028 840.994 601.686 755.625C713.344 840.994 853.46 891.8 1005.59 891.8C1370.32 891.8 1666 599.771 1666 239.536C1666 155.023 1649.73 74.2645 1620.1 0.149902H-2032.35Z"
    fill="#828366"
  />
</svg>
