<svg
  width="204"
  height="18"
  viewBox="0 0 204 18"
  fill="none"
  xmlns="http://www.w3.org/2000/svg"
>
<path
    d="M76.6473 10.2997C76.6441 10.2981 76.6452 10.2933 76.6488 10.2933L79.7284 10.3148C80.1297 10.3176 80.4573 10.6501 80.3943 11.0464C80.3136 11.5546 80.1586 12.0166 79.9324 12.4325C79.5847 13.0564 79.0945 13.5378 78.4616 13.8765C77.8377 14.2152 77.0978 14.3845 76.251 14.3756C75.3419 14.3756 74.5307 14.1439 73.8265 13.6893C73.1135 13.2347 72.5608 12.5751 72.1597 11.7016C71.7586 10.828 71.5536 9.7673 71.5625 8.51049C71.5625 7.25367 71.7764 6.20187 72.1864 5.33725C72.5965 4.47263 73.158 3.81303 73.8622 3.36735C74.5664 2.92167 75.3597 2.69883 76.2332 2.70774C76.7502 2.70774 77.2226 2.77905 77.6505 2.92167C78.0872 3.06428 78.4705 3.26038 78.8092 3.52779C79.148 3.78628 79.4332 4.09826 79.6739 4.47263C79.8133 4.67686 79.9333 4.89501 80.0369 5.12864C80.1871 5.46721 80.505 5.71349 80.8754 5.71625L81.6432 5.72195C82.1697 5.72587 82.5774 5.25109 82.409 4.75221C82.2783 4.36485 82.1094 3.9978 81.9023 3.65258C81.5368 3.01972 81.0644 2.4849 80.4939 2.02139C79.9324 1.5668 79.2906 1.21026 78.5597 0.960677C77.8377 0.711096 77.0622 0.577393 76.2243 0.577393C75.2171 0.577393 74.29 0.746751 73.4433 1.11221C72.5965 1.46875 71.8566 1.99465 71.2327 2.681C70.6087 3.36735 70.1185 4.19631 69.7709 5.1768C69.4232 6.1573 69.245 7.2715 69.236 8.51049C69.2271 10.1506 69.5124 11.5589 70.1007 12.7623C70.68 13.9567 71.5001 14.8748 72.5519 15.5255C73.6126 16.1762 74.8427 16.506 76.2421 16.5149C77.4989 16.5149 78.6042 16.2653 79.5847 15.7572C80.5652 15.2402 81.3318 14.5093 81.8844 13.5556C82.446 12.6018 82.7312 11.4698 82.7401 10.1684V9.24755C82.7401 8.78061 82.3631 8.40132 81.8961 8.39858L77.3937 8.37221C76.9849 8.36982 76.6522 8.70059 76.6522 9.10944V10.2967C76.6522 10.2992 76.6495 10.3008 76.6473 10.2997Z"
    fill="white"
  />
<path
    d="M162.521 16.4967C162.836 16.5008 163.04 16.1645 162.89 15.8872L159.988 10.5166C159.859 10.2779 159.976 9.99711 160.219 9.87578C161.038 9.47507 161.649 8.91043 162.059 8.17275C162.468 7.43507 162.678 6.58811 162.687 5.61364C162.687 4.63918 162.496 3.774 162.095 3.03632C161.694 2.28954 161.093 1.69757 160.283 1.26954C159.472 0.8415 158.452 0.622928 157.232 0.613821L152.434 0.582871C151.965 0.579845 151.583 0.957557 151.58 1.42647L151.49 15.5851C151.488 16.0535 151.865 16.4358 152.333 16.4394L153.03 16.4447C153.499 16.4482 153.883 16.0702 153.885 15.6009L153.912 11.2981C153.914 10.8294 154.297 10.4517 154.765 10.4543L157.168 10.4677C157.263 10.4677 157.35 10.5212 157.392 10.606L160.126 16.0297C160.27 16.3161 160.563 16.4967 160.884 16.4967H162.521ZM153.953 2.63561C153.953 2.64065 153.957 2.64474 153.962 2.64477L156.959 2.66293C157.751 2.66293 158.388 2.79043 158.871 3.02721C159.363 3.264 159.718 3.60096 159.937 4.03811C160.164 4.47525 160.283 4.99436 160.273 5.59543C160.273 6.18739 160.155 6.69739 159.927 7.11632C159.7 7.53525 159.335 7.854 158.844 8.08168C158.361 8.30025 157.724 8.40953 156.949 8.40043L154.766 8.38731C154.297 8.3845 153.919 8.00195 153.922 7.53296L153.953 2.63561Z"
    fill="white"
  />
<path
    d="M0.677252 15.6546C0.674285 16.1243 1.05328 16.5072 1.52299 16.509L2.23032 16.5117C2.69871 16.5135 3.08005 16.1356 3.08252 15.6672L3.11017 10.4211C3.11264 9.95169 3.49551 9.5734 3.96488 9.57657L9.03395 9.61082C9.50359 9.614 9.88658 9.23527 9.88867 8.76563L9.89027 8.40506C9.89235 7.93696 9.51514 7.55549 9.04704 7.55232L3.98097 7.51805C3.51247 7.51488 3.1351 7.13278 3.13775 6.66428L3.15559 3.51272C3.15824 3.04369 3.54073 2.66568 4.00975 2.66856L9.78469 2.7039C10.2541 2.70677 10.6368 2.32812 10.6389 1.85868L10.6405 1.48866C10.6426 1.02047 10.2652 0.638976 9.79703 0.635939L1.62162 0.582901C1.1527 0.579859 0.770112 0.957576 0.767149 1.4265L0.677252 15.6546Z"
    fill="white"
  />
<path
    d="M39.3358 0.582579C38.867 0.579714 38.4845 0.95749 38.4817 1.42636L38.3948 15.6512C38.3919 16.1201 38.7697 16.5025 39.2386 16.5054L39.946 16.5097C40.4148 16.5126 40.7973 16.1348 40.8001 15.6659L40.887 1.44106C40.8899 0.972183 40.5121 0.589764 40.0432 0.5869L39.3358 0.582579Z"
    fill="white"
  />
<path
    d="M120.789 10.7305C120.792 10.7334 120.794 10.7373 120.794 10.7413C120.793 11.4488 120.631 12.076 120.317 12.6227C120.012 13.171 119.562 13.6025 118.978 13.9171C118.403 14.2227 117.711 14.3755 116.92 14.3665C116.129 14.3665 115.445 14.2047 114.879 13.8901C114.304 13.5665 113.863 13.135 113.549 12.5867C113.243 12.0384 113.09 11.4091 113.09 10.699L113.148 1.44317C113.151 0.974756 112.774 0.592486 112.305 0.588923L111.639 0.583858C111.17 0.580289 110.787 0.958262 110.784 1.42763L110.726 10.8698C110.726 11.9665 110.969 12.9373 111.481 13.7822C111.994 14.6272 112.713 15.2924 113.639 15.7778C114.564 16.2632 115.652 16.5059 116.902 16.5149C118.151 16.5149 119.248 16.2902 120.183 15.8137C121.117 15.3373 121.846 14.6811 122.367 13.8362C122.888 12.9912 123.149 12.0294 123.158 10.9327L123.216 1.48804C123.219 1.01966 122.842 0.637442 122.373 0.633893L121.698 0.628778C121.229 0.625222 120.845 1.00313 120.843 1.47245L120.785 10.7196C120.785 10.7237 120.787 10.7276 120.789 10.7305Z"
    fill="white"
  />
<path
    fill-rule="evenodd"
    clip-rule="evenodd"
    d="M202.899 8.85865C203.387 8.03936 203.668 7.08222 203.668 6.05965C203.668 3.03152 201.221 0.577148 198.193 0.577148C195.165 0.577148 192.719 3.03152 192.719 6.05168C192.719 7.06071 193.002 8.02045 193.488 8.83878C193 9.65808 192.719 10.6152 192.719 11.6378C192.719 14.6659 195.165 17.1203 198.193 17.1203C201.221 17.1203 203.668 14.6659 203.668 11.6458C203.668 10.6367 203.384 9.67699 202.899 8.85865ZM194.781 7.35547C194.627 6.95404 194.544 6.51725 194.544 6.05965C194.544 4.04356 196.177 2.40996 198.193 2.40996C200.209 2.40996 201.843 4.04356 201.843 6.05965C201.843 8.07574 200.209 9.70934 198.193 9.70934C197.835 9.70934 197.492 9.65355 197.173 9.5659L196.63 9.39492C196.211 9.26344 195.759 9.45171 195.558 9.8411C195.327 10.2887 195.507 10.8389 195.959 11.0627L196.042 11.1039C196.695 11.3907 197.428 11.5421 198.185 11.5421C199.477 11.5421 200.667 11.093 201.606 10.342C201.76 10.7434 201.843 11.1802 201.843 11.6378C201.843 13.6539 200.209 15.2875 198.193 15.2875C196.177 15.2875 194.544 13.6539 194.544 11.6378C194.544 9.62169 196.177 7.98809 198.193 7.98809C198.552 7.98809 198.895 8.04388 199.213 8.13153L199.757 8.30251C200.175 8.43399 200.627 8.24572 200.828 7.85633C201.06 7.40874 200.879 6.85849 200.428 6.63472L200.345 6.59356C199.691 6.30669 198.958 6.15528 198.201 6.15528C196.909 6.15528 195.719 6.60442 194.781 7.35547Z"
    fill="#6199A8"
  />
</svg>
