<svg
  width="291"
  height="263"
  viewBox="0 0 291 263"
  fill="none"
  xmlns="http://www.w3.org/2000/svg"
>
<g clip-path="url(#clip0_6_3567)">
<path
      fill-rule="evenodd"
      clip-rule="evenodd"
      d="M243.298 80.3687C245.712 84.2495 247.776 88.5446 249.434 93.1346L249.418 93.1267C255.41 109.742 254.613 126.277 247.059 142.262C239.584 158.295 227.368 169.467 210.761 175.46C203.43 178.097 196.115 179.42 188.847 179.42C179.747 179.42 170.734 177.348 161.881 173.205H161.841L161.53 173.037C146.342 165.921 135.52 154.542 129.36 139.21L129.36 139.21C129.336 139.146 129.313 139.082 129.297 139.019C129.161 138.812 129.058 138.588 128.986 138.357C128.866 137.999 128.739 137.632 128.611 137.274C125.966 129.95 121.049 124.579 113.997 121.312C110.076 119.447 106.052 118.507 102.028 118.507H101.374C98.4018 118.579 95.3737 119.169 92.3774 120.252C85.0542 122.898 79.6832 127.815 76.416 134.867C73.0692 141.895 72.7185 149.163 75.3642 156.486C76.3523 159.243 77.6831 161.754 79.3246 163.969C79.8346 164.654 80.0179 165.523 79.8267 166.344C79.6514 167.101 79.1892 167.714 78.5198 168.057C77.4839 168.591 76.2328 168.336 75.5474 167.451C73.4835 164.774 71.8101 161.666 70.567 158.223C67.4512 149.625 67.8417 141.027 71.7145 132.668C75.667 124.348 82.034 118.563 90.6403 115.455C99.2067 112.363 107.765 112.73 116.077 116.547L116.268 116.642C124.276 120.452 129.934 126.532 133.106 134.724L133.193 134.676L133.672 135.935C139.266 150.741 149.402 161.706 163.809 168.511C178.575 175.444 193.796 176.169 209.056 170.655C224.316 165.148 235.56 154.869 242.493 140.102C249.434 125.344 250.151 110.116 244.636 94.8559C243.13 90.6962 241.258 86.7915 239.074 83.2534C238.676 82.6159 238.564 81.835 238.763 81.1098C238.947 80.4085 239.417 79.8428 240.062 79.5081C241.226 78.9104 242.612 79.285 243.298 80.3687ZM66.9972 130.516C62.5347 140.126 62.0884 150.04 65.6824 159.985C66.8617 163.244 68.3758 166.248 70.1927 168.925C70.6389 169.603 70.7824 170.416 70.5911 171.181C70.3999 171.914 69.9456 172.495 69.3002 172.838C68.9256 173.037 68.5272 173.133 68.1367 173.133C67.3717 173.133 66.6306 172.774 66.1764 172.113C64.0408 169.021 62.2638 165.531 60.8931 161.738C56.8131 150.446 57.3311 139.202 62.4391 128.317C67.555 117.439 75.8744 109.861 87.1581 105.781C98.4499 101.709 109.694 102.235 120.579 107.335C131.146 112.308 138.612 120.308 142.764 131.114C142.868 131.241 142.955 131.385 143.011 131.544C147.577 144.19 156.032 153.498 168.152 159.243C180.321 164.957 192.895 165.539 205.534 160.981C218.133 156.438 227.416 147.984 233.138 135.863L233.193 135.752C238.907 123.575 239.489 111.009 234.931 98.3782C233.6 94.6727 231.903 91.2063 229.894 88.0746C229.472 87.4211 229.353 86.6242 229.552 85.8911C229.727 85.2457 230.118 84.7197 230.667 84.3771L230.683 84.3611L230.859 84.2655C232.006 83.6758 233.369 84.0264 234.046 85.0783C236.309 88.5686 238.222 92.4574 239.736 96.633C244.764 110.554 244.111 124.436 237.783 137.911C231.464 151.37 221.2 160.75 207.271 165.778C193.437 170.774 179.635 170.161 166.24 163.937H166.176L165.858 163.754C152.446 157.411 143.123 147.171 138.118 133.313L137.839 132.548C134.15 123.217 127.592 116.292 118.332 111.941C108.738 107.431 98.8324 106.968 88.8874 110.57C78.9822 114.156 71.643 120.81 67.0769 130.349L66.5828 130.237L66.9813 130.516C67.0131 130.46 67.045 130.389 67.045 130.389L66.9972 130.516ZM56.008 163.475C51.4499 150.844 52.0316 138.278 57.7532 126.093L57.8089 125.99C63.5305 113.861 72.8141 105.414 85.4127 100.872C98.0432 96.3142 110.626 96.8959 122.794 102.609C134.915 108.355 143.369 117.662 147.936 130.325C147.999 130.484 148.079 130.628 148.175 130.739C152.334 141.545 159.793 149.545 170.36 154.51C181.245 159.61 192.489 160.136 203.781 156.064C215.072 151.984 223.384 144.406 228.5 133.528C233.608 122.643 234.126 111.407 230.046 100.107C228.675 96.3142 226.898 92.8239 224.762 89.732C224.077 88.7359 222.738 88.4251 221.638 89.0068C220.993 89.3495 220.539 89.9392 220.348 90.6643C220.156 91.4293 220.3 92.2421 220.746 92.9195C222.563 95.597 224.085 98.6012 225.256 101.86C228.85 111.805 228.404 121.719 223.941 131.329L223.909 131.41C223.899 131.432 223.894 131.448 223.894 131.448L223.909 131.41C223.915 131.397 223.923 131.381 223.932 131.365C223.94 131.353 223.948 131.34 223.957 131.329L224.356 131.608L223.854 131.496C219.288 141.035 211.948 147.689 202.043 151.275C192.098 154.877 182.193 154.414 172.599 149.904C163.347 145.561 156.797 138.644 153.099 129.329L152.812 128.532C147.8 114.65 138.453 104.402 125.041 98.0753L124.77 97.9079H124.691C111.303 91.6843 97.4933 91.0707 83.6596 96.0671C69.7302 101.095 59.4664 110.475 53.1472 123.934C46.82 137.409 46.1666 151.291 51.1949 165.212C52.701 169.388 54.6214 173.276 56.8846 176.767C57.3388 177.476 58.1118 177.866 58.9086 177.866C59.2991 177.866 59.6975 177.771 60.0641 177.579L60.2235 177.492L60.2394 177.476C60.7893 177.133 61.1957 176.591 61.371 175.954C61.5702 175.221 61.4427 174.432 61.0283 173.77C59.0202 170.639 57.3308 167.172 55.9921 163.467L56.008 163.475ZM48.4624 121.742C41.5216 136.501 40.8044 151.729 46.3188 166.989V166.981C47.8169 171.149 49.6896 175.053 51.873 178.584C52.2714 179.221 52.383 180.002 52.1838 180.727C51.9925 181.42 51.5303 181.994 50.8849 182.329C50.5103 182.52 50.1119 182.616 49.7214 182.616C48.9006 182.616 48.1117 182.209 47.6496 181.476C45.235 177.587 43.1711 173.3 41.5136 168.71C35.5211 152.095 36.318 135.568 43.8724 119.575C51.355 103.542 63.5632 92.3696 80.17 86.3771C96.6813 80.4245 113.129 81.1815 129.066 88.6323H129.162L129.433 88.8076C144.645 95.9556 155.443 107.327 161.595 122.627L161.595 122.627C161.619 122.691 161.643 122.755 161.658 122.818C161.794 123.025 161.898 123.249 161.969 123.48C162.061 123.782 162.169 124.084 162.276 124.381C162.299 124.445 162.321 124.508 162.344 124.571C164.989 131.895 169.906 137.266 176.958 140.533C180.879 142.397 184.903 143.338 188.928 143.338H189.589C192.561 143.258 195.581 142.676 198.578 141.593C205.901 138.947 211.272 134.03 214.539 126.978C217.886 119.949 218.237 112.682 215.591 105.359C214.603 102.602 213.272 100.091 211.63 97.8761C211.12 97.1907 210.937 96.3222 211.128 95.5014C211.304 94.7443 211.774 94.1307 212.435 93.7881C213.471 93.2542 214.722 93.5092 215.408 94.3937C217.472 97.0712 219.145 100.179 220.388 103.622C223.504 112.22 223.113 120.818 219.241 129.177C215.288 137.497 208.921 143.282 200.315 146.39C191.74 149.482 183.182 149.115 174.879 145.298L174.687 145.202C166.679 141.393 161.021 135.313 157.849 127.121L157.762 127.169L157.284 125.91C151.69 111.104 141.553 100.139 127.146 93.3339C112.38 86.4011 97.1594 85.6839 81.8992 91.1903C66.6391 96.6967 55.3952 106.976 48.4624 121.742Z"
      fill="#6199A8"
    />
</g>
<path
    d="M242.573 181.368C242.222 181.926 241.497 182.109 240.892 181.798C240.549 181.623 240.302 181.32 240.198 180.938C240.087 180.539 240.15 180.101 240.374 179.742C242.605 176.132 244.509 172.156 246.039 167.917C251.665 152.346 250.932 136.815 243.856 121.754C236.788 106.693 225.313 96.2058 209.742 90.5879C194.163 84.962 178.64 85.703 163.579 92.7714C148.876 99.7201 138.541 110.9 132.835 126.009L132.736 125.958C132.682 126.115 132.626 126.273 132.57 126.429C129.573 134.725 123.995 140.861 116.042 144.646C115.987 144.67 115.923 144.702 115.867 144.734C107.851 148.415 99.5949 148.766 91.3393 145.786C83.0358 142.789 76.8999 137.203 73.0908 129.195C69.3535 121.13 68.979 112.843 71.9832 104.547C73.1785 101.232 74.7882 98.2359 76.7804 95.646C77.115 95.2157 77.7366 95.0962 78.2625 95.3672C78.7407 95.6141 78.9 96.0524 78.9558 96.2915C79.0674 96.7697 78.9558 97.2876 78.661 97.6861C76.9636 99.9732 75.5691 102.587 74.5332 105.472C71.776 113.106 72.1425 120.684 75.6249 127.999C79.0355 135.354 84.6375 140.478 92.2636 143.235C95.6344 144.455 98.9893 145.06 102.32 145.06L102.32 145.052C106.536 145.052 110.703 144.08 114.791 142.136C122.146 138.725 127.27 133.123 130.028 125.497C130.163 125.122 130.298 124.74 130.418 124.357C130.477 124.172 130.57 123.999 130.69 123.848C130.705 123.762 130.73 123.678 130.763 123.594C136.812 108.541 147.45 97.3614 162.399 90.3728C162.401 90.3719 162.403 90.371 162.404 90.37C162.408 90.3678 162.412 90.3654 162.415 90.363C162.419 90.3606 162.423 90.3581 162.426 90.356C162.433 90.3519 162.44 90.3488 162.447 90.3488C178.146 82.9379 194.37 82.1569 210.658 88.0298C226.954 93.9109 238.939 104.876 246.278 120.614C253.697 136.313 254.47 152.537 248.597 168.833C246.972 173.335 244.948 177.551 242.573 181.368Z"
    fill="#F88205"
  />
<path
    d="M233.337 176.65C232.994 177.184 232.293 177.352 231.704 177.049L231.696 177.041C231.353 176.865 231.106 176.555 231.002 176.172C230.891 175.758 230.962 175.312 231.194 174.945C233.242 171.75 234.979 168.203 236.349 164.402C241.019 151.461 240.421 138.584 234.58 126.136C234.556 126.089 234.532 126.041 234.509 126.001C228.652 113.586 219.137 104.924 206.227 100.27C193.286 95.6001 180.401 96.1978 167.93 102.055C155.514 107.936 146.852 117.474 142.183 130.416C142.162 130.471 142.133 130.512 142.103 130.542C142.083 130.561 142.063 130.577 142.043 130.589C142.04 130.59 142.037 130.592 142.034 130.594C138.01 141.232 130.718 149.091 120.361 153.961C109.771 158.926 98.8379 159.436 87.8569 155.475C76.876 151.507 68.7877 144.128 63.8152 133.553C58.8507 122.971 58.3407 112.038 62.3091 101.049C63.6399 97.3594 65.3691 93.9568 67.4489 90.9445C67.7836 90.4584 68.469 90.299 69.0268 90.594C69.3694 90.7772 69.6165 91.0879 69.7201 91.4864C69.8316 91.9327 69.7439 92.3949 69.4889 92.7774C67.6163 95.5346 66.0544 98.6263 64.8432 101.981C61.1377 112.237 61.6079 122.477 66.1979 132.358C66.2218 132.43 66.2536 132.494 66.2935 132.549L66.2935 132.541C71.003 142.383 78.5653 149.236 88.7733 152.925C99.0291 156.639 109.245 156.161 119.134 151.515C128.942 146.909 135.806 139.499 139.552 129.475L139.537 129.467C144.446 115.873 153.602 105.84 166.75 99.6563C166.756 99.6536 166.761 99.6501 166.766 99.6466L166.767 99.6461C166.773 99.6421 166.779 99.638 166.785 99.6354C166.79 99.6335 166.794 99.6324 166.798 99.6324C179.962 93.4486 193.549 92.8031 207.16 97.7199C220.77 102.637 230.811 111.801 236.995 124.973C243.179 138.145 243.824 151.724 238.907 165.335C237.425 169.431 235.552 173.232 233.337 176.65Z"
    fill="#F88205"
  />
<path
    d="M225.321 130.543C225.297 130.471 225.265 130.408 225.225 130.352L225.225 130.36C220.515 120.518 212.953 113.665 202.745 109.976C192.489 106.262 182.273 106.741 172.384 111.386C162.576 115.992 155.712 123.402 151.966 133.426L151.981 133.434C147.073 147.029 137.917 157.061 124.768 163.245C124.763 163.248 124.758 163.251 124.752 163.255L124.752 163.255C124.741 163.262 124.731 163.269 124.72 163.269C111.556 169.453 97.9693 170.098 84.3587 165.181C70.748 160.265 60.7074 151.101 54.5237 137.928C48.3399 124.756 47.6944 111.177 52.6111 97.5666C54.0933 93.4706 55.966 89.6695 58.1813 86.2508C58.524 85.717 59.2252 85.5497 59.8149 85.8524L59.8228 85.8604C60.1655 86.0359 60.4126 86.3466 60.5161 86.729C60.6277 87.1434 60.556 87.5897 60.3249 87.9563C58.277 91.1517 56.5397 94.6978 55.1691 98.4989C50.4994 111.44 51.0971 124.318 56.9382 136.765C56.9511 136.791 56.9641 136.817 56.9771 136.841C56.988 136.862 56.999 136.882 57.0099 136.9C62.8669 149.316 72.3816 157.978 85.291 162.631C98.2322 167.301 111.118 166.703 123.589 160.846C136.004 154.965 144.666 145.427 149.336 132.486C149.357 132.43 149.385 132.389 149.415 132.36C149.435 132.34 149.456 132.324 149.476 132.313C149.478 132.311 149.481 132.309 149.484 132.307C153.508 121.669 160.8 113.81 171.157 108.94C181.747 103.975 192.681 103.465 203.662 107.426C214.642 111.394 222.731 118.773 227.703 129.348C232.668 139.93 233.178 150.863 229.209 161.852C227.879 165.542 226.149 168.945 224.07 171.957C223.735 172.443 223.05 172.602 222.492 172.307C222.149 172.124 221.902 171.813 221.798 171.415C221.687 170.969 221.775 170.506 222.03 170.124C223.902 167.367 225.464 164.275 226.675 160.92C230.381 150.664 229.911 140.424 225.321 130.543Z"
    fill="#F88205"
  />
<path
    d="M199.255 119.666C195.884 118.447 192.529 117.841 189.198 117.841L189.198 117.849C184.983 117.849 180.815 118.821 176.727 120.766C169.372 124.176 164.248 129.778 161.491 137.404C161.355 137.779 161.22 138.161 161.1 138.544C161.042 138.73 160.948 138.902 160.829 139.054C160.813 139.139 160.789 139.224 160.755 139.307C154.707 154.36 144.068 165.54 129.119 172.529C129.114 172.531 129.108 172.535 129.103 172.538C129.093 172.545 129.082 172.552 129.071 172.552C113.373 179.963 97.1485 180.744 80.8604 174.871C64.5642 168.99 52.5793 158.025 45.24 142.287C37.8211 126.589 37.0482 110.364 42.9211 94.0682C44.5468 89.566 46.5709 85.3505 48.9455 81.5334C49.2962 80.9756 50.0213 80.7924 50.6269 81.1031C50.9696 81.2783 51.2166 81.5813 51.3202 81.9638C51.4318 82.3622 51.368 82.8005 51.1449 83.1591C48.9136 86.7689 47.0091 90.7453 45.4791 94.9848C39.8531 110.556 40.5863 126.087 47.6626 141.148C54.7309 156.209 66.2058 166.696 81.7768 172.313C97.3557 177.939 112.879 177.198 127.94 170.13C142.642 163.181 152.978 152.001 158.683 136.892L158.782 136.944C158.837 136.786 158.892 136.629 158.949 136.472C161.945 128.176 167.523 122.041 175.476 118.255C175.532 118.231 175.596 118.2 175.651 118.168C183.668 114.486 191.924 114.135 200.179 117.116C208.483 120.112 214.619 125.698 218.428 133.707C222.165 141.771 222.54 150.059 219.535 158.354C218.34 161.669 216.73 164.665 214.738 167.255C214.403 167.686 213.782 167.805 213.256 167.534C212.778 167.287 212.618 166.849 212.563 166.61C212.451 166.132 212.563 165.614 212.857 165.215C214.555 162.928 215.949 160.315 216.985 157.43C219.743 149.796 219.376 142.217 215.894 134.902C212.483 127.547 206.881 122.423 199.255 119.666Z"
    fill="#F88205"
  />
<defs>
<clipPath id="clip0_6_3567">
<rect
        width="215.857"
        height="103.395"
        fill="white"
        transform="translate(37.5461 79.2291)"
      />
</clipPath>
</defs>
</svg>
